solid STL generated by MeshLab
  facet normal -3.857730e-02 -9.300315e-02 -9.949182e-01
    outer loop
      vertex   2.865597e+01 -8.445144e+00 -7.365048e+01
      vertex   4.015236e+01 -1.247361e+01 -7.371967e+01
      vertex   3.395435e+01 -1.712588e+01 -7.304446e+01
    endloop
  endfacet
  facet normal  1.409000e-01  4.175167e-01 -8.976787e-01
    outer loop
      vertex   4.015236e+01 -1.247361e+01 -7.371967e+01
      vertex   2.865597e+01 -8.445144e+00 -7.365048e+01
      vertex   3.789125e+01 -6.537357e+00 -7.131358e+01
    endloop
  endfacet
  facet normal -8.434864e-03  6.768678e-03 -9.999415e-01
    outer loop
      vertex  -9.581221e+00 -1.328790e+00 -7.333081e+01
      vertex  -4.561571e+00  4.472282e+00 -7.333389e+01
      vertex  -8.613059e-01 -8.114944e+00 -7.345030e+01
    endloop
  endfacet
  facet normal  1.535478e-01  5.426378e-02 -9.866502e-01
    outer loop
      vertex   3.836176e+00 -5.371288e-01 -7.230249e+01
      vertex  -8.613059e-01 -8.114944e+00 -7.345030e+01
      vertex  -4.561571e+00  4.472282e+00 -7.333389e+01
    endloop
  endfacet
  facet normal  1.805447e-02  1.142349e-02 -9.997718e-01
    outer loop
      vertex   8.468899e+00  9.925237e+00 -7.366003e+01
      vertex   2.294032e+01  1.105000e+01 -7.338584e+01
      vertex   1.915770e+01  1.322954e+00 -7.356529e+01
    endloop
  endfacet
  facet normal  4.502627e-02 -2.338250e-01 -9.712356e-01
    outer loop
      vertex  -2.425843e+01  1.194183e+01 -7.343373e+01
      vertex  -1.106652e+01  1.439570e+01 -7.341293e+01
      vertex  -1.630100e+01  9.906948e+00 -7.257493e+01
    endloop
  endfacet
  facet normal  8.186112e-03  1.361682e-01 -9.906519e-01
    outer loop
      vertex   8.468899e+00  9.925237e+00 -7.366003e+01
      vertex   1.634438e+01  1.707451e+01 -7.261226e+01
      vertex   2.294032e+01  1.105000e+01 -7.338584e+01
    endloop
  endfacet
  facet normal -7.603493e-03  4.934416e-02 -9.987529e-01
    outer loop
      vertex  -2.122109e+01  2.140346e+01 -7.298940e+01
      vertex  -1.106652e+01  1.439570e+01 -7.341293e+01
      vertex  -2.425843e+01  1.194183e+01 -7.343373e+01
    endloop
  endfacet
  facet normal  2.124321e-01  3.626640e-01 -9.073849e-01
    outer loop
      vertex  -2.122109e+01  2.140346e+01 -7.298940e+01
      vertex  -1.170030e+01  1.898784e+01 -7.172591e+01
      vertex  -1.106652e+01  1.439570e+01 -7.341293e+01
    endloop
  endfacet
  facet normal -3.165618e-01 -4.028028e-01 -8.588006e-01
    outer loop
      vertex   1.915770e+01  1.322954e+00 -7.356529e+01
      vertex   1.132972e+01  3.707609e+00 -7.179830e+01
      vertex   8.468899e+00  9.925237e+00 -7.366003e+01
    endloop
  endfacet
  facet normal -5.087668e-01  6.441531e-01 -5.711595e-01
    outer loop
      vertex   1.001918e+01  1.319207e+01 -7.135663e+01
      vertex   1.634438e+01  1.707451e+01 -7.261226e+01
      vertex   8.468899e+00  9.925237e+00 -7.366003e+01
    endloop
  endfacet
  facet normal -2.228867e-01  9.708403e-01  8.826458e-02
    outer loop
      vertex   3.204858e+01 -8.306878e+00 -6.660424e+01
      vertex   3.789125e+01 -6.537357e+00 -7.131358e+01
      vertex   2.865597e+01 -8.445144e+00 -7.365048e+01
    endloop
  endfacet
  facet normal  4.732591e-01 -7.068105e-01 -5.257802e-01
    outer loop
      vertex   4.015236e+01 -1.247361e+01 -7.371967e+01
      vertex   4.166691e+01 -1.365446e+01 -7.076898e+01
      vertex   3.395435e+01 -1.712588e+01 -7.304446e+01
    endloop
  endfacet
  facet normal  8.596456e-01  4.356224e-01 -2.669129e-01
    outer loop
      vertex   4.166691e+01 -1.365446e+01 -7.076898e+01
      vertex   4.015236e+01 -1.247361e+01 -7.371967e+01
      vertex   3.789125e+01 -6.537357e+00 -7.131358e+01
    endloop
  endfacet
  facet normal -2.055651e-01 -9.206719e-01  3.318224e-01
    outer loop
      vertex   1.132972e+01  3.707609e+00 -7.179830e+01
      vertex   1.915770e+01  1.322954e+00 -7.356529e+01
      vertex   1.868736e+01  3.623077e+00 -6.747476e+01
    endloop
  endfacet
  facet normal  2.463263e-01  9.691817e-01 -3.204224e-03
    outer loop
      vertex  -1.170030e+01  1.898784e+01 -7.172591e+01
      vertex  -2.122109e+01  2.140346e+01 -7.298940e+01
      vertex  -1.671806e+01  2.027752e+01 -6.737978e+01
    endloop
  endfacet
  facet normal -5.935257e-01 -7.669505e-01  2.439550e-01
    outer loop
      vertex  -8.613059e-01 -8.114944e+00 -7.345030e+01
      vertex  -7.511043e+00 -1.166063e+00 -6.778262e+01
      vertex  -9.581221e+00 -1.328790e+00 -7.333081e+01
    endloop
  endfacet
  facet normal -7.312759e-01  6.329055e-01  2.542957e-01
    outer loop
      vertex  -9.581221e+00 -1.328790e+00 -7.333081e+01
      vertex  -7.511043e+00 -1.166063e+00 -6.778262e+01
      vertex  -4.561571e+00  4.472282e+00 -7.333389e+01
    endloop
  endfacet
  facet normal  9.190576e-01 -3.603449e-01  1.596391e-01
    outer loop
      vertex   2.208363e+01  1.129134e+01 -6.790904e+01
      vertex   1.915770e+01  1.322954e+00 -7.356529e+01
      vertex   2.294032e+01  1.105000e+01 -7.338584e+01
    endloop
  endfacet
  facet normal -8.471804e-01 -5.234434e-01 -9.106208e-02
    outer loop
      vertex   3.395435e+01 -1.712588e+01 -7.304446e+01
      vertex   3.035854e+01 -1.254219e+01 -6.593945e+01
      vertex   2.865597e+01 -8.445144e+00 -7.365048e+01
    endloop
  endfacet
  facet normal -6.279392e-01 -7.549869e-01  1.889105e-01
    outer loop
      vertex  -7.511043e+00 -1.166063e+00 -6.778262e+01
      vertex  -8.613059e-01 -8.114944e+00 -7.345030e+01
      vertex  -1.611134e+00 -5.825174e+00 -6.679160e+01
    endloop
  endfacet
  facet normal  7.981784e-01 -5.363410e-01  2.743166e-01
    outer loop
      vertex  -8.613059e-01 -8.114944e+00 -7.345030e+01
      vertex   3.836176e+00 -5.371288e-01 -7.230249e+01
      vertex  -1.611134e+00 -5.825174e+00 -6.679160e+01
    endloop
  endfacet
  facet normal -7.257218e-01 -1.317242e-01  6.752605e-01
    outer loop
      vertex   8.468899e+00  9.925237e+00 -7.366003e+01
      vertex   1.132972e+01  3.707609e+00 -7.179830e+01
      vertex   1.001918e+01  1.319207e+01 -7.135663e+01
    endloop
  endfacet
  facet normal  6.772634e-01  7.320418e-01  7.368184e-02
    outer loop
      vertex   2.294032e+01  1.105000e+01 -7.338584e+01
      vertex   1.634438e+01  1.707451e+01 -7.261226e+01
      vertex   2.208363e+01  1.129134e+01 -6.790904e+01
    endloop
  endfacet
  facet normal  8.974360e-01 -3.853078e-01  2.148176e-01
    outer loop
      vertex   2.208363e+01  1.129134e+01 -6.790904e+01
      vertex   1.868736e+01  3.623077e+00 -6.747476e+01
      vertex   1.915770e+01  1.322954e+00 -7.356529e+01
    endloop
  endfacet
  facet normal -2.663126e-01 -8.481201e-01  4.580063e-01
    outer loop
      vertex  -2.425843e+01  1.194183e+01 -7.343373e+01
      vertex  -1.630100e+01  9.906948e+00 -7.257493e+01
      vertex  -1.931492e+01  1.498874e+01 -6.491711e+01
    endloop
  endfacet
  facet normal  3.102142e-01  9.363158e-01 -1.645589e-01
    outer loop
      vertex  -3.432559e+01  1.272016e+01 -6.554659e+01
      vertex  -3.387910e+01  1.141992e+01 -7.210311e+01
      vertex  -3.617067e+01  1.212025e+01 -7.243820e+01
    endloop
  endfacet
  facet normal -8.725290e-01  2.606916e-01  4.131986e-01
    outer loop
      vertex  -2.122109e+01  2.140346e+01 -7.298940e+01
      vertex  -2.425843e+01  1.194183e+01 -7.343373e+01
      vertex  -1.931492e+01  1.498874e+01 -6.491711e+01
    endloop
  endfacet
  facet normal -5.873736e-01  5.603290e-01  5.839725e-01
    outer loop
      vertex  -2.122109e+01  2.140346e+01 -7.298940e+01
      vertex  -1.931492e+01  1.498874e+01 -6.491711e+01
      vertex  -1.671806e+01  2.027752e+01 -6.737978e+01
    endloop
  endfacet
  facet normal  3.207731e-01 -9.020280e-01  2.888772e-01
    outer loop
      vertex   3.395435e+01 -1.712588e+01 -7.304446e+01
      vertex   4.166691e+01 -1.365446e+01 -7.076898e+01
      vertex   3.288016e+01 -1.373601e+01 -6.126669e+01
    endloop
  endfacet
  facet normal -2.851706e-01 -8.359213e-01  4.689493e-01
    outer loop
      vertex   1.366475e+01  6.303927e+00 -6.575031e+01
      vertex   1.132972e+01  3.707609e+00 -7.179830e+01
      vertex   1.868736e+01  3.623077e+00 -6.747476e+01
    endloop
  endfacet
  facet normal -9.009561e-01 -1.435605e-01  4.094735e-01
    outer loop
      vertex   1.001918e+01  1.319207e+01 -7.135663e+01
      vertex   1.132972e+01  3.707609e+00 -7.179830e+01
      vertex   1.366475e+01  6.303927e+00 -6.575031e+01
    endloop
  endfacet
  facet normal  6.451573e-01 -7.622162e-01 -5.290208e-02
    outer loop
      vertex  -1.106652e+01  1.439570e+01 -7.341293e+01
      vertex  -1.398578e+01  1.120690e+01 -6.306982e+01
      vertex  -1.630100e+01  9.906948e+00 -7.257493e+01
    endloop
  endfacet
  facet normal -5.858363e-01  8.057781e-01  8.670297e-02
    outer loop
      vertex  -3.636087e+01  1.101305e+01 -6.343350e+01
      vertex  -3.432559e+01  1.272016e+01 -6.554659e+01
      vertex  -3.617067e+01  1.212025e+01 -7.243820e+01
    endloop
  endfacet
  facet normal -8.313617e-01  3.933595e-01  3.925634e-01
    outer loop
      vertex   3.204858e+01 -8.306878e+00 -6.660424e+01
      vertex   2.865597e+01 -8.445144e+00 -7.365048e+01
      vertex   3.035854e+01 -1.254219e+01 -6.593945e+01
    endloop
  endfacet
  facet normal  8.301389e-01  4.640442e-01  3.090831e-01
    outer loop
      vertex   3.657402e+01 -1.147513e+01 -6.036239e+01
      vertex   4.166691e+01 -1.365446e+01 -7.076898e+01
      vertex   3.789125e+01 -6.537357e+00 -7.131358e+01
    endloop
  endfacet
  facet normal  5.168672e-01  8.085955e-01 -2.811075e-01
    outer loop
      vertex  -4.561571e+00  4.472282e+00 -7.333389e+01
      vertex  -1.966516e-01  4.454760e+00 -6.535859e+01
      vertex   3.836176e+00 -5.371288e-01 -7.230249e+01
    endloop
  endfacet
  facet normal  7.945035e-01 -3.787665e-01 -4.746578e-01
    outer loop
      vertex   2.208363e+01  1.129134e+01 -6.790904e+01
      vertex   2.675339e+01  7.346616e+00 -5.694479e+01
      vertex   1.868736e+01  3.623077e+00 -6.747476e+01
    endloop
  endfacet
  facet normal  8.948122e-01  3.646908e-01  2.575104e-01
    outer loop
      vertex  -1.966516e-01  4.454760e+00 -6.535859e+01
      vertex   2.611085e+00 -3.141910e+00 -6.435654e+01
      vertex   3.836176e+00 -5.371288e-01 -7.230249e+01
    endloop
  endfacet
  facet normal -6.445220e-01 -7.483740e-01  1.566129e-01
    outer loop
      vertex   3.395435e+01 -1.712588e+01 -7.304446e+01
      vertex   3.288016e+01 -1.373601e+01 -6.126669e+01
      vertex   3.035854e+01 -1.254219e+01 -6.593945e+01
    endloop
  endfacet
  facet normal  4.148355e-01 -8.283524e-01  3.764889e-01
    outer loop
      vertex   3.288016e+01 -1.373601e+01 -6.126669e+01
      vertex   4.166691e+01 -1.365446e+01 -7.076898e+01
      vertex   3.657402e+01 -1.147513e+01 -6.036239e+01
    endloop
  endfacet
  facet normal  5.953167e-01 -7.861709e-01 -1.659317e-01
    outer loop
      vertex   3.836176e+00 -5.371288e-01 -7.230249e+01
      vertex   2.611085e+00 -3.141910e+00 -6.435654e+01
      vertex  -1.611134e+00 -5.825174e+00 -6.679160e+01
    endloop
  endfacet
  facet normal -5.178738e-01 -8.252079e-01 -2.254741e-01
    outer loop
      vertex   1.711505e+01  2.801179e+00 -6.085540e+01
      vertex   1.366475e+01  6.303927e+00 -6.575031e+01
      vertex   1.868736e+01  3.623077e+00 -6.747476e+01
    endloop
  endfacet
  facet normal -3.102142e-01 -9.363158e-01  1.645589e-01
    outer loop
      vertex  -3.432559e+01  1.272016e+01 -6.554659e+01
      vertex  -3.617067e+01  1.212025e+01 -7.243820e+01
      vertex  -3.387910e+01  1.141992e+01 -7.210311e+01
    endloop
  endfacet
  facet normal -6.166461e-01 -7.457524e-01  2.521921e-01
    outer loop
      vertex  -1.630100e+01  9.906948e+00 -7.257493e+01
      vertex  -1.398578e+01  1.120690e+01 -6.306982e+01
      vertex  -1.931492e+01  1.498874e+01 -6.491711e+01
    endloop
  endfacet
  facet normal -4.299018e-01  8.215217e-01  3.745486e-01
    outer loop
      vertex   1.001918e+01  1.319207e+01 -7.135663e+01
      vertex   1.595809e+01  1.221867e+01 -6.240500e+01
      vertex   1.634438e+01  1.707451e+01 -7.261226e+01
    endloop
  endfacet
  facet normal  4.726244e-01  7.887301e-01  3.931043e-01
    outer loop
      vertex   1.634438e+01  1.707451e+01 -7.261226e+01
      vertex   1.595809e+01  1.221867e+01 -6.240500e+01
      vertex   2.208363e+01  1.129134e+01 -6.790904e+01
    endloop
  endfacet
  facet normal -2.363364e-01  9.690799e-01  7.091659e-02
    outer loop
      vertex   3.789125e+01 -6.537357e+00 -7.131358e+01
      vertex   3.204858e+01 -8.306878e+00 -6.660424e+01
      vertex   3.425824e+01 -8.472863e+00 -5.697214e+01
    endloop
  endfacet
  facet normal -6.408722e-01  6.820570e-01  3.522511e-01
    outer loop
      vertex  -7.511043e+00 -1.166063e+00 -6.778262e+01
      vertex  -1.966516e-01  4.454760e+00 -6.535859e+01
      vertex  -4.561571e+00  4.472282e+00 -7.333389e+01
    endloop
  endfacet
  facet normal  9.100312e-01  2.477082e-01 -3.323912e-01
    outer loop
      vertex  -1.106652e+01  1.439570e+01 -7.341293e+01
      vertex  -1.170030e+01  1.898784e+01 -7.172591e+01
      vertex  -5.365987e+00  1.436492e+01 -5.782877e+01
    endloop
  endfacet
  facet normal  8.861263e-01  3.731554e-01  2.748367e-01
    outer loop
      vertex   3.425824e+01 -8.472863e+00 -5.697214e+01
      vertex   3.657402e+01 -1.147513e+01 -6.036239e+01
      vertex   3.789125e+01 -6.537357e+00 -7.131358e+01
    endloop
  endfacet
  facet normal -5.971767e-01 -7.880355e-01 -1.495996e-01
    outer loop
      vertex  -7.511043e+00 -1.166063e+00 -6.778262e+01
      vertex  -1.611134e+00 -5.825174e+00 -6.679160e+01
      vertex  -5.100697e+00 -4.588373e+00 -5.937685e+01
    endloop
  endfacet
  facet normal -5.503954e-01  8.075847e-01 -2.118299e-01
    outer loop
      vertex  -7.511043e+00 -1.166063e+00 -6.778262e+01
      vertex  -1.765867e+00  5.774112e+00 -5.625139e+01
      vertex  -1.966516e-01  4.454760e+00 -6.535859e+01
    endloop
  endfacet
  facet normal -8.327558e-01  9.802875e-03  5.535538e-01
    outer loop
      vertex   1.001918e+01  1.319207e+01 -7.135663e+01
      vertex   1.366475e+01  6.303927e+00 -6.575031e+01
      vertex   1.595809e+01  1.221867e+01 -6.240500e+01
    endloop
  endfacet
  facet normal  5.858364e-01 -8.057781e-01 -8.670297e-02
    outer loop
      vertex  -3.617067e+01  1.212025e+01 -7.243820e+01
      vertex  -3.432559e+01  1.272016e+01 -6.554659e+01
      vertex  -3.636087e+01  1.101305e+01 -6.343350e+01
    endloop
  endfacet
  facet normal  4.221183e-01 -8.929876e-01 -1.561703e-01
    outer loop
      vertex  -1.106652e+01  1.439570e+01 -7.341293e+01
      vertex  -5.365987e+00  1.436492e+01 -5.782877e+01
      vertex  -1.398578e+01  1.120690e+01 -6.306982e+01
    endloop
  endfacet
  facet normal  2.323377e-01  9.724230e-01 -2.031627e-02
    outer loop
      vertex  -1.170030e+01  1.898784e+01 -7.172591e+01
      vertex  -1.671806e+01  2.027752e+01 -6.737978e+01
      vertex  -9.498724e+00  1.879021e+01 -5.600806e+01
    endloop
  endfacet
  facet normal  4.960370e-01 -8.595678e-01  1.228430e-01
    outer loop
      vertex   3.657402e+01 -1.147513e+01 -6.036239e+01
      vertex   3.335123e+01 -1.277921e+01 -5.647385e+01
      vertex   3.288016e+01 -1.373601e+01 -6.126669e+01
    endloop
  endfacet
  facet normal  3.700147e-01 -8.723065e-01  3.196414e-01
    outer loop
      vertex  -1.611134e+00 -5.825174e+00 -6.679160e+01
      vertex   2.611085e+00 -3.141910e+00 -6.435654e+01
      vertex  -5.100697e+00 -4.588373e+00 -5.937685e+01
    endloop
  endfacet
  facet normal -8.470000e-01 -5.309211e-01  2.671808e-02
    outer loop
      vertex  -8.397017e+00  7.497562e-01 -5.779955e+01
      vertex  -7.511043e+00 -1.166063e+00 -6.778262e+01
      vertex  -5.100697e+00 -4.588373e+00 -5.937685e+01
    endloop
  endfacet
  facet normal  7.218314e-01 -6.029537e-01 -3.397150e-01
    outer loop
      vertex   2.192044e+01  1.941063e+00 -5.761969e+01
      vertex   1.868736e+01  3.623077e+00 -6.747476e+01
      vertex   2.675339e+01  7.346616e+00 -5.694479e+01
    endloop
  endfacet
  facet normal  6.356276e-01  7.719640e-01  7.018652e-03
    outer loop
      vertex   2.675339e+01  7.346616e+00 -5.694479e+01
      vertex   2.208363e+01  1.129134e+01 -6.790904e+01
      vertex   2.017559e+01  1.276585e+01 -5.729039e+01
    endloop
  endfacet
  facet normal  3.144776e-02  9.907604e-01 -1.319268e-01
    outer loop
      vertex   1.595809e+01  1.221867e+01 -6.240500e+01
      vertex   2.017559e+01  1.276585e+01 -5.729039e+01
      vertex   2.208363e+01  1.129134e+01 -6.790904e+01
    endloop
  endfacet
  facet normal -5.605749e-01  8.026387e-01 -2.037814e-01
    outer loop
      vertex  -7.511043e+00 -1.166063e+00 -6.778262e+01
      vertex  -8.397017e+00  7.497562e-01 -5.779955e+01
      vertex  -1.765867e+00  5.774112e+00 -5.625139e+01
    endloop
  endfacet
  facet normal -7.462540e-01  1.980270e-01 -6.355237e-01
    outer loop
      vertex   2.246395e+01 -4.866873e+00 -5.427775e+01
      vertex   3.204858e+01 -8.306878e+00 -6.660424e+01
      vertex   3.035854e+01 -1.254219e+01 -6.593945e+01
    endloop
  endfacet
  facet normal  5.274515e-01  8.428867e-01 -1.064753e-01
    outer loop
      vertex   3.425824e+01 -8.472863e+00 -5.697214e+01
      vertex   3.204858e+01 -8.306878e+00 -6.660424e+01
      vertex   2.997349e+01 -5.564123e+00 -5.517130e+01
    endloop
  endfacet
  facet normal -8.112662e-02 -9.865699e-01 -1.417683e-01
    outer loop
      vertex   2.192044e+01  1.941063e+00 -5.761969e+01
      vertex   1.711505e+01  2.801179e+00 -6.085540e+01
      vertex   1.868736e+01  3.623077e+00 -6.747476e+01
    endloop
  endfacet
  facet normal  7.090033e-01  6.993721e-01 -9.051548e-02
    outer loop
      vertex  -1.170030e+01  1.898784e+01 -7.172591e+01
      vertex  -9.498724e+00  1.879021e+01 -5.600806e+01
      vertex  -5.365987e+00  1.436492e+01 -5.782877e+01
    endloop
  endfacet
  facet normal  6.394734e-02  9.729901e-01 -2.218132e-01
    outer loop
      vertex   2.997349e+01 -5.564123e+00 -5.517130e+01
      vertex   3.204858e+01 -8.306878e+00 -6.660424e+01
      vertex   2.246395e+01 -4.866873e+00 -5.427775e+01
    endloop
  endfacet
  facet normal -1.045487e-02 -9.558019e-01 -2.938256e-01
    outer loop
      vertex  -5.100697e+00 -4.588373e+00 -5.937685e+01
      vertex   2.611085e+00 -3.141910e+00 -6.435654e+01
      vertex  -7.176760e-01 -5.409936e+00 -5.686030e+01
    endloop
  endfacet
  facet normal -8.673941e-01 -3.057559e-01  3.926075e-01
    outer loop
      vertex   1.856548e+01  1.120196e+01 -5.110856e+01
      vertex   1.366475e+01  6.303927e+00 -6.575031e+01
      vertex   1.711505e+01  2.801179e+00 -6.085540e+01
    endloop
  endfacet
  facet normal  8.418806e-01 -4.902911e-01  2.255033e-01
    outer loop
      vertex  -7.176760e-01 -5.409936e+00 -5.686030e+01
      vertex   2.611085e+00 -3.141910e+00 -6.435654e+01
      vertex   3.236348e-01 -2.926101e+00 -5.534750e+01
    endloop
  endfacet
  facet normal  9.277635e-01  3.571635e-01  1.081162e-01
    outer loop
      vertex   2.611085e+00 -3.141910e+00 -6.435654e+01
      vertex  -1.966516e-01  4.454760e+00 -6.535859e+01
      vertex  -1.765867e+00  5.774112e+00 -5.625139e+01
    endloop
  endfacet
  facet normal  9.399024e-01  2.499051e-01  2.326605e-01
    outer loop
      vertex   3.236348e-01 -2.926101e+00 -5.534750e+01
      vertex   2.611085e+00 -3.141910e+00 -6.435654e+01
      vertex  -1.765867e+00  5.774112e+00 -5.625139e+01
    endloop
  endfacet
  facet normal -9.433036e-01  2.308533e-01  2.385059e-01
    outer loop
      vertex   1.366475e+01  6.303927e+00 -6.575031e+01
      vertex   1.856548e+01  1.120196e+01 -5.110856e+01
      vertex   1.595809e+01  1.221867e+01 -6.240500e+01
    endloop
  endfacet
  facet normal  6.916310e-01 -7.170022e-01  8.691636e-02
    outer loop
      vertex  -3.432559e+01  1.272016e+01 -6.554659e+01
      vertex  -3.556045e+01  1.296942e+01 -5.366408e+01
      vertex  -3.636087e+01  1.101305e+01 -6.343350e+01
    endloop
  endfacet
  facet normal -5.440061e-01 -8.292226e-01 -1.282462e-01
    outer loop
      vertex  -1.931492e+01  1.498874e+01 -6.491711e+01
      vertex  -1.398578e+01  1.120690e+01 -6.306982e+01
      vertex  -1.394569e+01  9.970191e+00 -5.524352e+01
    endloop
  endfacet
  facet normal -7.796239e-01  1.291552e-01 -6.127852e-01
    outer loop
      vertex   1.859311e+01 -1.210408e+01 -5.087839e+01
      vertex   2.246395e+01 -4.866873e+00 -5.427775e+01
      vertex   3.035854e+01 -1.254219e+01 -6.593945e+01
    endloop
  endfacet
  facet normal -6.658128e-01  5.577098e-01  4.956342e-01
    outer loop
      vertex  -9.498724e+00  1.879021e+01 -5.600806e+01
      vertex  -1.671806e+01  2.027752e+01 -6.737978e+01
      vertex  -1.931492e+01  1.498874e+01 -6.491711e+01
    endloop
  endfacet
  facet normal -7.375440e-02 -9.855557e-01 -1.524473e-01
    outer loop
      vertex   2.192044e+01  1.941063e+00 -5.761969e+01
      vertex   1.500402e+01  2.075210e+00 -5.514076e+01
      vertex   1.711505e+01  2.801179e+00 -6.085540e+01
    endloop
  endfacet
  facet normal  5.776811e-01 -4.744859e-01 -6.641895e-01
    outer loop
      vertex  -1.398578e+01  1.120690e+01 -6.306982e+01
      vertex  -5.365987e+00  1.436492e+01 -5.782877e+01
      vertex  -4.389043e+00  1.037864e+01 -5.413133e+01
    endloop
  endfacet
  facet normal -8.555124e-01  4.483023e-01 -2.590820e-01
    outer loop
      vertex   1.711505e+01  2.801179e+00 -6.085540e+01
      vertex   1.500402e+01  2.075210e+00 -5.514076e+01
      vertex   1.856548e+01  1.120196e+01 -5.110856e+01
    endloop
  endfacet
  facet normal -6.916310e-01  7.170022e-01 -8.691636e-02
    outer loop
      vertex  -3.636087e+01  1.101305e+01 -6.343350e+01
      vertex  -3.556045e+01  1.296942e+01 -5.366408e+01
      vertex  -3.432559e+01  1.272016e+01 -6.554659e+01
    endloop
  endfacet
  facet normal -2.086947e-01 -9.686390e-01 -1.348519e-01
    outer loop
      vertex   1.859311e+01 -1.210408e+01 -5.087839e+01
      vertex   3.035854e+01 -1.254219e+01 -6.593945e+01
      vertex   3.288016e+01 -1.373601e+01 -6.126669e+01
    endloop
  endfacet
  facet normal -3.106337e-01 -4.387286e-01 -8.432224e-01
    outer loop
      vertex   2.246395e+01 -4.866873e+00 -5.427775e+01
      vertex   1.123071e+01 -3.818983e+00 -5.068476e+01
      vertex   2.192044e+01  1.941063e+00 -5.761969e+01
    endloop
  endfacet
  facet normal  5.544989e-01  4.685106e-02 -8.308645e-01
    outer loop
      vertex   3.236348e-01 -2.926101e+00 -5.534750e+01
      vertex  -1.765867e+00  5.774112e+00 -5.625139e+01
      vertex   1.843207e+00  6.624731e+00 -5.379482e+01
    endloop
  endfacet
  facet normal -3.107421e-01 -4.385753e-01 -8.432622e-01
    outer loop
      vertex   1.123071e+01 -3.818983e+00 -5.068476e+01
      vertex   1.500402e+01  2.075210e+00 -5.514076e+01
      vertex   2.192044e+01  1.941063e+00 -5.761969e+01
    endloop
  endfacet
  facet normal  6.030362e-02 -9.858988e-01 -1.560998e-01
    outer loop
      vertex  -1.398578e+01  1.120690e+01 -6.306982e+01
      vertex  -4.389043e+00  1.037864e+01 -5.413133e+01
      vertex  -1.394569e+01  9.970191e+00 -5.524352e+01
    endloop
  endfacet
  facet normal  9.722446e-01 -2.315880e-01 -3.328093e-02
    outer loop
      vertex  -3.630027e+01  9.702058e+00 -5.254063e+01
      vertex  -3.636087e+01  1.101305e+01 -6.343350e+01
      vertex  -3.556045e+01  1.296942e+01 -5.366408e+01
    endloop
  endfacet
  facet normal -3.110099e-01  9.374893e-01  1.561624e-01
    outer loop
      vertex   1.595809e+01  1.221867e+01 -6.240500e+01
      vertex   1.856548e+01  1.120196e+01 -5.110856e+01
      vertex   2.017559e+01  1.276585e+01 -5.729039e+01
    endloop
  endfacet
  facet normal -4.700057e-01  8.704288e-01  1.464528e-01
    outer loop
      vertex  -1.308582e+01  1.507365e+01 -4.543096e+01
      vertex  -9.498724e+00  1.879021e+01 -5.600806e+01
      vertex  -1.931492e+01  1.498874e+01 -6.491711e+01
    endloop
  endfacet
  facet normal -1.739833e-01 -9.810593e-01 -8.516217e-02
    outer loop
      vertex   1.859311e+01 -1.210408e+01 -5.087839e+01
      vertex   3.288016e+01 -1.373601e+01 -6.126669e+01
      vertex   2.740053e+01 -1.386248e+01 -4.861505e+01
    endloop
  endfacet
  facet normal  6.568787e-01 -2.893486e-01 -6.962670e-01
    outer loop
      vertex   2.192044e+01  1.941063e+00 -5.761969e+01
      vertex   3.173232e+01  8.544576e-01 -4.791132e+01
      vertex   2.246395e+01 -4.866873e+00 -5.427775e+01
    endloop
  endfacet
  facet normal -5.738100e-01  8.045277e-01 -1.532228e-01
    outer loop
      vertex  -1.765867e+00  5.774112e+00 -5.625139e+01
      vertex  -8.397017e+00  7.497562e-01 -5.779955e+01
      vertex  -1.241437e+01 -1.144245e-02 -4.675165e+01
    endloop
  endfacet
  facet normal  3.745559e-01  5.552734e-01 -7.425491e-01
    outer loop
      vertex  -1.765867e+00  5.774112e+00 -5.625139e+01
      vertex  -4.389043e+00  1.037864e+01 -5.413133e+01
      vertex   1.843207e+00  6.624731e+00 -5.379482e+01
    endloop
  endfacet
  facet normal -7.043593e-01 -7.052121e-01 -8.095630e-02
    outer loop
      vertex  -3.636087e+01  1.101305e+01 -6.343350e+01
      vertex  -3.630027e+01  9.702058e+00 -5.254063e+01
      vertex  -3.957574e+01  1.265589e+01 -4.977332e+01
    endloop
  endfacet
  facet normal  5.827882e-01  6.789000e-01 -4.466013e-01
    outer loop
      vertex   2.675339e+01  7.346616e+00 -5.694479e+01
      vertex   2.017559e+01  1.276585e+01 -5.729039e+01
      vertex   2.525052e+01  1.244682e+01 -5.115287e+01
    endloop
  endfacet
  facet normal  7.817281e-01 -9.330142e-02  6.166003e-01
    outer loop
      vertex   3.657402e+01 -1.147513e+01 -6.036239e+01
      vertex   3.425824e+01 -8.472863e+00 -5.697214e+01
      vertex   3.335123e+01 -1.277921e+01 -5.647385e+01
    endloop
  endfacet
  facet normal  8.828594e-01 -4.506456e-01  1.322034e-01
    outer loop
      vertex  -7.176760e-01 -5.409936e+00 -5.686030e+01
      vertex   3.236348e-01 -2.926101e+00 -5.534750e+01
      vertex  -1.882997e+00 -5.191353e+00 -4.833316e+01
    endloop
  endfacet
  facet normal -2.508767e-01 -4.764399e-01 -8.426541e-01
    outer loop
      vertex   1.500402e+01  2.075210e+00 -5.514076e+01
      vertex   1.123071e+01 -3.818983e+00 -5.068476e+01
      vertex   1.843207e+00  6.624731e+00 -5.379482e+01
    endloop
  endfacet
  facet normal  8.992234e-02 -8.907270e-01 -4.455552e-01
    outer loop
      vertex  -1.167350e+01  7.466945e+00 -4.978061e+01
      vertex  -1.394569e+01  9.970191e+00 -5.524352e+01
      vertex  -4.389043e+00  1.037864e+01 -5.413133e+01
    endloop
  endfacet
  facet normal -2.408373e-01  9.552813e-01 -1.715669e-01
    outer loop
      vertex  -3.636087e+01  1.101305e+01 -6.343350e+01
      vertex  -3.957574e+01  1.265589e+01 -4.977332e+01
      vertex  -3.556045e+01  1.296942e+01 -5.366408e+01
    endloop
  endfacet
  facet normal -1.195889e-01 -9.537916e-01 -2.756446e-01
    outer loop
      vertex   1.907318e+01 -1.381715e+01 -4.515907e+01
      vertex   1.859311e+01 -1.210408e+01 -5.087839e+01
      vertex   2.740053e+01 -1.386248e+01 -4.861505e+01
    endloop
  endfacet
  facet normal  9.560056e-01 -1.740302e-01  2.361499e-01
    outer loop
      vertex   3.335123e+01 -1.277921e+01 -5.647385e+01
      vertex   3.425824e+01 -8.472863e+00 -5.697214e+01
      vertex   3.185032e+01 -8.009579e+00 -4.688277e+01
    endloop
  endfacet
  facet normal -1.092533e-01 -9.852935e-01 -1.313786e-01
    outer loop
      vertex  -5.100697e+00 -4.588373e+00 -5.937685e+01
      vertex  -7.176760e-01 -5.409936e+00 -5.686030e+01
      vertex  -8.383306e+00 -5.741102e+00 -4.800201e+01
    endloop
  endfacet
  facet normal  1.432519e-01  6.381853e-01 -7.564379e-01
    outer loop
      vertex   1.500402e+01  2.075210e+00 -5.514076e+01
      vertex   1.843207e+00  6.624731e+00 -5.379482e+01
      vertex   4.289600e-01  1.654312e+01 -4.569478e+01
    endloop
  endfacet
  facet normal  4.054100e-01  6.122072e-01 -6.788558e-01
    outer loop
      vertex  -4.389043e+00  1.037864e+01 -5.413133e+01
      vertex   4.289600e-01  1.654312e+01 -4.569478e+01
      vertex   1.843207e+00  6.624731e+00 -5.379482e+01
    endloop
  endfacet
  facet normal  9.021456e-01 -1.530491e-01 -4.033723e-01
    outer loop
      vertex   4.289600e-01  1.654312e+01 -4.569478e+01
      vertex  -4.389043e+00  1.037864e+01 -5.413133e+01
      vertex  -5.365987e+00  1.436492e+01 -5.782877e+01
    endloop
  endfacet
  facet normal -3.160892e-01 -2.595609e-01 -9.125326e-01
    outer loop
      vertex   1.859311e+01 -1.210408e+01 -5.087839e+01
      vertex   1.123071e+01 -3.818983e+00 -5.068476e+01
      vertex   2.246395e+01 -4.866873e+00 -5.427775e+01
    endloop
  endfacet
  facet normal -9.005859e-03  7.502376e-01 -6.611069e-01
    outer loop
      vertex   3.173232e+01  8.544576e-01 -4.791132e+01
      vertex   2.997349e+01 -5.564123e+00 -5.517130e+01
      vertex   2.246395e+01 -4.866873e+00 -5.427775e+01
    endloop
  endfacet
  facet normal  9.854429e-01 -1.414578e-01 -9.429612e-02
    outer loop
      vertex   3.236348e-01 -2.926101e+00 -5.534750e+01
      vertex   1.843207e+00  6.624731e+00 -5.379482e+01
      vertex   8.746930e-01 -4.784304e+00 -4.680108e+01
    endloop
  endfacet
  facet normal -2.664720e-01 -4.871819e-01 -8.316528e-01
    outer loop
      vertex   1.123071e+01 -3.818983e+00 -5.068476e+01
      vertex   8.746930e-01 -4.784304e+00 -4.680108e+01
      vertex   1.843207e+00  6.624731e+00 -5.379482e+01
    endloop
  endfacet
  facet normal -5.350679e-01  8.229876e-02 -8.407909e-01
    outer loop
      vertex  -1.167350e+01  7.466945e+00 -4.978061e+01
      vertex  -4.389043e+00  1.037864e+01 -5.413133e+01
      vertex  -1.765867e+00  5.774112e+00 -5.625139e+01
    endloop
  endfacet
  facet normal -8.750849e-01 -3.937149e-01  2.814518e-01
    outer loop
      vertex  -1.308582e+01  1.507365e+01 -4.543096e+01
      vertex  -1.931492e+01  1.498874e+01 -6.491711e+01
      vertex  -1.394569e+01  9.970191e+00 -5.524352e+01
    endloop
  endfacet
  facet normal  5.797668e-01  7.076201e-01 -4.039112e-01
    outer loop
      vertex  -5.365987e+00  1.436492e+01 -5.782877e+01
      vertex  -9.498724e+00  1.879021e+01 -5.600806e+01
      vertex   4.289600e-01  1.654312e+01 -4.569478e+01
    endloop
  endfacet
  facet normal  5.880626e-01  8.021644e-01  1.035122e-01
    outer loop
      vertex   3.425824e+01 -8.472863e+00 -5.697214e+01
      vertex   2.997349e+01 -5.564123e+00 -5.517130e+01
      vertex   3.185032e+01 -8.009579e+00 -4.688277e+01
    endloop
  endfacet
  facet normal -8.502435e-01 -4.393719e-01 -2.898934e-01
    outer loop
      vertex  -8.397017e+00  7.497562e-01 -5.779955e+01
      vertex  -5.100697e+00 -4.588373e+00 -5.937685e+01
      vertex  -8.383306e+00 -5.741102e+00 -4.800201e+01
    endloop
  endfacet
  facet normal  2.615346e-01 -9.395198e-01 -2.211382e-01
    outer loop
      vertex   3.236348e-01 -2.926101e+00 -5.534750e+01
      vertex   8.746930e-01 -4.784304e+00 -4.680108e+01
      vertex  -1.882997e+00 -5.191353e+00 -4.833316e+01
    endloop
  endfacet
  facet normal  9.709095e-01 -1.579705e-01  1.799450e-01
    outer loop
      vertex  -3.556045e+01  1.296942e+01 -5.366408e+01
      vertex  -3.690932e+01  1.556904e+01 -4.410397e+01
      vertex  -3.630027e+01  9.702058e+00 -5.254063e+01
    endloop
  endfacet
  facet normal  8.609913e-02 -9.955886e-01  3.728697e-02
    outer loop
      vertex  -8.383306e+00 -5.741102e+00 -4.800201e+01
      vertex  -7.176760e-01 -5.409936e+00 -5.686030e+01
      vertex  -1.882997e+00 -5.191353e+00 -4.833316e+01
    endloop
  endfacet
  facet normal -8.050414e-01 -4.950552e-01 -3.268467e-01
    outer loop
      vertex  -8.397017e+00  7.497562e-01 -5.779955e+01
      vertex  -8.383306e+00 -5.741102e+00 -4.800201e+01
      vertex  -1.241437e+01 -1.144245e-02 -4.675165e+01
    endloop
  endfacet
  facet normal  6.004670e-01 -4.547358e-01 -6.577649e-01
    outer loop
      vertex   2.675339e+01  7.346616e+00 -5.694479e+01
      vertex   3.173232e+01  8.544576e-01 -4.791132e+01
      vertex   2.192044e+01  1.941063e+00 -5.761969e+01
    endloop
  endfacet
  facet normal -5.286666e-01  5.070502e-01 -6.807436e-01
    outer loop
      vertex   1.525297e+01  1.244964e+01 -4.760673e+01
      vertex   1.856548e+01  1.120196e+01 -5.110856e+01
      vertex   1.500402e+01  2.075210e+00 -5.514076e+01
    endloop
  endfacet
  facet normal -7.621369e-01 -5.847025e-01 -2.779755e-01
    outer loop
      vertex  -3.791127e+01  7.735923e+00 -4.398806e+01
      vertex  -3.957574e+01  1.265589e+01 -4.977332e+01
      vertex  -3.630027e+01  9.702058e+00 -5.254063e+01
    endloop
  endfacet
  facet normal -9.200526e-01 -3.087476e-01  2.412014e-01
    outer loop
      vertex  -1.394569e+01  9.970191e+00 -5.524352e+01
      vertex  -1.167350e+01  7.466945e+00 -4.978061e+01
      vertex  -1.308582e+01  1.507365e+01 -4.543096e+01
    endloop
  endfacet
  facet normal -1.782002e-01  9.639792e-01  1.974554e-01
    outer loop
      vertex   1.856548e+01  1.120196e+01 -5.110856e+01
      vertex   2.525052e+01  1.244682e+01 -5.115287e+01
      vertex   2.017559e+01  1.276585e+01 -5.729039e+01
    endloop
  endfacet
  facet normal -3.519346e-01  8.894694e-01 -2.915238e-01
    outer loop
      vertex  -3.957574e+01  1.265589e+01 -4.977332e+01
      vertex  -3.690932e+01  1.556904e+01 -4.410397e+01
      vertex  -3.556045e+01  1.296942e+01 -5.366408e+01
    endloop
  endfacet
  facet normal -5.586594e-01 -2.632180e-01 -7.865214e-01
    outer loop
      vertex  -1.765867e+00  5.774112e+00 -5.625139e+01
      vertex  -1.241437e+01 -1.144245e-02 -4.675165e+01
      vertex  -1.167350e+01  7.466945e+00 -4.978061e+01
    endloop
  endfacet
  facet normal  6.798335e-01  6.288410e-01 -3.773398e-01
    outer loop
      vertex   2.525052e+01  1.244682e+01 -5.115287e+01
      vertex   3.255135e+01  7.862021e+00 -4.563997e+01
      vertex   2.675339e+01  7.346616e+00 -5.694479e+01
    endloop
  endfacet
  facet normal -3.769938e-01  9.063860e-01  1.906313e-01
    outer loop
      vertex  -2.522090e+00  1.916207e+01 -4.397910e+01
      vertex  -9.498724e+00  1.879021e+01 -5.600806e+01
      vertex  -1.308582e+01  1.507365e+01 -4.543096e+01
    endloop
  endfacet
  facet normal  3.629189e-01 -9.199939e-01  1.479895e-01
    outer loop
      vertex   3.288016e+01 -1.373601e+01 -6.126669e+01
      vertex   3.335123e+01 -1.277921e+01 -5.647385e+01
      vertex   2.740053e+01 -1.386248e+01 -4.861505e+01
    endloop
  endfacet
  facet normal  9.683182e-01 -1.272986e-01  2.148371e-01
    outer loop
      vertex   3.185032e+01 -8.009579e+00 -4.688277e+01
      vertex   3.056862e+01 -1.173498e+01 -4.331329e+01
      vertex   3.335123e+01 -1.277921e+01 -5.647385e+01
    endloop
  endfacet
  facet normal -7.422871e-01 -6.564806e-01 -1.343246e-01
    outer loop
      vertex   1.859311e+01 -1.210408e+01 -5.087839e+01
      vertex   1.907318e+01 -1.381715e+01 -4.515907e+01
      vertex   1.123071e+01 -3.818983e+00 -5.068476e+01
    endloop
  endfacet
  facet normal  9.743873e-01 -1.307772e-02 -2.244957e-01
    outer loop
      vertex   3.173232e+01  8.544576e-01 -4.791132e+01
      vertex   3.185032e+01 -8.009579e+00 -4.688277e+01
      vertex   2.997349e+01 -5.564123e+00 -5.517130e+01
    endloop
  endfacet
  facet normal  5.747114e-02  5.857354e-01 -8.084621e-01
    outer loop
      vertex   1.525297e+01  1.244964e+01 -4.760673e+01
      vertex   1.500402e+01  2.075210e+00 -5.514076e+01
      vertex   4.289600e-01  1.654312e+01 -4.569478e+01
    endloop
  endfacet
  facet normal  5.157843e-01  7.932243e-01 -3.236693e-01
    outer loop
      vertex  -9.498724e+00  1.879021e+01 -5.600806e+01
      vertex  -2.522090e+00  1.916207e+01 -4.397910e+01
      vertex   4.289600e-01  1.654312e+01 -4.569478e+01
    endloop
  endfacet
  facet normal -1.649786e-01  8.693690e-01 -4.658106e-01
    outer loop
      vertex   1.856548e+01  1.120196e+01 -5.110856e+01
      vertex   1.525297e+01  1.244964e+01 -4.760673e+01
      vertex   2.525052e+01  1.244682e+01 -5.115287e+01
    endloop
  endfacet
  facet normal  8.880913e-01  4.449266e-02 -4.575086e-01
    outer loop
      vertex   3.255135e+01  7.862021e+00 -4.563997e+01
      vertex   3.173232e+01  8.544576e-01 -4.791132e+01
      vertex   2.675339e+01  7.346616e+00 -5.694479e+01
    endloop
  endfacet
  facet normal  9.800135e-01 -1.230434e-01  1.563134e-01
    outer loop
      vertex  -3.791127e+01  7.735923e+00 -4.398806e+01
      vertex  -3.630027e+01  9.702058e+00 -5.254063e+01
      vertex  -3.690932e+01  1.556904e+01 -4.410397e+01
    endloop
  endfacet
  facet normal  3.655536e-01 -9.185954e-01  1.501773e-01
    outer loop
      vertex   3.335123e+01 -1.277921e+01 -5.647385e+01
      vertex   3.056862e+01 -1.173498e+01 -4.331329e+01
      vertex   2.740053e+01 -1.386248e+01 -4.861505e+01
    endloop
  endfacet
  facet normal -8.930457e-01 -4.354471e-01 -1.133805e-01
    outer loop
      vertex  -3.957574e+01  1.265589e+01 -4.977332e+01
      vertex  -3.791127e+01  7.735923e+00 -4.398806e+01
      vertex  -4.124808e+01  1.276396e+01 -3.701619e+01
    endloop
  endfacet
  facet normal -2.001037e-01 -6.822811e-01 -7.031721e-01
    outer loop
      vertex   1.123071e+01 -3.818983e+00 -5.068476e+01
      vertex   9.401991e+00 -1.221930e+01 -4.201362e+01
      vertex   8.746930e-01 -4.784304e+00 -4.680108e+01
    endloop
  endfacet
  facet normal  9.190205e-01  5.748891e-02  3.899953e-01
    outer loop
      vertex   3.185032e+01 -8.009579e+00 -4.688277e+01
      vertex   3.173232e+01  8.544576e-01 -4.791132e+01
      vertex   3.056862e+01 -1.173498e+01 -4.331329e+01
    endloop
  endfacet
  facet normal -8.631184e-01 -1.137741e-01 -4.920184e-01
    outer loop
      vertex  -1.167350e+01  7.466945e+00 -4.978061e+01
      vertex  -1.241437e+01 -1.144245e-02 -4.675165e+01
      vertex  -1.476554e+01  6.528634e+00 -4.413945e+01
    endloop
  endfacet
  facet normal -8.793774e-01  1.025897e-01 -4.649418e-01
    outer loop
      vertex  -1.167350e+01  7.466945e+00 -4.978061e+01
      vertex  -1.476554e+01  6.528634e+00 -4.413945e+01
      vertex  -1.308582e+01  1.507365e+01 -4.543096e+01
    endloop
  endfacet
  facet normal -7.179159e-02  9.765068e-01 -2.031759e-01
    outer loop
      vertex   1.525297e+01  1.244964e+01 -4.760673e+01
      vertex   2.229696e+01  1.380611e+01 -4.357620e+01
      vertex   2.525052e+01  1.244682e+01 -5.115287e+01
    endloop
  endfacet
  facet normal  2.100659e-01  8.259198e-01 -5.231911e-01
    outer loop
      vertex  -3.910761e+01  1.742928e+01 -4.204999e+01
      vertex  -3.690932e+01  1.556904e+01 -4.410397e+01
      vertex  -3.957574e+01  1.265589e+01 -4.977332e+01
    endloop
  endfacet
  facet normal -3.310087e-01 -6.419016e-01 -6.916614e-01
    outer loop
      vertex   1.123071e+01 -3.818983e+00 -5.068476e+01
      vertex   1.907318e+01 -1.381715e+01 -4.515907e+01
      vertex   9.401991e+00 -1.221930e+01 -4.201362e+01
    endloop
  endfacet
  facet normal  2.516709e-01 -5.977843e-01 -7.611278e-01
    outer loop
      vertex   3.822571e+01 -2.503536e+00 -4.312690e+01
      vertex   3.499139e+01 -5.952481e+00 -4.148757e+01
      vertex   3.173232e+01  8.544576e-01 -4.791132e+01
    endloop
  endfacet
  facet normal  8.744781e-01  5.403693e-02 -4.820457e-01
    outer loop
      vertex   3.580364e+01  1.311162e+00 -4.047434e+01
      vertex   3.173232e+01  8.544576e-01 -4.791132e+01
      vertex   3.255135e+01  7.862021e+00 -4.563997e+01
    endloop
  endfacet
  facet normal  6.772304e-01 -3.068410e-01 -6.687358e-01
    outer loop
      vertex   3.173232e+01  8.544576e-01 -4.791132e+01
      vertex   3.499139e+01 -5.952481e+00 -4.148757e+01
      vertex   3.056862e+01 -1.173498e+01 -4.331329e+01
    endloop
  endfacet
  facet normal  4.065618e-01  9.136072e-01 -5.418211e-03
    outer loop
      vertex   2.525052e+01  1.244682e+01 -5.115287e+01
      vertex   2.229696e+01  1.380611e+01 -4.357620e+01
      vertex   3.080455e+01  1.006081e+01 -3.672454e+01
    endloop
  endfacet
  facet normal -2.672442e-01 -7.193618e-01 -6.411701e-01
    outer loop
      vertex  -1.153471e+00 -9.025927e+00 -4.119683e+01
      vertex   8.746930e-01 -4.784304e+00 -4.680108e+01
      vertex   9.401991e+00 -1.221930e+01 -4.201362e+01
    endloop
  endfacet
  facet normal  4.994055e-02 -8.776494e-01 -4.766942e-01
    outer loop
      vertex  -1.153471e+00 -9.025927e+00 -4.119683e+01
      vertex  -8.383306e+00 -5.741102e+00 -4.800201e+01
      vertex  -1.882997e+00 -5.191353e+00 -4.833316e+01
    endloop
  endfacet
  facet normal  3.778793e-01 -7.989153e-01 -4.679121e-01
    outer loop
      vertex  -1.882997e+00 -5.191353e+00 -4.833316e+01
      vertex   8.746930e-01 -4.784304e+00 -4.680108e+01
      vertex  -1.153471e+00 -9.025927e+00 -4.119683e+01
    endloop
  endfacet
  facet normal  5.763122e-01  8.125344e-01 -8.747615e-02
    outer loop
      vertex   2.525052e+01  1.244682e+01 -5.115287e+01
      vertex   3.080455e+01  1.006081e+01 -3.672454e+01
      vertex   3.255135e+01  7.862021e+00 -4.563997e+01
    endloop
  endfacet
  facet normal  1.437728e-01  7.955599e-01 -5.885693e-01
    outer loop
      vertex   1.525297e+01  1.244964e+01 -4.760673e+01
      vertex   4.289600e-01  1.654312e+01 -4.569478e+01
      vertex   1.481613e+01  1.680781e+01 -4.182257e+01
    endloop
  endfacet
  facet normal  6.389787e-01  7.660118e-01 -7.023013e-02
    outer loop
      vertex   4.289600e-01  1.654312e+01 -4.569478e+01
      vertex  -2.522090e+00  1.916207e+01 -4.397910e+01
      vertex  -5.351976e-01  1.783774e+01 -4.034632e+01
    endloop
  endfacet
  facet normal  6.323572e-01  6.708673e-01 -3.873777e-01
    outer loop
      vertex   3.822571e+01 -2.503536e+00 -4.312690e+01
      vertex   3.173232e+01  8.544576e-01 -4.791132e+01
      vertex   3.580364e+01  1.311162e+00 -4.047434e+01
    endloop
  endfacet
  facet normal -9.813018e-01  1.847261e-01 -5.406484e-02
    outer loop
      vertex  -1.308582e+01  1.507365e+01 -4.543096e+01
      vertex  -1.476554e+01  6.528634e+00 -4.413945e+01
      vertex  -1.304236e+01  1.737564e+01 -3.835458e+01
    endloop
  endfacet
  facet normal  1.811082e-01  7.919871e-01 -5.830576e-01
    outer loop
      vertex   1.525297e+01  1.244964e+01 -4.760673e+01
      vertex   1.481613e+01  1.680781e+01 -4.182257e+01
      vertex   2.229696e+01  1.380611e+01 -4.357620e+01
    endloop
  endfacet
  facet normal -3.099461e-01  9.046765e-01 -2.923933e-01
    outer loop
      vertex  -2.522090e+00  1.916207e+01 -4.397910e+01
      vertex  -1.308582e+01  1.507365e+01 -4.543096e+01
      vertex  -1.304236e+01  1.737564e+01 -3.835458e+01
    endloop
  endfacet
  facet normal -9.481446e-01 -3.045928e-01 -9.080286e-02
    outer loop
      vertex  -1.476554e+01  6.528634e+00 -4.413945e+01
      vertex  -1.241437e+01 -1.144245e-02 -4.675165e+01
      vertex  -1.206532e+01 -4.550643e+00 -3.516991e+01
    endloop
  endfacet
  facet normal  6.064263e-01 -8.926135e-02 -7.901136e-01
    outer loop
      vertex  -3.140491e+01  1.178870e+01 -3.945216e+01
      vertex  -3.791127e+01  7.735923e+00 -4.398806e+01
      vertex  -3.690932e+01  1.556904e+01 -4.410397e+01
    endloop
  endfacet
  facet normal -9.462679e-01  2.975868e-01 -1.265672e-01
    outer loop
      vertex  -3.910761e+01  1.742928e+01 -4.204999e+01
      vertex  -3.957574e+01  1.265589e+01 -4.977332e+01
      vertex  -4.124808e+01  1.276396e+01 -3.701619e+01
    endloop
  endfacet
  facet normal  7.687311e-02  9.337948e-01 -3.494534e-01
    outer loop
      vertex   1.481613e+01  1.680781e+01 -4.182257e+01
      vertex   4.289600e-01  1.654312e+01 -4.569478e+01
      vertex   6.976828e+00  1.884587e+01 -3.810107e+01
    endloop
  endfacet
  facet normal -3.921484e-01 -9.194992e-01 -2.721834e-02
    outer loop
      vertex  -8.383306e+00 -5.741102e+00 -4.800201e+01
      vertex  -1.153471e+00 -9.025927e+00 -4.119683e+01
      vertex  -1.206532e+01 -4.550643e+00 -3.516991e+01
    endloop
  endfacet
  facet normal  6.804827e-01 -5.479690e-01 -4.864907e-01
    outer loop
      vertex  -3.791127e+01  7.735923e+00 -4.398806e+01
      vertex  -3.140491e+01  1.178870e+01 -3.945216e+01
      vertex  -3.364668e+01  5.025632e+00 -3.497013e+01
    endloop
  endfacet
  facet normal  2.713210e-03 -9.998032e-01  1.965142e-02
    outer loop
      vertex   1.907318e+01 -1.381715e+01 -4.515907e+01
      vertex   2.740053e+01 -1.386248e+01 -4.861505e+01
      vertex   2.214571e+01 -1.359766e+01 -3.441611e+01
    endloop
  endfacet
  facet normal  3.634683e-01 -9.191794e-01  1.516578e-01
    outer loop
      vertex   2.214571e+01 -1.359766e+01 -3.441611e+01
      vertex   2.740053e+01 -1.386248e+01 -4.861505e+01
      vertex   3.056862e+01 -1.173498e+01 -4.331329e+01
    endloop
  endfacet
  facet normal -8.222376e-01 -5.378831e-01 -1.860303e-01
    outer loop
      vertex  -8.383306e+00 -5.741102e+00 -4.800201e+01
      vertex  -1.206532e+01 -4.550643e+00 -3.516991e+01
      vertex  -1.241437e+01 -1.144245e-02 -4.675165e+01
    endloop
  endfacet
  facet normal  7.746227e-01  6.094025e-01 -1.690805e-01
    outer loop
      vertex   3.580364e+01  1.311162e+00 -4.047434e+01
      vertex   3.944222e+01 -2.289446e+00 -3.678197e+01
      vertex   3.822571e+01 -2.503536e+00 -4.312690e+01
    endloop
  endfacet
  facet normal  3.202751e-01 -8.547895e-01 -4.083611e-01
    outer loop
      vertex  -3.791127e+01  7.735923e+00 -4.398806e+01
      vertex  -3.364668e+01  5.025632e+00 -3.497013e+01
      vertex  -4.090253e+01  4.720257e+00 -4.002163e+01
    endloop
  endfacet
  facet normal  6.983775e-01 -7.072204e-01 -1.100366e-01
    outer loop
      vertex   3.499139e+01 -5.952481e+00 -4.148757e+01
      vertex   3.822571e+01 -2.503536e+00 -4.312690e+01
      vertex   3.944222e+01 -2.289446e+00 -3.678197e+01
    endloop
  endfacet
  facet normal -8.028581e-01 -1.731475e-01 -5.704725e-01
    outer loop
      vertex  -1.476554e+01  6.528634e+00 -4.413945e+01
      vertex  -1.975109e+01  1.731734e+00 -3.566708e+01
      vertex  -1.846156e+01  9.911834e+00 -3.996469e+01
    endloop
  endfacet
  facet normal  3.791568e-01  9.246830e-01  3.466446e-02
    outer loop
      vertex   3.080455e+01  1.006081e+01 -3.672454e+01
      vertex   2.229696e+01  1.380611e+01 -4.357620e+01
      vertex   1.481613e+01  1.680781e+01 -4.182257e+01
    endloop
  endfacet
  facet normal  7.365268e-01  4.336944e-01 -5.190737e-01
    outer loop
      vertex  -3.171648e+01  1.636782e+01 -3.606833e+01
      vertex  -3.140491e+01  1.178870e+01 -3.945216e+01
      vertex  -3.690932e+01  1.556904e+01 -4.410397e+01
    endloop
  endfacet
  facet normal -5.681136e-02  9.679723e-01 -2.445448e-01
    outer loop
      vertex   4.289600e-01  1.654312e+01 -4.569478e+01
      vertex  -5.351976e-01  1.783774e+01 -4.034632e+01
      vertex   6.976828e+00  1.884587e+01 -3.810107e+01
    endloop
  endfacet
  facet normal -4.293527e-01  4.771536e-01 -7.667991e-01
    outer loop
      vertex  -1.476554e+01  6.528634e+00 -4.413945e+01
      vertex  -1.846156e+01  9.911834e+00 -3.996469e+01
      vertex  -1.304236e+01  1.737564e+01 -3.835458e+01
    endloop
  endfacet
  facet normal  2.895395e-01  9.531174e-01  8.794378e-02
    outer loop
      vertex   6.976828e+00  1.884587e+01 -3.810107e+01
      vertex   2.255496e+01  1.378562e+01 -3.454747e+01
      vertex   1.481613e+01  1.680781e+01 -4.182257e+01
    endloop
  endfacet
  facet normal -4.679620e-01 -6.221669e-01 -6.276304e-01
    outer loop
      vertex  -1.476554e+01  6.528634e+00 -4.413945e+01
      vertex  -1.206532e+01 -4.550643e+00 -3.516991e+01
      vertex  -1.975109e+01  1.731734e+00 -3.566708e+01
    endloop
  endfacet
  facet normal -8.421403e-01  1.566248e-01 -5.160121e-01
    outer loop
      vertex  -4.090253e+01  4.720257e+00 -4.002163e+01
      vertex  -4.124808e+01  1.276396e+01 -3.701619e+01
      vertex  -3.791127e+01  7.735923e+00 -4.398806e+01
    endloop
  endfacet
  facet normal  3.994188e-01  8.503301e-01 -3.426417e-01
    outer loop
      vertex  -3.910761e+01  1.742928e+01 -4.204999e+01
      vertex  -3.171648e+01  1.636782e+01 -3.606833e+01
      vertex  -3.690932e+01  1.556904e+01 -4.410397e+01
    endloop
  endfacet
  facet normal  1.830025e-02  9.425392e-01  3.335940e-01
    outer loop
      vertex  -1.304236e+01  1.737564e+01 -3.835458e+01
      vertex  -5.351976e-01  1.783774e+01 -4.034632e+01
      vertex  -2.522090e+00  1.916207e+01 -4.397910e+01
    endloop
  endfacet
  facet normal -1.093887e-01 -5.236591e-01 -8.448759e-01
    outer loop
      vertex  -3.140491e+01  1.178870e+01 -3.945216e+01
      vertex  -1.846156e+01  9.911834e+00 -3.996469e+01
      vertex  -3.364668e+01  5.025632e+00 -3.497013e+01
    endloop
  endfacet
  facet normal  4.008844e-01  9.149553e-01 -4.635157e-02
    outer loop
      vertex   3.080455e+01  1.006081e+01 -3.672454e+01
      vertex   1.481613e+01  1.680781e+01 -4.182257e+01
      vertex   2.255496e+01  1.378562e+01 -3.454747e+01
    endloop
  endfacet
  facet normal -1.433056e-01 -9.877864e-01  6.116794e-02
    outer loop
      vertex   9.401991e+00 -1.221930e+01 -4.201362e+01
      vertex   1.907318e+01 -1.381715e+01 -4.515907e+01
      vertex   2.214571e+01 -1.359766e+01 -3.441611e+01
    endloop
  endfacet
  facet normal  5.467021e-02  5.958219e-01 -8.012536e-01
    outer loop
      vertex  -3.140491e+01  1.178870e+01 -3.945216e+01
      vertex  -3.171648e+01  1.636782e+01 -3.606833e+01
      vertex  -1.846156e+01  9.911834e+00 -3.996469e+01
    endloop
  endfacet
  facet normal  3.022262e-02  9.150993e-01  4.020942e-01
    outer loop
      vertex  -1.304236e+01  1.737564e+01 -3.835458e+01
      vertex  -1.220220e+01  1.575035e+01 -3.471883e+01
      vertex  -5.351976e-01  1.783774e+01 -4.034632e+01
    endloop
  endfacet
  facet normal  9.348363e-02  9.937606e-01  6.083329e-02
    outer loop
      vertex  -3.910761e+01  1.742928e+01 -4.204999e+01
      vertex  -3.521714e+01  1.623299e+01 -2.848618e+01
      vertex  -3.171648e+01  1.636782e+01 -3.606833e+01
    endloop
  endfacet
  facet normal -5.070293e-02  9.634730e-01 -2.629618e-01
    outer loop
      vertex  -5.351976e-01  1.783774e+01 -4.034632e+01
      vertex  -6.158662e+00  1.906219e+01 -3.477577e+01
      vertex   6.976828e+00  1.884587e+01 -3.810107e+01
    endloop
  endfacet
  facet normal -2.784252e-01 -9.522882e-01  1.250063e-01
    outer loop
      vertex   9.401991e+00 -1.221930e+01 -4.201362e+01
      vertex  -7.672386e-01 -7.783838e+00 -3.087445e+01
      vertex  -1.153471e+00 -9.025927e+00 -4.119683e+01
    endloop
  endfacet
  facet normal -1.536727e-04  5.164825e-01 -8.562977e-01
    outer loop
      vertex  -1.725696e+01  2.016663e+01 -3.377965e+01
      vertex  -1.846156e+01  9.911834e+00 -3.996469e+01
      vertex  -3.171648e+01  1.636782e+01 -3.606833e+01
    endloop
  endfacet
  facet normal -7.348599e-01  6.239601e-01  2.658095e-01
    outer loop
      vertex  -3.910761e+01  1.742928e+01 -4.204999e+01
      vertex  -4.124808e+01  1.276396e+01 -3.701619e+01
      vertex  -3.521714e+01  1.623299e+01 -2.848618e+01
    endloop
  endfacet
  facet normal  9.152401e-01  3.960612e-01 -7.396728e-02
    outer loop
      vertex   3.579145e+01  2.564605e+00 -3.391358e+01
      vertex   3.580364e+01  1.311162e+00 -4.047434e+01
      vertex   3.255135e+01  7.862021e+00 -4.563997e+01
    endloop
  endfacet
  facet normal  8.281487e-01  5.599879e-01  2.415095e-02
    outer loop
      vertex   3.579145e+01  2.564605e+00 -3.391358e+01
      vertex   3.255135e+01  7.862021e+00 -4.563997e+01
      vertex   3.080455e+01  1.006081e+01 -3.672454e+01
    endloop
  endfacet
  facet normal -8.939678e-01 -1.900418e-01  4.058396e-01
    outer loop
      vertex  -4.090253e+01  4.720257e+00 -4.002163e+01
      vertex  -3.709103e+01  6.788987e+00 -3.065708e+01
      vertex  -4.124808e+01  1.276396e+01 -3.701619e+01
    endloop
  endfacet
  facet normal  6.660845e-01  7.260889e-01  1.706645e-01
    outer loop
      vertex  -1.304236e+01  1.737564e+01 -3.835458e+01
      vertex  -1.725696e+01  2.016663e+01 -3.377965e+01
      vertex  -1.220220e+01  1.575035e+01 -3.471883e+01
    endloop
  endfacet
  facet normal  7.670578e-01 -6.280563e-01  1.310253e-01
    outer loop
      vertex   3.056862e+01 -1.173498e+01 -4.331329e+01
      vertex   3.499139e+01 -5.952481e+00 -4.148757e+01
      vertex   2.971647e+01 -1.014336e+01 -3.069530e+01
    endloop
  endfacet
  facet normal -5.814637e-01 -3.046652e-01 -7.543733e-01
    outer loop
      vertex  -1.846156e+01  9.911834e+00 -3.996469e+01
      vertex  -1.975109e+01  1.731734e+00 -3.566708e+01
      vertex  -2.400802e+01 -1.462350e+00 -3.109589e+01
    endloop
  endfacet
  facet normal -4.661556e-01  4.964314e-01 -7.322942e-01
    outer loop
      vertex  -1.846156e+01  9.911834e+00 -3.996469e+01
      vertex  -1.725696e+01  2.016663e+01 -3.377965e+01
      vertex  -1.304236e+01  1.737564e+01 -3.835458e+01
    endloop
  endfacet
  facet normal -3.356449e-01 -9.395528e-01  6.769793e-02
    outer loop
      vertex  -7.672386e-01 -7.783838e+00 -3.087445e+01
      vertex   9.401991e+00 -1.221930e+01 -4.201362e+01
      vertex   5.645586e+00 -9.998339e+00 -2.981399e+01
    endloop
  endfacet
  facet normal  7.576032e-01  6.413777e-01 -1.211283e-01
    outer loop
      vertex   3.944222e+01 -2.289446e+00 -3.678197e+01
      vertex   3.580364e+01  1.311162e+00 -4.047434e+01
      vertex   3.579145e+01  2.564605e+00 -3.391358e+01
    endloop
  endfacet
  facet normal -7.436684e-02 -5.903922e-01 -8.036832e-01
    outer loop
      vertex  -3.364668e+01  5.025632e+00 -3.497013e+01
      vertex  -1.846156e+01  9.911834e+00 -3.996469e+01
      vertex  -2.400802e+01 -1.462350e+00 -3.109589e+01
    endloop
  endfacet
  facet normal -1.787315e-01 -9.762186e-01  1.226884e-01
    outer loop
      vertex   9.401991e+00 -1.221930e+01 -4.201362e+01
      vertex   2.214571e+01 -1.359766e+01 -3.441611e+01
      vertex   5.645586e+00 -9.998339e+00 -2.981399e+01
    endloop
  endfacet
  facet normal  6.309446e-01 -7.757952e-01  7.126987e-03
    outer loop
      vertex   3.944222e+01 -2.289446e+00 -3.678197e+01
      vertex   2.971647e+01 -1.014336e+01 -3.069530e+01
      vertex   3.499139e+01 -5.952481e+00 -4.148757e+01
    endloop
  endfacet
  facet normal -3.166045e-01 -9.402866e-01  1.249908e-01
    outer loop
      vertex  -1.206532e+01 -4.550643e+00 -3.516991e+01
      vertex  -1.153471e+00 -9.025927e+00 -4.119683e+01
      vertex  -7.672386e-01 -7.783838e+00 -3.087445e+01
    endloop
  endfacet
  facet normal -6.263659e-01 -7.492649e-01  2.150995e-01
    outer loop
      vertex  -1.206532e+01 -4.550643e+00 -3.516991e+01
      vertex  -1.496384e+01 -2.051328e-01 -2.847347e+01
      vertex  -1.975109e+01  1.731734e+00 -3.566708e+01
    endloop
  endfacet
  facet normal -3.389185e-01  7.872285e-01 -5.151753e-01
    outer loop
      vertex  -1.255891e+01  1.823933e+01 -3.182263e+01
      vertex  -6.158662e+00  1.906219e+01 -3.477577e+01
      vertex  -5.351976e-01  1.783774e+01 -4.034632e+01
    endloop
  endfacet
  facet normal -1.740836e-01  9.014305e-01 -3.963810e-01
    outer loop
      vertex  -3.171648e+01  1.636782e+01 -3.606833e+01
      vertex  -2.842537e+01  2.024794e+01 -2.868976e+01
      vertex  -1.725696e+01  2.016663e+01 -3.377965e+01
    endloop
  endfacet
  facet normal  3.529927e-01 -9.250138e-01  1.405191e-01
    outer loop
      vertex   2.971647e+01 -1.014336e+01 -3.069530e+01
      vertex   2.214571e+01 -1.359766e+01 -3.441611e+01
      vertex   3.056862e+01 -1.173498e+01 -4.331329e+01
    endloop
  endfacet
  facet normal -5.899068e-01 -2.914837e-01 -7.530255e-01
    outer loop
      vertex  -1.870120e+01 -7.171389e+00 -3.304329e+01
      vertex  -2.400802e+01 -1.462350e+00 -3.109589e+01
      vertex  -1.975109e+01  1.731734e+00 -3.566708e+01
    endloop
  endfacet
  facet normal -1.482801e-01 -9.512351e-01  2.704901e-01
    outer loop
      vertex  -4.090253e+01  4.720257e+00 -4.002163e+01
      vertex  -3.364668e+01  5.025632e+00 -3.497013e+01
      vertex  -3.709103e+01  6.788987e+00 -3.065708e+01
    endloop
  endfacet
  facet normal  7.914655e-01  5.884696e-01  1.651850e-01
    outer loop
      vertex   3.080455e+01  1.006081e+01 -3.672454e+01
      vertex   2.864796e+01  1.053535e+01 -2.808203e+01
      vertex   3.579145e+01  2.564605e+00 -3.391358e+01
    endloop
  endfacet
  facet normal  4.230897e-01  9.043607e-01  5.591851e-02
    outer loop
      vertex   2.864796e+01  1.053535e+01 -2.808203e+01
      vertex   3.080455e+01  1.006081e+01 -3.672454e+01
      vertex   2.255496e+01  1.378562e+01 -3.454747e+01
    endloop
  endfacet
  facet normal -4.181822e-01  6.628177e-01 -6.211251e-01
    outer loop
      vertex  -1.220220e+01  1.575035e+01 -3.471883e+01
      vertex  -1.255891e+01  1.823933e+01 -3.182263e+01
      vertex  -5.351976e-01  1.783774e+01 -4.034632e+01
    endloop
  endfacet
  facet normal  3.231003e-01 -9.247517e-01  2.010980e-01
    outer loop
      vertex   2.214571e+01 -1.359766e+01 -3.441611e+01
      vertex   2.971647e+01 -1.014336e+01 -3.069530e+01
      vertex   2.484141e+01 -1.079101e+01 -2.584086e+01
    endloop
  endfacet
  facet normal  9.775227e-01  5.531694e-02 -2.034434e-01
    outer loop
      vertex  -1.975109e+01  1.731734e+00 -3.566708e+01
      vertex  -1.793917e+01 -3.273676e+00 -2.832198e+01
      vertex  -1.870120e+01 -7.171389e+00 -3.304329e+01
    endloop
  endfacet
  facet normal -8.946983e-01 -1.945610e-01  4.020708e-01
    outer loop
      vertex  -4.124808e+01  1.276396e+01 -3.701619e+01
      vertex  -3.709103e+01  6.788987e+00 -3.065708e+01
      vertex  -3.653622e+01  9.041140e+00 -2.833270e+01
    endloop
  endfacet
  facet normal -7.912397e-02  9.913466e-01  1.047446e-01
    outer loop
      vertex  -5.238400e+00  1.855388e+01 -2.926976e+01
      vertex  -6.158662e+00  1.906219e+01 -3.477577e+01
      vertex  -1.255891e+01  1.823933e+01 -3.182263e+01
    endloop
  endfacet
  facet normal -5.789770e-01 -8.043374e-01 -1.335178e-01
    outer loop
      vertex  -3.364668e+01  5.025632e+00 -3.497013e+01
      vertex  -3.398883e+01  3.771034e+00 -2.592850e+01
      vertex  -3.709103e+01  6.788987e+00 -3.065708e+01
    endloop
  endfacet
  facet normal  3.697144e-01  2.318180e-01  8.997620e-01
    outer loop
      vertex  -1.725696e+01  2.016663e+01 -3.377965e+01
      vertex  -2.294166e+01  1.472326e+01 -3.004134e+01
      vertex  -1.220220e+01  1.575035e+01 -3.471883e+01
    endloop
  endfacet
  facet normal  2.449621e-01  9.347811e-01  2.572505e-01
    outer loop
      vertex   2.255496e+01  1.378562e+01 -3.454747e+01
      vertex   6.976828e+00  1.884587e+01 -3.810107e+01
      vertex   2.223606e+01  1.154037e+01 -2.608514e+01
    endloop
  endfacet
  facet normal  2.274575e-01  9.390633e-01  2.577270e-01
    outer loop
      vertex   2.864796e+01  1.053535e+01 -2.808203e+01
      vertex   2.255496e+01  1.378562e+01 -3.454747e+01
      vertex   2.223606e+01  1.154037e+01 -2.608514e+01
    endloop
  endfacet
  facet normal -5.275019e-01  3.966550e-01 -7.512699e-01
    outer loop
      vertex  -2.606898e+01  1.994660e+01 -2.639931e+01
      vertex  -1.368645e+01  2.582346e+01 -3.199081e+01
      vertex  -1.348677e+01  2.269936e+01 -3.378047e+01
    endloop
  endfacet
  facet normal -8.133957e-02 -9.054718e-01  4.165391e-01
    outer loop
      vertex   5.645586e+00 -9.998339e+00 -2.981399e+01
      vertex   2.214571e+01 -1.359766e+01 -3.441611e+01
      vertex   1.437047e+01 -8.515039e+00 -2.488584e+01
    endloop
  endfacet
  facet normal  8.232110e-01  3.594664e-01  4.394402e-01
    outer loop
      vertex   3.944222e+01 -2.289446e+00 -3.678197e+01
      vertex   3.579145e+01  2.564605e+00 -3.391358e+01
      vertex   3.198798e+01 -1.010801e+00 -2.386375e+01
    endloop
  endfacet
  facet normal -8.357022e-01  1.644608e-01  5.239795e-01
    outer loop
      vertex  -4.124808e+01  1.276396e+01 -3.701619e+01
      vertex  -3.653622e+01  9.041140e+00 -2.833270e+01
      vertex  -3.521714e+01  1.623299e+01 -2.848618e+01
    endloop
  endfacet
  facet normal  2.104065e-01  9.308500e-01  2.987431e-01
    outer loop
      vertex   6.976828e+00  1.884587e+01 -3.810107e+01
      vertex   1.067900e+01  1.432286e+01 -2.661536e+01
      vertex   2.223606e+01  1.154037e+01 -2.608514e+01
    endloop
  endfacet
  facet normal -1.137731e-01  7.390520e-01  6.639712e-01
    outer loop
      vertex   1.067900e+01  1.432286e+01 -2.661536e+01
      vertex  -6.158662e+00  1.906219e+01 -3.477577e+01
      vertex   6.410748e+00  1.268806e+01 -2.552707e+01
    endloop
  endfacet
  facet normal  1.005612e-01  9.363632e-01  3.363205e-01
    outer loop
      vertex  -6.158662e+00  1.906219e+01 -3.477577e+01
      vertex   1.067900e+01  1.432286e+01 -2.661536e+01
      vertex   6.976828e+00  1.884587e+01 -3.810107e+01
    endloop
  endfacet
  facet normal  9.980682e-01  3.400721e-02  5.199358e-02
    outer loop
      vertex  -1.348677e+01  2.269936e+01 -3.378047e+01
      vertex  -1.368645e+01  2.582346e+01 -3.199081e+01
      vertex  -1.378939e+01  2.456631e+01 -2.919247e+01
    endloop
  endfacet
  facet normal  1.059605e-01  8.921292e-01  4.391787e-01
    outer loop
      vertex  -2.294166e+01  1.472326e+01 -3.004134e+01
      vertex  -2.519263e+01  1.349109e+01 -2.699527e+01
      vertex  -1.220220e+01  1.575035e+01 -3.471883e+01
    endloop
  endfacet
  facet normal -1.897150e-02  9.974707e-01 -6.850085e-02
    outer loop
      vertex  -1.255891e+01  1.823933e+01 -3.182263e+01
      vertex  -1.212014e+01  1.839437e+01 -2.968645e+01
      vertex  -5.238400e+00  1.855388e+01 -2.926976e+01
    endloop
  endfacet
  facet normal -5.015964e-01  8.375236e-01 -2.166918e-01
    outer loop
      vertex  -2.842537e+01  2.024794e+01 -2.868976e+01
      vertex  -3.171648e+01  1.636782e+01 -3.606833e+01
      vertex  -3.521714e+01  1.623299e+01 -2.848618e+01
    endloop
  endfacet
  facet normal  9.718762e-01  1.110215e-01 -2.076800e-01
    outer loop
      vertex  -1.212014e+01  1.839437e+01 -2.968645e+01
      vertex  -1.255891e+01  1.823933e+01 -3.182263e+01
      vertex  -1.348677e+01  2.269936e+01 -3.378047e+01
    endloop
  endfacet
  facet normal -2.883649e-01 -6.256174e-01 -7.248783e-01
    outer loop
      vertex  -2.606898e+01  1.994660e+01 -2.639931e+01
      vertex  -1.348677e+01  2.269936e+01 -3.378047e+01
      vertex  -2.176942e+01  1.805804e+01 -2.647978e+01
    endloop
  endfacet
  facet normal -3.849947e-01 -8.413574e-01  3.793374e-01
    outer loop
      vertex  -7.672386e-01 -7.783838e+00 -3.087445e+01
      vertex  -1.496384e+01 -2.051328e-01 -2.847347e+01
      vertex  -1.206532e+01 -4.550643e+00 -3.516991e+01
    endloop
  endfacet
  facet normal  7.139060e-01 -5.245610e-01  4.638686e-01
    outer loop
      vertex   3.198798e+01 -1.010801e+00 -2.386375e+01
      vertex   2.971647e+01 -1.014336e+01 -3.069530e+01
      vertex   3.944222e+01 -2.289446e+00 -3.678197e+01
    endloop
  endfacet
  facet normal -5.146814e-01 -8.463785e-01 -1.369182e-01
    outer loop
      vertex  -3.364668e+01  5.025632e+00 -3.497013e+01
      vertex  -2.400802e+01 -1.462350e+00 -3.109589e+01
      vertex  -3.398883e+01  3.771034e+00 -2.592850e+01
    endloop
  endfacet
  facet normal  9.634951e-01  2.640994e-01 -4.391621e-02
    outer loop
      vertex  -1.348677e+01  2.269936e+01 -3.378047e+01
      vertex  -1.378939e+01  2.456631e+01 -2.919247e+01
      vertex  -1.212014e+01  1.839437e+01 -2.968645e+01
    endloop
  endfacet
  facet normal  4.477514e-01  8.941249e-01  7.708399e-03
    outer loop
      vertex  -6.158662e+00  1.906219e+01 -3.477577e+01
      vertex  -5.238400e+00  1.855388e+01 -2.926976e+01
      vertex   6.410748e+00  1.268806e+01 -2.552707e+01
    endloop
  endfacet
  facet normal -4.451418e-01 -4.359590e-01 -7.821691e-01
    outer loop
      vertex  -1.348677e+01  2.269936e+01 -3.378047e+01
      vertex  -1.255891e+01  1.823933e+01 -3.182263e+01
      vertex  -2.176942e+01  1.805804e+01 -2.647978e+01
    endloop
  endfacet
  facet normal -1.677244e-01 -9.201294e-01  3.538794e-01
    outer loop
      vertex   1.437047e+01 -8.515039e+00 -2.488584e+01
      vertex   2.214571e+01 -1.359766e+01 -3.441611e+01
      vertex   2.484141e+01 -1.079101e+01 -2.584086e+01
    endloop
  endfacet
  facet normal -3.357699e-01 -6.424692e-01  6.888337e-01
    outer loop
      vertex   1.051619e+00  2.098067e+00 -2.077109e+01
      vertex  -7.672386e-01 -7.783838e+00 -3.087445e+01
      vertex   5.645586e+00 -9.998339e+00 -2.981399e+01
    endloop
  endfacet
  facet normal  4.085207e-01  1.869245e-01  8.934036e-01
    outer loop
      vertex  -2.294166e+01  1.472326e+01 -3.004134e+01
      vertex  -1.725696e+01  2.016663e+01 -3.377965e+01
      vertex  -2.842537e+01  2.024794e+01 -2.868976e+01
    endloop
  endfacet
  facet normal -6.768849e-01 -5.478270e-01 -4.916426e-01
    outer loop
      vertex  -1.867000e+01 -1.573170e+01 -2.354767e+01
      vertex  -2.128276e+01 -9.343629e+00 -2.706857e+01
      vertex  -1.870120e+01 -7.171389e+00 -3.304329e+01
    endloop
  endfacet
  facet normal  9.922182e-01 -9.084094e-02 -8.515342e-02
    outer loop
      vertex  -1.870120e+01 -7.171389e+00 -3.304329e+01
      vertex  -1.793917e+01 -3.273676e+00 -2.832198e+01
      vertex  -1.867000e+01 -1.573170e+01 -2.354767e+01
    endloop
  endfacet
  facet normal  6.194293e-01 -5.631900e-01  5.469225e-01
    outer loop
      vertex   2.484141e+01 -1.079101e+01 -2.584086e+01
      vertex   2.971647e+01 -1.014336e+01 -3.069530e+01
      vertex   3.198798e+01 -1.010801e+00 -2.386375e+01
    endloop
  endfacet
  facet normal  8.038366e-01  3.950176e-01  4.447559e-01
    outer loop
      vertex   3.579145e+01  2.564605e+00 -3.391358e+01
      vertex   2.864796e+01  1.053535e+01 -2.808203e+01
      vertex   3.198798e+01 -1.010801e+00 -2.386375e+01
    endloop
  endfacet
  facet normal -8.744245e-01 -2.270787e-01  4.287389e-01
    outer loop
      vertex  -3.653622e+01  9.041140e+00 -2.833270e+01
      vertex  -3.709103e+01  6.788987e+00 -3.065708e+01
      vertex  -3.398883e+01  3.771034e+00 -2.592850e+01
    endloop
  endfacet
  facet normal -5.108576e-01  4.645632e-01 -7.233295e-01
    outer loop
      vertex  -2.176942e+01  1.805804e+01 -2.647978e+01
      vertex  -1.220220e+01  1.575035e+01 -3.471883e+01
      vertex  -2.519263e+01  1.349109e+01 -2.699527e+01
    endloop
  endfacet
  facet normal -3.785943e-01  6.783969e-01 -6.296381e-01
    outer loop
      vertex  -1.220220e+01  1.575035e+01 -3.471883e+01
      vertex  -2.176942e+01  1.805804e+01 -2.647978e+01
      vertex  -1.255891e+01  1.823933e+01 -3.182263e+01
    endloop
  endfacet
  facet normal -5.280881e-01  7.680751e-01 -3.621928e-01
    outer loop
      vertex  -2.606898e+01  1.994660e+01 -2.639931e+01
      vertex  -2.014460e+01  2.421871e+01 -2.597770e+01
      vertex  -1.368645e+01  2.582346e+01 -3.199081e+01
    endloop
  endfacet
  facet normal -7.154632e-01 -4.978642e-01 -4.901465e-01
    outer loop
      vertex  -1.870120e+01 -7.171389e+00 -3.304329e+01
      vertex  -2.128276e+01 -9.343629e+00 -2.706857e+01
      vertex  -2.400802e+01 -1.462350e+00 -3.109589e+01
    endloop
  endfacet
  facet normal  5.858075e-01 -5.951683e-01 -5.500948e-01
    outer loop
      vertex  -1.975109e+01  1.731734e+00 -3.566708e+01
      vertex  -1.496384e+01 -2.051328e-01 -2.847347e+01
      vertex  -1.793917e+01 -3.273676e+00 -2.832198e+01
    endloop
  endfacet
  facet normal  2.761371e-01  8.429689e-01  4.616835e-01
    outer loop
      vertex   6.410748e+00  1.268806e+01 -2.552707e+01
      vertex  -5.238400e+00  1.855388e+01 -2.926976e+01
      vertex  -2.749540e+00  1.560263e+01 -2.536982e+01
    endloop
  endfacet
  facet normal -5.466461e-02  8.009742e-01  5.961980e-01
    outer loop
      vertex  -5.238400e+00  1.855388e+01 -2.926976e+01
      vertex  -1.212014e+01  1.839437e+01 -2.968645e+01
      vertex  -1.486660e+01  1.088394e+01 -1.984822e+01
    endloop
  endfacet
  facet normal  7.168548e-01  1.391997e-01  6.831858e-01
    outer loop
      vertex  -1.378939e+01  2.456631e+01 -2.919247e+01
      vertex  -1.727988e+01  1.875363e+01 -2.434562e+01
      vertex  -1.212014e+01  1.839437e+01 -2.968645e+01
    endloop
  endfacet
  facet normal  3.305023e-01  6.109073e-01  7.194168e-01
    outer loop
      vertex  -1.378939e+01  2.456631e+01 -2.919247e+01
      vertex  -2.014460e+01  2.421871e+01 -2.597770e+01
      vertex  -1.767423e+01  2.121528e+01 -2.456217e+01
    endloop
  endfacet
  facet normal -5.777182e-01  6.897870e-01 -4.363893e-01
    outer loop
      vertex  -2.014460e+01  2.421871e+01 -2.597770e+01
      vertex  -1.271170e+01  3.301709e+01 -2.191049e+01
      vertex  -1.368645e+01  2.582346e+01 -3.199081e+01
    endloop
  endfacet
  facet normal  9.332992e-01 -3.391488e-01 -1.180282e-01
    outer loop
      vertex  -1.368645e+01  2.582346e+01 -3.199081e+01
      vertex  -1.111185e+01  3.003939e+01 -2.374671e+01
      vertex  -1.378939e+01  2.456631e+01 -2.919247e+01
    endloop
  endfacet
  facet normal -2.724336e-02  7.886742e-01  6.142074e-01
    outer loop
      vertex  -1.486660e+01  1.088394e+01 -1.984822e+01
      vertex  -2.749540e+00  1.560263e+01 -2.536982e+01
      vertex  -5.238400e+00  1.855388e+01 -2.926976e+01
    endloop
  endfacet
  facet normal  6.896405e-01  1.723497e-01  7.033431e-01
    outer loop
      vertex  -1.727988e+01  1.875363e+01 -2.434562e+01
      vertex  -1.378939e+01  2.456631e+01 -2.919247e+01
      vertex  -1.767423e+01  2.121528e+01 -2.456217e+01
    endloop
  endfacet
  facet normal  5.901123e-01  6.290781e-01 -5.059924e-01
    outer loop
      vertex  -1.111185e+01  3.003939e+01 -2.374671e+01
      vertex  -1.368645e+01  2.582346e+01 -3.199081e+01
      vertex  -1.271170e+01  3.301709e+01 -2.191049e+01
    endloop
  endfacet
  facet normal -3.240145e-01 -9.014329e-01  2.871119e-01
    outer loop
      vertex  -2.400802e+01 -1.462350e+00 -3.109589e+01
      vertex  -2.970146e+01  3.671125e+00 -2.140376e+01
      vertex  -3.398883e+01  3.771034e+00 -2.592850e+01
    endloop
  endfacet
  facet normal -8.259181e-01 -1.514799e-01  5.430590e-01
    outer loop
      vertex  -3.653622e+01  9.041140e+00 -2.833270e+01
      vertex  -3.398883e+01  3.771034e+00 -2.592850e+01
      vertex  -3.401377e+01  1.131090e+01 -2.386329e+01
    endloop
  endfacet
  facet normal -1.332099e-01  9.490827e-01  2.854769e-01
    outer loop
      vertex  -2.294166e+01  1.472326e+01 -3.004134e+01
      vertex  -3.401377e+01  1.131090e+01 -2.386329e+01
      vertex  -2.519263e+01  1.349109e+01 -2.699527e+01
    endloop
  endfacet
  facet normal  4.268149e-01  2.083602e-01  8.800086e-01
    outer loop
      vertex  -3.401377e+01  1.131090e+01 -2.386329e+01
      vertex  -2.294166e+01  1.472326e+01 -3.004134e+01
      vertex  -2.842537e+01  2.024794e+01 -2.868976e+01
    endloop
  endfacet
  facet normal  6.308384e-01  5.216860e-01  5.743576e-01
    outer loop
      vertex  -1.727988e+01  1.875363e+01 -2.434562e+01
      vertex  -1.486660e+01  1.088394e+01 -1.984822e+01
      vertex  -1.212014e+01  1.839437e+01 -2.968645e+01
    endloop
  endfacet
  facet normal  9.970286e-01 -3.155961e-02  7.027088e-02
    outer loop
      vertex  -1.793917e+01 -3.273676e+00 -2.832198e+01
      vertex  -1.891714e+01 -9.957198e+00 -1.744782e+01
      vertex  -1.867000e+01 -1.573170e+01 -2.354767e+01
    endloop
  endfacet
  facet normal -8.927455e-01  1.726229e-01  4.161814e-01
    outer loop
      vertex  -3.653622e+01  9.041140e+00 -2.833270e+01
      vertex  -3.401377e+01  1.131090e+01 -2.386329e+01
      vertex  -3.521714e+01  1.623299e+01 -2.848618e+01
    endloop
  endfacet
  facet normal -3.305022e-01 -6.109073e-01 -7.194168e-01
    outer loop
      vertex  -2.014460e+01  2.421871e+01 -2.597770e+01
      vertex  -1.378939e+01  2.456631e+01 -2.919247e+01
      vertex  -1.767423e+01  2.121528e+01 -2.456217e+01
    endloop
  endfacet
  facet normal  7.733639e-01 -5.952897e-01  2.180332e-01
    outer loop
      vertex  -1.111185e+01  3.003939e+01 -2.374671e+01
      vertex  -1.767423e+01  2.121528e+01 -2.456217e+01
      vertex  -1.378939e+01  2.456631e+01 -2.919247e+01
    endloop
  endfacet
  facet normal -8.575960e-01 -4.359784e-01 -2.728587e-01
    outer loop
      vertex  -2.128276e+01 -9.343629e+00 -2.706857e+01
      vertex  -2.970146e+01  3.671125e+00 -2.140376e+01
      vertex  -2.400802e+01 -1.462350e+00 -3.109589e+01
    endloop
  endfacet
  facet normal -2.416935e-01 -6.739239e-01  6.981481e-01
    outer loop
      vertex  -1.496384e+01 -2.051328e-01 -2.847347e+01
      vertex  -7.672386e-01 -7.783838e+00 -3.087445e+01
      vertex  -6.673647e+00  7.456140e+00 -1.820802e+01
    endloop
  endfacet
  facet normal  3.242451e-01  5.727800e-01  7.528534e-01
    outer loop
      vertex   2.223606e+01  1.154037e+01 -2.608514e+01
      vertex   2.474702e+01  1.535928e-01 -1.850338e+01
      vertex   2.864796e+01  1.053535e+01 -2.808203e+01
    endloop
  endfacet
  facet normal -2.592297e-01  9.640079e-01 -5.906546e-02
    outer loop
      vertex  -3.152764e+01  1.209483e+01 -2.198009e+01
      vertex  -2.519263e+01  1.349109e+01 -2.699527e+01
      vertex  -3.401377e+01  1.131090e+01 -2.386329e+01
    endloop
  endfacet
  facet normal -3.334105e-01  6.008421e-01  7.265165e-01
    outer loop
      vertex  -3.521714e+01  1.623299e+01 -2.848618e+01
      vertex  -3.401377e+01  1.131090e+01 -2.386329e+01
      vertex  -2.842537e+01  2.024794e+01 -2.868976e+01
    endloop
  endfacet
  facet normal  1.318016e-02 -5.954852e-01  8.032581e-01
    outer loop
      vertex   1.051619e+00  2.098067e+00 -2.077109e+01
      vertex   5.645586e+00 -9.998339e+00 -2.981399e+01
      vertex   9.756287e+00  4.219729e+00 -1.934105e+01
    endloop
  endfacet
  facet normal -2.086650e-01 -6.954899e-01  6.875701e-01
    outer loop
      vertex  -1.496384e+01 -2.051328e-01 -2.847347e+01
      vertex  -6.673647e+00  7.456140e+00 -1.820802e+01
      vertex  -1.350008e+01  5.750158e+00 -2.200536e+01
    endloop
  endfacet
  facet normal  5.627880e-01 -5.137215e-01  6.475801e-01
    outer loop
      vertex  -1.496384e+01 -2.051328e-01 -2.847347e+01
      vertex  -2.200822e+01  2.382434e+00 -2.029875e+01
      vertex  -1.793917e+01 -3.273676e+00 -2.832198e+01
    endloop
  endfacet
  facet normal  3.986340e-01 -7.178730e-01  5.707446e-01
    outer loop
      vertex  -1.496384e+01 -2.051328e-01 -2.847347e+01
      vertex  -1.350008e+01  5.750158e+00 -2.200536e+01
      vertex  -2.200822e+01  2.382434e+00 -2.029875e+01
    endloop
  endfacet
  facet normal -1.747257e-02  5.852687e-01  8.106512e-01
    outer loop
      vertex   1.067900e+01  1.432286e+01 -2.661536e+01
      vertex   6.410748e+00  1.268806e+01 -2.552707e+01
      vertex   9.756287e+00  4.219729e+00 -1.934105e+01
    endloop
  endfacet
  facet normal  2.132185e-01  6.298321e-01  7.468932e-01
    outer loop
      vertex   9.756287e+00  4.219729e+00 -1.934105e+01
      vertex   6.410748e+00  1.268806e+01 -2.552707e+01
      vertex  -2.749540e+00  1.560263e+01 -2.536982e+01
    endloop
  endfacet
  facet normal -5.983233e-01  5.175239e-01 -6.117010e-01
    outer loop
      vertex  -3.152764e+01  1.209483e+01 -2.198009e+01
      vertex  -2.176942e+01  1.805804e+01 -2.647978e+01
      vertex  -2.519263e+01  1.349109e+01 -2.699527e+01
    endloop
  endfacet
  facet normal  4.664965e-01 -4.897731e-01  7.365482e-01
    outer loop
      vertex   2.484141e+01 -1.079101e+01 -2.584086e+01
      vertex   3.198798e+01 -1.010801e+00 -2.386375e+01
      vertex   2.474702e+01  1.535928e-01 -1.850338e+01
    endloop
  endfacet
  facet normal -3.681326e-01 -4.800751e-01  7.962451e-01
    outer loop
      vertex   9.756287e+00  4.219729e+00 -1.934105e+01
      vertex   5.645586e+00 -9.998339e+00 -2.981399e+01
      vertex   1.437047e+01 -8.515039e+00 -2.488584e+01
    endloop
  endfacet
  facet normal  9.202725e-01  2.909691e-01  2.616017e-01
    outer loop
      vertex  -1.891714e+01 -9.957198e+00 -1.744782e+01
      vertex  -1.793917e+01 -3.273676e+00 -2.832198e+01
      vertex  -2.200822e+01  2.382434e+00 -2.029875e+01
    endloop
  endfacet
  facet normal -2.345641e-01 -6.735095e-01  7.009740e-01
    outer loop
      vertex   1.051619e+00  2.098067e+00 -2.077109e+01
      vertex  -6.673647e+00  7.456140e+00 -1.820802e+01
      vertex  -7.672386e-01 -7.783838e+00 -3.087445e+01
    endloop
  endfacet
  facet normal  5.822306e-01  4.222541e-01  6.947727e-01
    outer loop
      vertex   2.864796e+01  1.053535e+01 -2.808203e+01
      vertex   2.474702e+01  1.535928e-01 -1.850338e+01
      vertex   3.198798e+01 -1.010801e+00 -2.386375e+01
    endloop
  endfacet
  facet normal  1.012448e-01  5.751988e-01  8.117240e-01
    outer loop
      vertex   1.067900e+01  1.432286e+01 -2.661536e+01
      vertex   9.756287e+00  4.219729e+00 -1.934105e+01
      vertex   2.223606e+01  1.154037e+01 -2.608514e+01
    endloop
  endfacet
  facet normal  1.076698e-01  6.266614e-01  7.718179e-01
    outer loop
      vertex  -1.486660e+01  1.088394e+01 -1.984822e+01
      vertex  -6.673647e+00  7.456140e+00 -1.820802e+01
      vertex  -2.749540e+00  1.560263e+01 -2.536982e+01
    endloop
  endfacet
  facet normal -1.845258e-01 -3.815062e-01 -9.057611e-01
    outer loop
      vertex  -2.606898e+01  1.994660e+01 -2.639931e+01
      vertex  -2.176942e+01  1.805804e+01 -2.647978e+01
      vertex  -3.152764e+01  1.209483e+01 -2.198009e+01
    endloop
  endfacet
  facet normal -5.861461e-01  8.005098e-01  1.249683e-01
    outer loop
      vertex  -2.491848e+01  1.984636e+01 -2.036091e+01
      vertex  -2.014460e+01  2.421871e+01 -2.597770e+01
      vertex  -2.606898e+01  1.994660e+01 -2.639931e+01
    endloop
  endfacet
  facet normal  3.120076e-01  6.027550e-01  7.343962e-01
    outer loop
      vertex  -2.014460e+01  2.421871e+01 -2.597770e+01
      vertex  -2.491848e+01  1.984636e+01 -2.036091e+01
      vertex  -1.767423e+01  2.121528e+01 -2.456217e+01
    endloop
  endfacet
  facet normal  1.082892e-01  5.673982e-01  8.162920e-01
    outer loop
      vertex   2.474702e+01  1.535928e-01 -1.850338e+01
      vertex   2.223606e+01  1.154037e+01 -2.608514e+01
      vertex   9.756287e+00  4.219729e+00 -1.934105e+01
    endloop
  endfacet
  facet normal  6.550863e-01 -5.363565e-01  5.321499e-01
    outer loop
      vertex  -1.767423e+01  2.121528e+01 -2.456217e+01
      vertex  -1.111185e+01  3.003939e+01 -2.374671e+01
      vertex  -2.365648e+01  1.977459e+01 -1.864999e+01
    endloop
  endfacet
  facet normal -4.531088e-02 -5.565540e-01  8.295750e-01
    outer loop
      vertex   1.437047e+01 -8.515039e+00 -2.488584e+01
      vertex   2.484141e+01 -1.079101e+01 -2.584086e+01
      vertex   2.474702e+01  1.535928e-01 -1.850338e+01
    endloop
  endfacet
  facet normal -8.204947e-01 -1.535408e-01  5.506483e-01
    outer loop
      vertex  -2.817605e+01  7.154111e+00 -1.632384e+01
      vertex  -3.401377e+01  1.131090e+01 -2.386329e+01
      vertex  -3.398883e+01  3.771034e+00 -2.592850e+01
    endloop
  endfacet
  facet normal  4.582399e-01  5.427669e-01  7.038609e-01
    outer loop
      vertex  -1.727988e+01  1.875363e+01 -2.434562e+01
      vertex  -2.495552e+01  1.464019e+01 -1.617651e+01
      vertex  -1.486660e+01  1.088394e+01 -1.984822e+01
    endloop
  endfacet
  facet normal -3.120076e-01 -6.027550e-01 -7.343962e-01
    outer loop
      vertex  -2.014460e+01  2.421871e+01 -2.597770e+01
      vertex  -1.767423e+01  2.121528e+01 -2.456217e+01
      vertex  -2.491848e+01  1.984636e+01 -2.036091e+01
    endloop
  endfacet
  facet normal -8.521246e-01 -5.176198e-01 -7.715839e-02
    outer loop
      vertex  -2.970146e+01  3.671125e+00 -2.140376e+01
      vertex  -2.128276e+01 -9.343629e+00 -2.706857e+01
      vertex  -2.538832e+01 -3.935654e+00 -1.800696e+01
    endloop
  endfacet
  facet normal -6.329373e-01  3.570693e-01  6.869439e-01
    outer loop
      vertex  -3.401377e+01  1.131090e+01 -2.386329e+01
      vertex  -2.817605e+01  7.154111e+00 -1.632384e+01
      vertex  -3.152764e+01  1.209483e+01 -2.198009e+01
    endloop
  endfacet
  facet normal  5.857305e-01 -3.537372e-01  7.292391e-01
    outer loop
      vertex  -1.954545e+01  2.696839e+01 -1.846245e+01
      vertex  -2.365648e+01  1.977459e+01 -1.864999e+01
      vertex  -1.111185e+01  3.003939e+01 -2.374671e+01
    endloop
  endfacet
  facet normal -8.872083e-01 -4.397693e-01 -1.395151e-01
    outer loop
      vertex  -2.128276e+01 -9.343629e+00 -2.706857e+01
      vertex  -1.867000e+01 -1.573170e+01 -2.354767e+01
      vertex  -2.538832e+01 -3.935654e+00 -1.800696e+01
    endloop
  endfacet
  facet normal -6.089869e-01 -5.569592e-01  5.647402e-01
    outer loop
      vertex  -2.817605e+01  7.154111e+00 -1.632384e+01
      vertex  -3.398883e+01  3.771034e+00 -2.592850e+01
      vertex  -2.970146e+01  3.671125e+00 -2.140376e+01
    endloop
  endfacet
  facet normal -7.674758e-01  6.216699e-01  1.565485e-01
    outer loop
      vertex  -3.152764e+01  1.209483e+01 -2.198009e+01
      vertex  -2.491848e+01  1.984636e+01 -2.036091e+01
      vertex  -2.606898e+01  1.994660e+01 -2.639931e+01
    endloop
  endfacet
  facet normal  6.714381e-01  1.709926e-01  7.210634e-01
    outer loop
      vertex  -2.365648e+01  1.977459e+01 -1.864999e+01
      vertex  -1.727988e+01  1.875363e+01 -2.434562e+01
      vertex  -1.767423e+01  2.121528e+01 -2.456217e+01
    endloop
  endfacet
  facet normal -7.653197e-01  6.217499e-01 -1.664716e-01
    outer loop
      vertex  -2.014460e+01  2.421871e+01 -2.597770e+01
      vertex  -2.491848e+01  1.984636e+01 -2.036091e+01
      vertex  -1.954545e+01  2.696839e+01 -1.846245e+01
    endloop
  endfacet
  facet normal -7.032824e-01  6.838852e-01 -1.941515e-01
    outer loop
      vertex  -1.271170e+01  3.301709e+01 -2.191049e+01
      vertex  -2.014460e+01  2.421871e+01 -2.597770e+01
      vertex  -1.954545e+01  2.696839e+01 -1.846245e+01
    endloop
  endfacet
  facet normal  5.696492e-01 -1.874119e-01  8.002353e-01
    outer loop
      vertex  -1.954545e+01  2.696839e+01 -1.846245e+01
      vertex  -1.111185e+01  3.003939e+01 -2.374671e+01
      vertex  -1.271170e+01  3.301709e+01 -2.191049e+01
    endloop
  endfacet
  facet normal -1.697075e-01 -4.444623e-01  8.795753e-01
    outer loop
      vertex   2.474702e+01  1.535928e-01 -1.850338e+01
      vertex   9.756287e+00  4.219729e+00 -1.934105e+01
      vertex   1.437047e+01 -8.515039e+00 -2.488584e+01
    endloop
  endfacet
  facet normal -2.177495e-01  2.591405e-01  9.409736e-01
    outer loop
      vertex   9.756287e+00  4.219729e+00 -1.934105e+01
      vertex  -2.749540e+00  1.560263e+01 -2.536982e+01
      vertex   1.051619e+00  2.098067e+00 -2.077109e+01
    endloop
  endfacet
  facet normal -3.498240e-01 -4.405169e-01  8.267817e-01
    outer loop
      vertex  -1.486660e+01  1.088394e+01 -1.984822e+01
      vertex  -1.350008e+01  5.750158e+00 -2.200536e+01
      vertex  -6.673647e+00  7.456140e+00 -1.820802e+01
    endloop
  endfacet
  facet normal  6.712581e-01  1.769272e-01  7.197981e-01
    outer loop
      vertex  -1.727988e+01  1.875363e+01 -2.434562e+01
      vertex  -2.365648e+01  1.977459e+01 -1.864999e+01
      vertex  -2.495552e+01  1.464019e+01 -1.617651e+01
    endloop
  endfacet
  facet normal -8.821679e-01 -4.636360e-01 -8.259202e-02
    outer loop
      vertex  -2.538832e+01 -3.935654e+00 -1.800696e+01
      vertex  -1.867000e+01 -1.573170e+01 -2.354767e+01
      vertex  -1.995417e+01 -1.471495e+01 -1.553895e+01
    endloop
  endfacet
  facet normal  5.276737e-01  4.031374e-01  7.476903e-01
    outer loop
      vertex  -2.749540e+00  1.560263e+01 -2.536982e+01
      vertex  -6.673647e+00  7.456140e+00 -1.820802e+01
      vertex   1.051619e+00  2.098067e+00 -2.077109e+01
    endloop
  endfacet
  facet normal -6.955017e-01  4.816237e-01  5.332128e-01
    outer loop
      vertex  -2.491848e+01  1.984636e+01 -2.036091e+01
      vertex  -3.152764e+01  1.209483e+01 -2.198009e+01
      vertex  -2.365648e+01  1.977459e+01 -1.864999e+01
    endloop
  endfacet
  facet normal -7.287353e-01  4.019961e-01  5.543861e-01
    outer loop
      vertex  -2.365648e+01  1.977459e+01 -1.864999e+01
      vertex  -1.954545e+01  2.696839e+01 -1.846245e+01
      vertex  -2.491848e+01  1.984636e+01 -2.036091e+01
    endloop
  endfacet
  facet normal  3.004807e-01 -3.003895e-01  9.052500e-01
    outer loop
      vertex  -1.486660e+01  1.088394e+01 -1.984822e+01
      vertex  -2.200822e+01  2.382434e+00 -2.029875e+01
      vertex  -1.350008e+01  5.750158e+00 -2.200536e+01
    endloop
  endfacet
  facet normal -6.826693e-01  4.500546e-01  5.756853e-01
    outer loop
      vertex  -2.495552e+01  1.464019e+01 -1.617651e+01
      vertex  -2.365648e+01  1.977459e+01 -1.864999e+01
      vertex  -3.152764e+01  1.209483e+01 -2.198009e+01
    endloop
  endfacet
  facet normal -6.941202e-01  2.856081e-01  6.607762e-01
    outer loop
      vertex  -2.817605e+01  7.154111e+00 -1.632384e+01
      vertex  -2.495552e+01  1.464019e+01 -1.617651e+01
      vertex  -3.152764e+01  1.209483e+01 -2.198009e+01
    endloop
  endfacet
  facet normal  9.743338e-01 -1.424364e-01  1.743143e-01
    outer loop
      vertex  -1.995417e+01 -1.471495e+01 -1.553895e+01
      vertex  -1.867000e+01 -1.573170e+01 -2.354767e+01
      vertex  -1.891714e+01 -9.957198e+00 -1.744782e+01
    endloop
  endfacet
  facet normal  7.145017e-01  3.224361e-01  6.209044e-01
    outer loop
      vertex  -1.891714e+01 -9.957198e+00 -1.744782e+01
      vertex  -2.200822e+01  2.382434e+00 -2.029875e+01
      vertex  -2.352949e+01 -3.235402e+00 -1.563082e+01
    endloop
  endfacet
  facet normal  3.253841e-01 -3.204809e-01  8.896163e-01
    outer loop
      vertex  -2.817605e+01  7.154111e+00 -1.632384e+01
      vertex  -2.200822e+01  2.382434e+00 -2.029875e+01
      vertex  -1.486660e+01  1.088394e+01 -1.984822e+01
    endloop
  endfacet
  facet normal -7.579025e-01 -1.457939e-01  6.358679e-01
    outer loop
      vertex  -2.970146e+01  3.671125e+00 -2.140376e+01
      vertex  -2.538832e+01 -3.935654e+00 -1.800696e+01
      vertex  -2.352949e+01 -3.235402e+00 -1.563082e+01
    endloop
  endfacet
  facet normal  6.831392e-01  3.483389e-01  6.418573e-01
    outer loop
      vertex  -2.817605e+01  7.154111e+00 -1.632384e+01
      vertex  -2.352949e+01 -3.235402e+00 -1.563082e+01
      vertex  -2.200822e+01  2.382434e+00 -2.029875e+01
    endloop
  endfacet
  facet normal  2.907595e-01 -1.437027e-01  9.459431e-01
    outer loop
      vertex  -1.486660e+01  1.088394e+01 -1.984822e+01
      vertex  -2.495552e+01  1.464019e+01 -1.617651e+01
      vertex  -2.817605e+01  7.154111e+00 -1.632384e+01
    endloop
  endfacet
  facet normal  5.855432e-01  1.886771e-01  7.883781e-01
    outer loop
      vertex  -2.352949e+01 -3.235402e+00 -1.563082e+01
      vertex  -1.995417e+01 -1.471495e+01 -1.553895e+01
      vertex  -1.891714e+01 -9.957198e+00 -1.744782e+01
    endloop
  endfacet
  facet normal -7.345944e-01 -2.236635e-01  6.405824e-01
    outer loop
      vertex  -1.995417e+01 -1.471495e+01 -1.553895e+01
      vertex  -2.352949e+01 -3.235402e+00 -1.563082e+01
      vertex  -2.538832e+01 -3.935654e+00 -1.800696e+01
    endloop
  endfacet
  facet normal -8.154827e-01 -3.331432e-01  4.732902e-01
    outer loop
      vertex  -2.817605e+01  7.154111e+00 -1.632384e+01
      vertex  -2.970146e+01  3.671125e+00 -2.140376e+01
      vertex  -2.352949e+01 -3.235402e+00 -1.563082e+01
    endloop
  endfacet
endsolid vcg
