solid elephant
	facet normal 0.01188285306229016 -0.9958719352663026 0.08998825674525072
		outer loop
			vertex 72.12683917514563 0.015582296592299372 17.008463751307374
			vertex 84.18038671365277 2.5863755581667647E-12 15.24436127969817
			vertex 80.8455430989265 0.5930083004730733 22.247361485181013
		endloop
	endfacet
	facet normal -0.06621074039038752 -0.8933255275887508 -0.444506062517978
		outer loop
			vertex 84.18038671365277 2.5863755581667647E-12 15.24436127969817
			vertex 72.12683917514563 0.015582296592299372 17.008463751307374
			vertex 79.41662809374665 2.435557395958213 11.059190890994126
		endloop
	endfacet
	facet normal -0.007679016906775554 -0.9998932725877369 -0.012428842791310821
		outer loop
			vertex 34.95040082711663 0.10791180001272949 28.442245529472274
			vertex 36.70647782883552 0.18724410673361547 20.975035079295548
			vertex 45.82357434299736 -3.1288632769133073E-05 30.40834046771602
		endloop
	endfacet
	facet normal 0.11375284964044582 -0.9850336382629041 -0.1294952535393641
		outer loop
			vertex 46.466710541406414 1.2416089628772369 21.528487286587122
			vertex 45.82357434299736 -3.1288632769133073E-05 30.40834046771602
			vertex 36.70647782883552 0.18724410673361547 20.975035079295548
		endloop
	endfacet
	facet normal 0.01362877021190291 -0.9994912043688907 -0.028837285096477424
		outer loop
			vertex 45.721807067346354 7.944080253707853E-05 10.097395534725045
			vertex 58.019582837132674 0.39008745804636646 2.3918843521978026
			vertex 59.181022493355115 0.10674394315569202 12.761388420885929
		endloop
	endfacet
	facet normal 0.15119901102199482 -0.9726713525096217 0.17620811296042563
		outer loop
			vertex 15.792417585381937 2.842170943040401E-14 23.492453120359325
			vertex 26.340895684043055 0.13754117201440863 15.200342876695899
			vertex 23.783321980504642 0.9017342295703941 21.613278640420354
		endloop
	endfacet
	facet normal -0.05300414360775432 -0.9894712614032616 -0.13467436139609854
		outer loop
			vertex 45.721807067346354 7.944080253707853E-05 10.097395534725045
			vertex 49.37942528184904 1.1618504419539306 0.1221639824946763
			vertex 58.019582837132674 0.39008745804636646 2.3918843521978026
		endloop
	endfacet
	facet normal -0.026694970767537796 -0.9983662781967177 -0.050518839014314705
		outer loop
			vertex 14.09306844131346 0.5406232392373767 13.706481289153675
			vertex 26.340895684043055 0.13754117201440863 15.200342876695899
			vertex 15.792417585381937 2.842170943040401E-14 23.492453120359325
		endloop
	endfacet
	facet normal 0.022632561104240025 -0.902929386677529 -0.4291926022801467
		outer loop
			vertex 14.09306844131346 0.5406232392373767 13.706481289153675
			vertex 23.644382621534415 1.8556175737955414 11.443682906754091
			vertex 26.340895684043055 0.13754117201440863 15.200342876695899
		endloop
	endfacet
	facet normal -0.09108151310671658 -0.8642365608888919 0.4947719927331496
		outer loop
			vertex 59.181022493355115 0.10674394315569202 12.761388420885929
			vertex 51.134851653145404 1.8343355462065034 14.297834343381224
			vertex 45.721807067346354 7.944080253707853E-05 10.097395534725045
		endloop
	endfacet
	facet normal -0.7478384557381345 -0.5698626001710948 -0.34057930213893134
		outer loop
			vertex 45.573109919871825 2.340312926525428 6.50818712903385
			vertex 49.37942528184904 1.1618504419539306 0.1221639824946763
			vertex 45.721807067346354 7.944080253707853E-05 10.097395534725045
		endloop
	endfacet
	facet normal -0.648046386585008 0.09418826510984064 -0.7557542269479627
		outer loop
			vertex 75.04756590665855 7.087591472579945 15.38536184106626
			vertex 79.41662809374665 2.435557395958213 11.059190890994126
			vertex 72.12683917514563 0.015582296592299372 17.008463751307374
		endloop
	endfacet
	facet normal 0.7486640855962292 -0.5277648451730578 0.4012061254988768
		outer loop
			vertex 84.18038671365277 2.5863755581667647E-12 15.24436127969817
			vertex 86.06122460388187 2.9525067886200986 15.618516855556724
			vertex 80.8455430989265 0.5930083004730733 22.247361485181013
		endloop
	endfacet
	facet normal 0.5602814229798841 -0.2571361672830048 -0.7873790183505289
		outer loop
			vertex 86.06122460388187 2.9525067886200986 15.618516855556724
			vertex 84.18038671365277 2.5863755581667647E-12 15.24436127969817
			vertex 79.41662809374665 2.435557395958213 11.059190890994126
		endloop
	endfacet
	facet normal 0.2439755395128687 0.3230963775104982 0.9143766548633001
		outer loop
			vertex 51.134851653145404 1.8343355462065034 14.297834343381224
			vertex 59.181022493355115 0.10674394315569202 12.761388420885929
			vertex 57.67955254633238 6.211395196662622 11.004925417326538
		endloop
	endfacet
	facet normal -0.2313300950568046 0.006182667392679605 -0.9728556736458503
		outer loop
			vertex 23.644382621534415 1.8556175737955414 11.443682906754091
			vertex 14.09306844131346 0.5406232392373767 13.706481289153675
			vertex 18.588146808449327 6.174442668032157 12.673424792178844
		endloop
	endfacet
	facet normal -0.1707680222472919 0.23356380331594867 0.9572284118006199
		outer loop
			vertex 45.82357434299736 -3.1288632769133073E-05 30.40834046771602
			vertex 36.69262586865629 5.672365597868293 27.39532856023555
			vertex 34.95040082711663 0.10791180001272949 28.442245529472274
		endloop
	endfacet
	facet normal -0.9421645964299484 0.25381104914303626 -0.2188739924406365
		outer loop
			vertex 34.95040082711663 0.10791180001272949 28.442245529472274
			vertex 36.69262586865629 5.672365597868293 27.39532856023555
			vertex 36.70647782883552 0.18724410673361547 20.975035079295548
		endloop
	endfacet
	facet normal 0.9808781762184545 0.16361650201647995 -0.10539280661529773
		outer loop
			vertex 57.13262414504855 5.862116947569788 2.632089547858598
			vertex 59.181022493355115 0.10674394315569202 12.761388420885929
			vertex 58.019582837132674 0.39008745804636646 2.3918843521978026
		endloop
	endfacet
	facet normal -0.507452119185343 -0.10140998191973014 0.8556917449066248
		outer loop
			vertex 80.8455430989265 0.5930083004730733 22.247361485181013
			vertex 75.51297871244398 7.706783312278489 19.928052791252696
			vertex 72.12683917514563 0.015582296592299372 17.008463751307374
		endloop
	endfacet
	facet normal -0.20664273787519757 0.17836178016807824 0.9620217535267676
		outer loop
			vertex 36.69262586865629 5.672365597868293 27.39532856023555
			vertex 45.82357434299736 -3.1288632769133073E-05 30.40834046771602
			vertex 44.07764007834718 6.67060874081389 28.79655584701946
		endloop
	endfacet
	facet normal 0.9550911792843196 0.2760194527830669 0.10776873822507253
		outer loop
			vertex 45.82357434299736 -3.1288632769133073E-05 30.40834046771602
			vertex 46.466710541406414 1.2416089628772369 21.528487286587122
			vertex 44.07764007834718 6.67060874081389 28.79655584701946
		endloop
	endfacet
	facet normal -0.5838010343011277 0.6688240256070881 0.4602725009379362
		outer loop
			vertex 45.721807067346354 7.944080253707853E-05 10.097395534725045
			vertex 51.134851653145404 1.8343355462065034 14.297834343381224
			vertex 45.573109919871825 2.340312926525428 6.50818712903385
		endloop
	endfacet
	facet normal 0.2602128323778838 0.08440025905424213 -0.9618554351551257
		outer loop
			vertex 58.019582837132674 0.39008745804636646 2.3918843521978026
			vertex 49.37942528184904 1.1618504419539306 0.1221639824946763
			vertex 57.13262414504855 5.862116947569788 2.632089547858598
		endloop
	endfacet
	facet normal 0.9731407372732129 0.21843716131148408 -0.07267951580416666
		outer loop
			vertex 57.13262414504855 5.862116947569788 2.632089547858598
			vertex 57.67955254633238 6.211395196662622 11.004925417326538
			vertex 59.181022493355115 0.10674394315569202 12.761388420885929
		endloop
	endfacet
	facet normal 0.15613556424950384 0.44938975888599214 0.8795854308621072
		outer loop
			vertex 15.792417585381937 2.842170943040401E-14 23.492453120359325
			vertex 23.783321980504642 0.9017342295703941 21.613278640420354
			vertex 18.733587471591008 8.576479682543095 18.588548161249385
		endloop
	endfacet
	facet normal -0.15901571264300013 -0.15494584255969318 -0.9750414293793396
		outer loop
			vertex 6.489697620714608 7.818285328765981 27.55377078967344
			vertex 7.507603091308077 1.255298847604493 28.430702251720227
			vertex 5.1536190997235565 0.9087421267849436 28.869676383667205
		endloop
	endfacet
	facet normal -0.8951139743135004 0.4087542685519505 0.17801943975097256
		outer loop
			vertex 14.09306844131346 0.5406232392373767 13.706481289153675
			vertex 15.792417585381937 2.842170943040401E-14 23.492453120359325
			vertex 18.733587471591008 8.576479682543095 18.588548161249385
		endloop
	endfacet
	facet normal -0.7819832247800592 0.5839662599723813 -0.21791200833466903
		outer loop
			vertex 14.09306844131346 0.5406232392373767 13.706481289153675
			vertex 18.733587471591008 8.576479682543095 18.588548161249385
			vertex 18.588146808449327 6.174442668032157 12.673424792178844
		endloop
	endfacet
	facet normal 0.7017392500705387 0.28419297158526935 0.6532965481402546
		outer loop
			vertex 80.8455430989265 0.5930083004730733 22.247361485181013
			vertex 86.06122460388187 2.9525067886200986 15.618516855556724
			vertex 78.28695011246104 12.388609268089965 19.864428693794373
		endloop
	endfacet
	facet normal 0.13373811121153015 0.460287867410677 0.8776384202643497
		outer loop
			vertex 51.9814066655928 7.919514334835583 10.977388737827201
			vertex 51.134851653145404 1.8343355462065034 14.297834343381224
			vertex 57.67955254633238 6.211395196662622 11.004925417326538
		endloop
	endfacet
	facet normal -0.7327717920474803 0.40166374758945683 0.5492829276901998
		outer loop
			vertex 45.573109919871825 2.340312926525428 6.50818712903385
			vertex 51.134851653145404 1.8343355462065034 14.297834343381224
			vertex 51.9814066655928 7.919514334835583 10.977388737827201
		endloop
	endfacet
	facet normal 0.9252628603307826 -0.05407539766445009 0.3754523813480616
		outer loop
			vertex 26.340895684043055 0.13754117201440863 15.200342876695899
			vertex 25.203514534801663 10.43356820009226 19.486208065679463
			vertex 23.783321980504642 0.9017342295703941 21.613278640420354
		endloop
	endfacet
	facet normal -0.8930156223038327 0.08865304657411231 -0.4412071346368127
		outer loop
			vertex 5.472288423279544 9.902872504041667 30.03189778646975
			vertex 6.489697620714608 7.818285328765981 27.55377078967344
			vertex 5.1536190997235565 0.9087421267849436 28.869676383667205
		endloop
	endfacet
	facet normal -0.920121842816956 0.3894607602316551 0.04118386347721781
		outer loop
			vertex 75.04756590665855 7.087591472579945 15.38536184106626
			vertex 72.12683917514563 0.015582296592299372 17.008463751307374
			vertex 75.51297871244398 7.706783312278489 19.928052791252696
		endloop
	endfacet
	facet normal 0.5192679271605447 0.31882830647426924 -0.792911931309613
		outer loop
			vertex 80.50798319758351 13.337829523481659 16.15768733438642
			vertex 86.06122460388187 2.9525067886200986 15.618516855556724
			vertex 79.41662809374665 2.435557395958213 11.059190890994126
		endloop
	endfacet
	facet normal 0.08364759796957835 -0.2709563412266592 -0.9589503326570057
		outer loop
			vertex 36.70647782883552 0.18724410673361547 20.975035079295548
			vertex 40.55811672916464 8.194236438519482 19.048590151670027
			vertex 46.466710541406414 1.2416089628772369 21.528487286587122
		endloop
	endfacet
	facet normal 0.8809405525560781 -0.4717094856809289 -0.03786692462856317
		outer loop
			vertex 57.13262414504855 5.862116947569788 2.632089547858598
			vertex 63.06721476792184 16.829489059793914 4.074194622806175
			vertex 57.67955254633238 6.211395196662622 11.004925417326538
		endloop
	endfacet
	facet normal 0.6227992666923673 0.26696168676513143 -0.7354267680788925
		outer loop
			vertex 40.55811672916464 8.194236438519482 19.048590151670027
			vertex 46.566333304248516 9.157705890303703 24.486415480672946
			vertex 46.466710541406414 1.2416089628772369 21.528487286587122
		endloop
	endfacet
	facet normal -0.2243062824360137 0.14599482249242585 0.9635207332824449
		outer loop
			vertex 80.8455430989265 0.5930083004730733 22.247361485181013
			vertex 78.28695011246104 12.388609268089965 19.864428693794373
			vertex 75.51297871244398 7.706783312278489 19.928052791252696
		endloop
	endfacet
	facet normal 0.7506377458076493 0.3730705811283035 0.5453084595578916
		outer loop
			vertex 78.28695011246104 12.388609268089965 19.864428693794373
			vertex 86.06122460388187 2.9525067886200986 15.618516855556724
			vertex 80.50798319758351 13.337829523481659 16.15768733438642
		endloop
	endfacet
	facet normal 0.8925517274163239 -0.16765444430133897 0.4186208322481638
		outer loop
			vertex 46.466710541406414 1.2416089628772369 21.528487286587122
			vertex 46.566333304248516 9.157705890303703 24.486415480672946
			vertex 44.07764007834718 6.67060874081389 28.79655584701946
		endloop
	endfacet
	facet normal -0.07534737055022422 -0.23573310425142488 0.9688925003895706
		outer loop
			vertex 56.64846096071099 12.81232593410899 12.53075811116969
			vertex 51.9814066655928 7.919514334835583 10.977388737827201
			vertex 57.67955254633238 6.211395196662622 11.004925417326538
		endloop
	endfacet
	facet normal -0.20110671470225044 0.24179498039356756 0.9492582771607219
		outer loop
			vertex 23.783321980504642 0.9017342295703941 21.613278640420354
			vertex 25.203514534801663 10.43356820009226 19.486208065679463
			vertex 18.733587471591008 8.576479682543095 18.588548161249385
		endloop
	endfacet
	facet normal -0.7630194508404943 0.37775845257864915 -0.5244996369345312
		outer loop
			vertex 45.573109919871825 2.340312926525428 6.50818712903385
			vertex 51.259682106882764 11.327761882070618 4.7086046112305375
			vertex 49.37942528184904 1.1618504419539306 0.1221639824946763
		endloop
	endfacet
	facet normal 0.05168880820276934 0.40273415520209127 -0.9138563712861202
		outer loop
			vertex 49.37942528184904 1.1618504419539306 0.1221639824946763
			vertex 51.259682106882764 11.327761882070618 4.7086046112305375
			vertex 57.13262414504855 5.862116947569788 2.632089547858598
		endloop
	endfacet
	facet normal -0.659094165288625 0.07672803971672029 -0.7481361434950995
		outer loop
			vertex 79.41662809374665 2.435557395958213 11.059190890994126
			vertex 75.04756590665855 7.087591472579945 15.38536184106626
			vertex 77.05385464684997 16.73418530725494 14.607202714912193
		endloop
	endfacet
	facet normal -0.8851622763098457 0.35281312393316083 -0.30333256366321193
		outer loop
			vertex 36.69262586865629 5.672365597868293 27.39532856023555
			vertex 40.55811672916464 8.194236438519482 19.048590151670027
			vertex 36.70647782883552 0.18724410673361547 20.975035079295548
		endloop
	endfacet
	facet normal 0.6922754080302724 -0.3237065033282535 -0.6449564784848008
		outer loop
			vertex 26.340895684043055 0.13754117201440863 15.200342876695899
			vertex 23.644382621534415 1.8556175737955414 11.443682906754091
			vertex 31.35959232598905 15.762730479795579 12.744897925121764
		endloop
	endfacet
	facet normal 0.6111277849274186 0.28428836262603285 -0.7387171023911088
		outer loop
			vertex 77.05385464684997 16.73418530725494 14.607202714912193
			vertex 80.50798319758351 13.337829523481659 16.15768733438642
			vertex 79.41662809374665 2.435557395958213 11.059190890994126
		endloop
	endfacet
	facet normal -0.1630676465419922 -0.16015932720610104 0.9735285987376769
		outer loop
			vertex 36.69262586865629 5.672365597868293 27.39532856023555
			vertex 44.07764007834718 6.67060874081389 28.79655584701946
			vertex 40.390769151711496 14.06876877079469 29.39610163192094
		endloop
	endfacet
	facet normal -0.8615805474927603 -0.20958597953432392 -0.46233394571966424
		outer loop
			vertex 36.69262586865629 5.672365597868293 27.39532856023555
			vertex 38.5292356273277 17.299599039388006 18.701845443253028
			vertex 40.55811672916464 8.194236438519482 19.048590151670027
		endloop
	endfacet
	facet normal -0.7439140953560652 0.5474374693850571 0.3832806228390003
		outer loop
			vertex 45.573109919871825 2.340312926525428 6.50818712903385
			vertex 51.9814066655928 7.919514334835583 10.977388737827201
			vertex 51.259682106882764 11.327761882070618 4.7086046112305375
		endloop
	endfacet
	facet normal 0.7886331705470839 -0.16000856193686164 0.5936791914997117
		outer loop
			vertex 26.340895684043055 0.13754117201440863 15.200342876695899
			vertex 31.35959232598905 15.762730479795579 12.744897925121764
			vertex 25.203514534801663 10.43356820009226 19.486208065679463
		endloop
	endfacet
	facet normal -0.24517584510322113 -0.011006523777828762 -0.9694161446005782
		outer loop
			vertex 23.644382621534415 1.8556175737955414 11.443682906754091
			vertex 18.588146808449327 6.174442668032157 12.673424792178844
			vertex 25.640336950598456 17.58730270327043 10.760270566709394
		endloop
	endfacet
	facet normal 0.8377981204746825 0.1197961739813066 0.5326754978676322
		outer loop
			vertex 80.50798319758351 13.337829523481659 16.15768733438642
			vertex 78.2463963725522 17.192124937397026 18.847924360600988
			vertex 78.28695011246104 12.388609268089965 19.864428693794373
		endloop
	endfacet
	facet normal 0.7314857192891776 0.31555141899231404 0.604446808617542
		outer loop
			vertex 44.07764007834718 6.67060874081389 28.79655584701946
			vertex 46.566333304248516 9.157705890303703 24.486415480672946
			vertex 40.390769151711496 14.06876877079469 29.39610163192094
		endloop
	endfacet
	facet normal -0.504168790117875 0.016306813398640718 0.8634511676452005
		outer loop
			vertex 34.98978738155639 15.663257481479896 26.21235763181001
			vertex 36.69262586865629 5.672365597868293 27.39532856023555
			vertex 40.390769151711496 14.06876877079469 29.39610163192094
		endloop
	endfacet
	facet normal 0.9201548651111863 -0.339061620828274 0.1958372832060298
		outer loop
			vertex 61.29506084906379 16.076684198252885 11.097417122245119
			vertex 57.67955254633238 6.211395196662622 11.004925417326538
			vertex 63.06721476792184 16.829489059793914 4.074194622806175
		endloop
	endfacet
	facet normal 0.2050041230110173 0.017746164723213862 -0.9786002162201376
		outer loop
			vertex 63.06721476792184 16.829489059793914 4.074194622806175
			vertex 57.13262414504855 5.862116947569788 2.632089547858598
			vertex 54.72717185016722 16.47754666928403 2.320680998527976
		endloop
	endfacet
	facet normal -0.4313246352004683 -0.12395337562552156 -0.8936412142130764
		outer loop
			vertex 51.259682106882764 11.327761882070618 4.7086046112305375
			vertex 54.72717185016722 16.47754666928403 2.320680998527976
			vertex 57.13262414504855 5.862116947569788 2.632089547858598
		endloop
	endfacet
	facet normal -0.8683279358172179 -0.20165197645775723 -0.4531479628886019
		outer loop
			vertex 36.69262586865629 5.672365597868293 27.39532856023555
			vertex 34.98978738155639 15.663257481479896 26.21235763181001
			vertex 38.5292356273277 17.299599039388006 18.701845443253028
		endloop
	endfacet
	facet normal -0.7511022243691281 -0.6394621305265601 0.1641146921216402
		outer loop
			vertex 64.92466370544159 19.369314535155368 16.910895189055008
			vertex 75.04756590665855 7.087591472579945 15.38536184106626
			vertex 75.51297871244398 7.706783312278489 19.928052791252696
		endloop
	endfacet
	facet normal 0.0766048320073075 -0.09598829813007674 -0.9924303231639106
		outer loop
			vertex 77.05385464684997 16.73418530725494 14.607202714912193
			vertex 75.04756590665855 7.087591472579945 15.38536184106626
			vertex 71.90345047007179 18.52592719945438 14.03634943843603
		endloop
	endfacet
	facet normal 0.3861728330774704 -0.15006061749217814 0.9101386455209923
		outer loop
			vertex 61.29506084906379 16.076684198252885 11.097417122245119
			vertex 56.64846096071099 12.81232593410899 12.53075811116969
			vertex 57.67955254633238 6.211395196662622 11.004925417326538
		endloop
	endfacet
	facet normal 0.3039664736635864 -0.07980644517770538 -0.9493341425423517
		outer loop
			vertex 23.644382621534415 1.8556175737955414 11.443682906754091
			vertex 25.640336950598456 17.58730270327043 10.760270566709394
			vertex 31.35959232598905 15.762730479795579 12.744897925121764
		endloop
	endfacet
	facet normal -0.39402599392164744 -0.21373291415725498 -0.8939025436365561
		outer loop
			vertex 71.90345047007179 18.52592719945438 14.03634943843603
			vertex 75.04756590665855 7.087591472579945 15.38536184106626
			vertex 64.92466370544159 19.369314535155368 16.910895189055008
		endloop
	endfacet
	facet normal 0.43495485997887295 -0.30134601560751917 0.8485309945183098
		outer loop
			vertex 40.390769151711496 14.06876877079469 29.39610163192094
			vertex 46.566333304248516 9.157705890303703 24.486415480672946
			vertex 44.64741655138611 16.61118498363684 28.117064702262212
		endloop
	endfacet
	facet normal -0.6277531779288715 0.38378210334563595 0.6772276166487914
		outer loop
			vertex 54.00805450194997 22.634901697720423 4.516831627784164
			vertex 51.9814066655928 7.919514334835583 10.977388737827201
			vertex 56.64846096071099 12.81232593410899 12.53075811116969
		endloop
	endfacet
	facet normal 0.9725898663531021 0.2278915571300384 0.04619945947845656
		outer loop
			vertex 44.64741655138611 16.61118498363684 28.117064702262212
			vertex 46.566333304248516 9.157705890303703 24.486415480672946
			vertex 44.413338030975325 18.15098755255589 25.449379633807865
		endloop
	endfacet
	facet normal 0.6559207531910649 0.11776102096408582 -0.7455872232507488
		outer loop
			vertex 46.566333304248516 9.157705890303703 24.486415480672946
			vertex 40.55811672916464 8.194236438519482 19.048590151670027
			vertex 38.5292356273277 17.299599039388006 18.701845443253028
		endloop
	endfacet
	facet normal 0.7160619152891938 0.24155074099484175 -0.654911118394866
		outer loop
			vertex 44.413338030975325 18.15098755255589 25.449379633807865
			vertex 46.566333304248516 9.157705890303703 24.486415480672946
			vertex 38.5292356273277 17.299599039388006 18.701845443253028
		endloop
	endfacet
	facet normal -0.943460137094703 0.23331601292142162 0.2354710339462056
		outer loop
			vertex 51.9814066655928 7.919514334835583 10.977388737827201
			vertex 54.00805450194997 22.634901697720423 4.516831627784164
			vertex 51.259682106882764 11.327761882070618 4.7086046112305375
		endloop
	endfacet
	facet normal 0.9450511278063152 0.0864317522687826 0.31529021239448524
		outer loop
			vertex 6.489697620714608 7.818285328765981 27.55377078967344
			vertex 5.245252314409818 19.69291864641268 28.028631946593276
			vertex 5.472288423279544 9.902872504041667 30.03189778646975
		endloop
	endfacet
	facet normal -0.0969201523549672 -0.13873607136573526 0.9855753581383269
		outer loop
			vertex 18.733587471591008 8.576479682543095 18.588548161249385
			vertex 25.203514534801663 10.43356820009226 19.486208065679463
			vertex 25.789729262355817 18.250059488916847 20.644156369235887
		endloop
	endfacet
	facet normal -0.7487848693340651 -0.6175090407547853 0.2408397891596651
		outer loop
			vertex 64.84252220098426 22.683355080487544 25.152654947334128
			vertex 64.92466370544159 19.369314535155368 16.910895189055008
			vertex 75.51297871244398 7.706783312278489 19.928052791252696
		endloop
	endfacet
	facet normal -0.8499983492189088 0.4950330158096034 -0.18012528857320062
		outer loop
			vertex 25.640336950598456 17.58730270327043 10.760270566709394
			vertex 18.588146808449327 6.174442668032157 12.673424792178844
			vertex 18.733587471591008 8.576479682543095 18.588548161249385
		endloop
	endfacet
	facet normal 0.3922646954858057 -0.16067632610499624 0.9057105094371097
		outer loop
			vertex 61.29506084906379 16.076684198252885 11.097417122245119
			vertex 55.09827097525893 18.505352452779846 14.212111448863947
			vertex 56.64846096071099 12.81232593410899 12.53075811116969
		endloop
	endfacet
	facet normal 0.7338126572776713 -0.6635806815639079 0.14553234373933024
		outer loop
			vertex 25.203514534801663 10.43356820009226 19.486208065679463
			vertex 31.35959232598905 15.762730479795579 12.744897925121764
			vertex 34.06328953345592 19.436070181795913 15.861387491152751
		endloop
	endfacet
	facet normal -0.9650912128057374 -0.2618965117567216 -0.0030278861954225306
		outer loop
			vertex 56.64846096071099 12.81232593410899 12.53075811116969
			vertex 55.09827097525893 18.505352452779846 14.212111448863947
			vertex 54.00805450194997 22.634901697720423 4.516831627784164
		endloop
	endfacet
	facet normal 0.26482139641858593 -0.1439485084378146 0.9534927660540684
		outer loop
			vertex 64.84252220098426 22.683355080487544 25.152654947334128
			vertex 75.51297871244398 7.706783312278489 19.928052791252696
			vertex 78.28695011246104 12.388609268089965 19.864428693794373
		endloop
	endfacet
	facet normal -0.0692121093569409 -0.8488960558411294 0.5240087502091324
		outer loop
			vertex 64.92466370544159 19.369314535155368 16.910895189055008
			vertex 54.476466160317315 22.887175851927225 21.229824605452006
			vertex 61.29506084906379 16.076684198252885 11.097417122245119
		endloop
	endfacet
	facet normal 0.4719380106310723 -0.8263492346175829 -0.3072807455219426
		outer loop
			vertex 44.413338030975325 18.15098755255589 25.449379633807865
			vertex 38.5292356273277 17.299599039388006 18.701845443253028
			vertex 41.32476219035501 19.789364982550445 16.299804484148833
		endloop
	endfacet
	facet normal -0.06937793987132414 -0.8489351708715293 0.5239234458549632
		outer loop
			vertex 54.476466160317315 22.887175851927225 21.229824605452006
			vertex 55.09827097525893 18.505352452779846 14.212111448863947
			vertex 61.29506084906379 16.076684198252885 11.097417122245119
		endloop
	endfacet
	facet normal 0.5111971839567878 -0.16334021802365425 0.8437993910229108
		outer loop
			vertex 25.203514534801663 10.43356820009226 19.486208065679463
			vertex 34.06328953345592 19.436070181795913 15.861387491152751
			vertex 25.789729262355817 18.250059488916847 20.644156369235887
		endloop
	endfacet
	facet normal 0.968837416820624 -0.027894294448075205 -0.24612185621269989
		outer loop
			vertex 6.102134488653078 20.785328403481515 31.277865984958158
			vertex 5.472288423279544 9.902872504041667 30.03189778646975
			vertex 5.245252314409818 19.69291864641268 28.028631946593276
		endloop
	endfacet
	facet normal -0.7108443474392565 0.16116989668692355 -0.6846346311103345
		outer loop
			vertex 51.259682106882764 11.327761882070618 4.7086046112305375
			vertex 54.00805450194997 22.634901697720423 4.516831627784164
			vertex 54.72717185016722 16.47754666928403 2.320680998527976
		endloop
	endfacet
	facet normal -0.8205642683727913 0.14976130401716484 -0.551584837798234
		outer loop
			vertex 24.155435026766888 28.108246506958068 15.825833527828769
			vertex 25.640336950598456 17.58730270327043 10.760270566709394
			vertex 18.733587471591008 8.576479682543095 18.588548161249385
		endloop
	endfacet
	facet normal 0.30118807775461953 -0.09410146651656046 0.9489102464500582
		outer loop
			vertex 64.84252220098426 22.683355080487544 25.152654947334128
			vertex 78.28695011246104 12.388609268089965 19.864428693794373
			vertex 73.45406923540807 24.997994034572216 22.648851888357548
		endloop
	endfacet
	facet normal 0.7181907085418753 -0.6936261121361031 -0.05554208068728734
		outer loop
			vertex 61.29506084906379 16.076684198252885 11.097417122245119
			vertex 70.463009140437 25.848596789327765 7.609638900266441
			vertex 64.92466370544159 19.369314535155368 16.910895189055008
		endloop
	endfacet
	facet normal -0.8810775114277064 -0.15117946380515374 -0.44815978018999625
		outer loop
			vertex 38.5292356273277 17.299599039388006 18.701845443253028
			vertex 34.98978738155639 15.663257481479896 26.21235763181001
			vertex 31.751472996820933 26.67485826942343 28.8642646727803
		endloop
	endfacet
	facet normal 0.07643118406028904 -0.7354014693843073 -0.6733074728016497
		outer loop
			vertex 38.5292356273277 17.299599039388006 18.701845443253028
			vertex 34.06328953345592 19.436070181795913 15.861387491152751
			vertex 41.32476219035501 19.789364982550445 16.299804484148833
		endloop
	endfacet
	facet normal -0.2966408948177175 -0.09166623764949354 0.9505795497468533
		outer loop
			vertex 5.472288423279544 9.902872504041667 30.03189778646975
			vertex 6.102134488653078 20.785328403481515 31.277865984958158
			vertex 1.8221056411800305 23.551302688237804 30.208954780933432
		endloop
	endfacet
	facet normal 0.20269275691781122 -0.4369645911217592 -0.8763433073852112
		outer loop
			vertex 63.06721476792184 16.829489059793914 4.074194622806175
			vertex 54.72717185016722 16.47754666928403 2.320680998527976
			vertex 59.3530602769376 22.649764377147598 0.3130128919905637
		endloop
	endfacet
	facet normal 0.734007347138731 0.6216190119982556 -0.2735379649494289
		outer loop
			vertex 80.50798319758351 13.337829523481659 16.15768733438642
			vertex 77.05385464684997 16.73418530725494 14.607202714912193
			vertex 78.2463963725522 17.192124937397026 18.847924360600988
		endloop
	endfacet
	facet normal 0.9907771024049857 0.13520965048013175 -0.008892905431912014
		outer loop
			vertex 44.64741655138611 16.61118498363684 28.117064702262212
			vertex 44.413338030975325 18.15098755255589 25.449379633807865
			vertex 43.488648352150165 25.130917312820834 28.552134168010877
		endloop
	endfacet
	facet normal 0.001219169495970963 -0.8481797892928651 0.5297070498500573
		outer loop
			vertex 55.09827097525893 18.505352452779846 14.212111448863947
			vertex 54.476466160317315 22.887175851927225 21.229824605452006
			vertex 41.32476219035501 19.789364982550445 16.299804484148833
		endloop
	endfacet
	facet normal 0.4941395842457525 -0.45181679258625407 0.7427567954711048
		outer loop
			vertex 28.947797689536777 23.709924253573703 21.864383463516823
			vertex 25.789729262355817 18.250059488916847 20.644156369235887
			vertex 34.06328953345592 19.436070181795913 15.861387491152751
		endloop
	endfacet
	facet normal -0.6559702393591105 -0.16588269655849477 -0.7363327889328531
		outer loop
			vertex 5.472288423279544 9.902872504041667 30.03189778646975
			vertex 1.8221056411800305 23.551302688237804 30.208954780933432
			vertex 5.245252314409818 19.69291864641268 28.028631946593276
		endloop
	endfacet
	facet normal 0.3372868851573184 -0.2839580450067677 0.8975552271458332
		outer loop
			vertex 66.04566131268524 28.39252495448381 26.50673504834331
			vertex 64.84252220098426 22.683355080487544 25.152654947334128
			vertex 73.45406923540807 24.997994034572216 22.648851888357548
		endloop
	endfacet
	facet normal 0.9269627530843098 0.2418507547643448 -0.28678958630723317
		outer loop
			vertex 78.2463963725522 17.192124937397026 18.847924360600988
			vertex 77.05385464684997 16.73418530725494 14.607202714912193
			vertex 74.67617260975814 26.808774888407775 15.417986711901419
		endloop
	endfacet
	facet normal 0.36063240662659013 -0.13986976414255542 0.9221608950554234
		outer loop
			vertex 40.390769151711496 14.06876877079469 29.39610163192094
			vertex 44.64741655138611 16.61118498363684 28.117064702262212
			vertex 37.98402339034033 25.40967008975923 32.05745901745797
		endloop
	endfacet
	facet normal -0.16689969935769644 -0.7503531954241047 -0.6396206473145982
		outer loop
			vertex 55.09827097525893 18.505352452779846 14.212111448863947
			vertex 41.32476219035501 19.789364982550445 16.299804484148833
			vertex 35.44740090479502 27.955889211489918 8.253085322212375
		endloop
	endfacet
	facet normal 0.07716907609469494 -0.6710393111707004 -0.7373948579684042
		outer loop
			vertex 34.06328953345592 19.436070181795913 15.861387491152751
			vertex 35.44740090479502 27.955889211489918 8.253085322212375
			vertex 41.32476219035501 19.789364982550445 16.299804484148833
		endloop
	endfacet
	facet normal 0.8713919426058064 -0.39786961081055033 -0.28701194253051565
		outer loop
			vertex 35.44740090479502 27.955889211489918 8.253085322212375
			vertex 34.06328953345592 19.436070181795913 15.861387491152751
			vertex 31.35959232598905 15.762730479795579 12.744897925121764
		endloop
	endfacet
	facet normal -0.1569498096538202 -0.9168439970198743 0.3671019509322314
		outer loop
			vertex 64.84252220098426 22.683355080487544 25.152654947334128
			vertex 54.476466160317315 22.887175851927225 21.229824605452006
			vertex 64.92466370544159 19.369314535155368 16.910895189055008
		endloop
	endfacet
	facet normal -0.354041853008674 -0.6552794472939226 -0.6672804599809258
		outer loop
			vertex 70.463009140437 25.848596789327765 7.609638900266441
			vertex 71.90345047007179 18.52592719945438 14.03634943843603
			vertex 64.92466370544159 19.369314535155368 16.910895189055008
		endloop
	endfacet
	facet normal 0.938902006371738 -0.0881047355809979 -0.33271696379855215
		outer loop
			vertex 44.413338030975325 18.15098755255589 25.449379633807865
			vertex 41.32476219035501 19.789364982550445 16.299804484148833
			vertex 45.738394085892836 26.68648630931237 26.92835420090881
		endloop
	endfacet
	facet normal -0.0076463198611532775 -0.8373783890560292 0.5465701851862302
		outer loop
			vertex 54.476466160317315 22.887175851927225 21.229824605452006
			vertex 45.738394085892836 26.68648630931237 26.92835420090881
			vertex 41.32476219035501 19.789364982550445 16.299804484148833
		endloop
	endfacet
	facet normal -0.5097281712969401 -0.8440582167775088 0.16656205473230973
		outer loop
			vertex 28.947797689536777 23.709924253573703 21.864383463516823
			vertex 34.06328953345592 19.436070181795913 15.861387491152751
			vertex 38.5292356273277 17.299599039388006 18.701845443253028
		endloop
	endfacet
	facet normal -0.5934404537527517 0.27188934900128914 0.7575649211449691
		outer loop
			vertex 24.155435026766888 28.108246506958068 15.825833527828769
			vertex 18.733587471591008 8.576479682543095 18.588548161249385
			vertex 25.789729262355817 18.250059488916847 20.644156369235887
		endloop
	endfacet
	facet normal 0.18656815977138583 -0.39407575841320097 -0.8999425639398212
		outer loop
			vertex 31.35959232598905 15.762730479795579 12.744897925121764
			vertex 25.640336950598456 17.58730270327043 10.760270566709394
			vertex 35.44740090479502 27.955889211489918 8.253085322212375
		endloop
	endfacet
	facet normal 0.14857394662048953 0.1141178434308759 -0.9822947114773132
		outer loop
			vertex 77.05385464684997 16.73418530725494 14.607202714912193
			vertex 71.90345047007179 18.52592719945438 14.03634943843603
			vertex 74.67617260975814 26.808774888407775 15.417986711901419
		endloop
	endfacet
	facet normal -0.5485790611979119 -0.2995960640359006 0.7805787673447274
		outer loop
			vertex 34.98978738155639 15.663257481479896 26.21235763181001
			vertex 40.390769151711496 14.06876877079469 29.39610163192094
			vertex 37.98402339034033 25.40967008975923 32.05745901745797
		endloop
	endfacet
	facet normal 0.6681464080747286 -0.22652371870678334 0.708708249027827
		outer loop
			vertex 44.413338030975325 18.15098755255589 25.449379633807865
			vertex 45.738394085892836 26.68648630931237 26.92835420090881
			vertex 43.488648352150165 25.130917312820834 28.552134168010877
		endloop
	endfacet
	facet normal 0.9328811072834856 0.18588357752675325 -0.30851277976672764
		outer loop
			vertex 5.245252314409818 19.69291864641268 28.028631946593276
			vertex 2.8163868172095476 29.26278781691125 26.450216890452698
			vertex 6.102134488653078 20.785328403481515 31.277865984958158
		endloop
	endfacet
	facet normal 0.5379769042931545 0.030151091655517232 0.8424201814528987
		outer loop
			vertex 37.98402339034033 25.40967008975923 32.05745901745797
			vertex 44.64741655138611 16.61118498363684 28.117064702262212
			vertex 43.488648352150165 25.130917312820834 28.552134168010877
		endloop
	endfacet
	facet normal -0.48259702568271007 -0.3366473200514605 0.8085596407837652
		outer loop
			vertex 34.98978738155639 15.663257481479896 26.21235763181001
			vertex 37.98402339034033 25.40967008975923 32.05745901745797
			vertex 31.751472996820933 26.67485826942343 28.8642646727803
		endloop
	endfacet
	facet normal 0.7448185397194739 -0.6568342101173491 0.11753366883437588
		outer loop
			vertex 63.06721476792184 16.829489059793914 4.074194622806175
			vertex 70.463009140437 25.848596789327765 7.609638900266441
			vertex 61.29506084906379 16.076684198252885 11.097417122245119
		endloop
	endfacet
	facet normal -0.7015501567496655 -0.6806576903774475 -0.2110272164782507
		outer loop
			vertex 50.48446735187431 26.121762685178332 4.984138038360481
			vertex 54.00805450194997 22.634901697720423 4.516831627784164
			vertex 55.09827097525893 18.505352452779846 14.212111448863947
		endloop
	endfacet
	facet normal -0.40314775198347336 -0.28816132838124076 0.8685821428605535
		outer loop
			vertex 5.561858607930603 29.310140167924366 33.85529644893805
			vertex 1.8221056411800305 23.551302688237804 30.208954780933432
			vertex 6.102134488653078 20.785328403481515 31.277865984958158
		endloop
	endfacet
	facet normal -0.6725723295434468 0.2319716627877507 0.7027343802575673
		outer loop
			vertex 25.789729262355817 18.250059488916847 20.644156369235887
			vertex 28.947797689536777 23.709924253573703 21.864383463516823
			vertex 24.155435026766888 28.108246506958068 15.825833527828769
		endloop
	endfacet
	facet normal -0.6055953995793805 0.20364996874688945 -0.7692729699122941
		outer loop
			vertex 54.00805450194997 22.634901697720423 4.516831627784164
			vertex 59.3530602769376 22.649764377147598 0.3130128919905637
			vertex 54.72717185016722 16.47754666928403 2.320680998527976
		endloop
	endfacet
	facet normal -0.7235127914678957 -0.28716772984422384 -0.6277451198682857
		outer loop
			vertex 1.8221056411800305 23.551302688237804 30.208954780933432
			vertex 2.8163868172095476 29.26278781691125 26.450216890452698
			vertex 5.245252314409818 19.69291864641268 28.028631946593276
		endloop
	endfacet
	facet normal -0.37051657449427183 -0.7926631727623084 0.4841513839404177
		outer loop
			vertex 38.5292356273277 17.299599039388006 18.701845443253028
			vertex 31.751472996820933 26.67485826942343 28.8642646727803
			vertex 28.947797689536777 23.709924253573703 21.864383463516823
		endloop
	endfacet
	facet normal 0.3116822690683211 -0.36738016834905574 -0.8762910333058544
		outer loop
			vertex 59.3530602769376 22.649764377147598 0.3130128919905637
			vertex 67.93142358653799 28.180569622451934 1.0454357454821164
			vertex 63.06721476792184 16.829489059793914 4.074194622806175
		endloop
	endfacet
	facet normal -0.7549730086754978 0.1949059172613881 -0.6261209464536094
		outer loop
			vertex 31.613199536303433 29.670080448638984 7.319489405480386
			vertex 25.640336950598456 17.58730270327043 10.760270566709394
			vertex 24.155435026766888 28.108246506958068 15.825833527828769
		endloop
	endfacet
	facet normal 0.7478232077322521 0.14348499110293095 0.6482071484527434
		outer loop
			vertex 78.28695011246104 12.388609268089965 19.864428693794373
			vertex 78.2463963725522 17.192124937397026 18.847924360600988
			vertex 73.45406923540807 24.997994034572216 22.648851888357548
		endloop
	endfacet
	facet normal 0.9162560695905987 0.22099467836636744 -0.3341199890340798
		outer loop
			vertex 74.67617260975814 26.808774888407775 15.417986711901419
			vertex 75.25828990208727 30.33948947657307 19.34962109547388
			vertex 78.2463963725522 17.192124937397026 18.847924360600988
		endloop
	endfacet
	facet normal -0.35268908711091834 -0.14493232829597114 0.9244484994025226
		outer loop
			vertex 64.84252220098426 22.683355080487544 25.152654947334128
			vertex 66.04566131268524 28.39252495448381 26.50673504834331
			vertex 54.476466160317315 22.887175851927225 21.229824605452006
		endloop
	endfacet
	facet normal 0.8699398917184074 -0.21737690761830938 -0.44266450595373785
		outer loop
			vertex 70.463009140437 25.848596789327765 7.609638900266441
			vertex 74.67617260975814 26.808774888407775 15.417986711901419
			vertex 71.90345047007179 18.52592719945438 14.03634943843603
		endloop
	endfacet
	facet normal -0.21841162873880485 -0.8034185057477413 -0.5539088959871733
		outer loop
			vertex 50.48446735187431 26.121762685178332 4.984138038360481
			vertex 55.09827097525893 18.505352452779846 14.212111448863947
			vertex 35.44740090479502 27.955889211489918 8.253085322212375
		endloop
	endfacet
	facet normal 0.08994223028994314 -0.3136435108284325 -0.9452714654138703
		outer loop
			vertex 25.640336950598456 17.58730270327043 10.760270566709394
			vertex 31.613199536303433 29.670080448638984 7.319489405480386
			vertex 35.44740090479502 27.955889211489918 8.253085322212375
		endloop
	endfacet
	facet normal -0.5480514615955926 -0.46021753828948225 -0.698455018518518
		outer loop
			vertex 54.00805450194997 22.634901697720423 4.516831627784164
			vertex 50.48446735187431 26.121762685178332 4.984138038360481
			vertex 59.3530602769376 22.649764377147598 0.3130128919905637
		endloop
	endfacet
	facet normal 0.7674685264324946 -0.45056489471086586 -0.45605190120174016
		outer loop
			vertex 67.93142358653799 28.180569622451934 1.0454357454821164
			vertex 70.463009140437 25.848596789327765 7.609638900266441
			vertex 63.06721476792184 16.829489059793914 4.074194622806175
		endloop
	endfacet
	facet normal 0.9248148187648931 0.16259409663911126 -0.34391962830139433
		outer loop
			vertex 5.561858607930603 29.310140167924366 33.85529644893805
			vertex 6.102134488653078 20.785328403481515 31.277865984958158
			vertex 2.8163868172095476 29.26278781691125 26.450216890452698
		endloop
	endfacet
	facet normal 0.7495021305913608 0.14570312818753536 0.6457686541443283
		outer loop
			vertex 78.2463963725522 17.192124937397026 18.847924360600988
			vertex 75.25828990208727 30.33948947657307 19.34962109547388
			vertex 73.45406923540807 24.997994034572216 22.648851888357548
		endloop
	endfacet
	facet normal -0.5888360264428056 -0.12337971541037458 0.7987800572049246
		outer loop
			vertex 1.8221056411800305 23.551302688237804 30.208954780933432
			vertex 5.561858607930603 29.310140167924366 33.85529644893805
			vertex 0.25302086523008427 36.2961670827267 31.02084798165115
		endloop
	endfacet
	facet normal 0.14127024726264217 -0.7099374821043943 0.6899503523744477
		outer loop
			vertex 54.476466160317315 22.887175851927225 21.229824605452006
			vertex 56.72750317014355 31.4787202329167 29.609347581787297
			vertex 45.738394085892836 26.68648630931237 26.92835420090881
		endloop
	endfacet
	facet normal 0.7863559041500362 0.39721829708576867 -0.47314058848154344
		outer loop
			vertex 74.67617260975814 26.808774888407775 15.417986711901419
			vertex 70.463009140437 25.848596789327765 7.609638900266441
			vertex 75.25828990208727 30.33948947657307 19.34962109547388
		endloop
	endfacet
	facet normal -0.7104234155105474 -0.499262690566966 0.4960194920586912
		outer loop
			vertex 28.947797689536777 23.709924253573703 21.864383463516823
			vertex 31.751472996820933 26.67485826942343 28.8642646727803
			vertex 26.627237536904243 29.320560459591547 24.18808460214393
		endloop
	endfacet
	facet normal -0.8252683502955341 -0.4706192063565195 0.31216936526322897
		outer loop
			vertex 28.947797689536777 23.709924253573703 21.864383463516823
			vertex 26.627237536904243 29.320560459591547 24.18808460214393
			vertex 24.155435026766888 28.108246506958068 15.825833527828769
		endloop
	endfacet
	facet normal -0.5159635585989073 -0.1960732759167562 -0.8338686207486304
		outer loop
			vertex 50.48446735187431 26.121762685178332 4.984138038360481
			vertex 56.08374494533027 30.214756269290476 0.5571218859459712
			vertex 59.3530602769376 22.649764377147598 0.3130128919905637
		endloop
	endfacet
	facet normal -0.19547543641782028 -0.5151601791725899 -0.8345054484855854
		outer loop
			vertex 0 31.31490630355863 25.84310846956865
			vertex 2.8163868172095476 29.26278781691125 26.450216890452698
			vertex 1.8221056411800305 23.551302688237804 30.208954780933432
		endloop
	endfacet
	facet normal 0.006536597987978191 -0.6990805982107767 0.7150129999461592
		outer loop
			vertex 54.476466160317315 22.887175851927225 21.229824605452006
			vertex 66.04566131268524 28.39252495448381 26.50673504834331
			vertex 56.72750317014355 31.4787202329167 29.609347581787297
		endloop
	endfacet
	facet normal 0.5024758264313203 -0.7638878454695927 0.40496098996815205
		outer loop
			vertex 77.75913188347855 30.654566408456304 7.622223995671963
			vertex 76.4888384711098 32.24295554213206 12.194622155373105
			vertex 70.463009140437 25.848596789327765 7.609638900266441
		endloop
	endfacet
	facet normal 0.751053516150608 -0.47512642304936076 -0.4584468322478937
		outer loop
			vertex 73.83615269212109 33.31882971554087 5.393692244854098
			vertex 70.463009140437 25.848596789327765 7.609638900266441
			vertex 67.93142358653799 28.180569622451934 1.0454357454821164
		endloop
	endfacet
	facet normal 0.744254018286703 -0.6660820850572104 -0.04919971778308136
		outer loop
			vertex 70.463009140437 25.848596789327765 7.609638900266441
			vertex 76.4888384711098 32.24295554213206 12.194622155373105
			vertex 75.25828990208727 30.33948947657307 19.34962109547388
		endloop
	endfacet
	facet normal -0.06359207695050399 0.00472037969091423 -0.9979648118870198
		outer loop
			vertex 59.3530602769376 22.649764377147598 0.3130128919905637
			vertex 56.08374494533027 30.214756269290476 0.5571218859459712
			vertex 65.33784902610687 37.09972375796126 -3.801403636316536E-13
		endloop
	endfacet
	facet normal 0.09880805679946254 -0.6487246988263913 0.7545814952966461
		outer loop
			vertex 45.89269938085252 32.242301934777984 31.684564410656126
			vertex 45.738394085892836 26.68648630931237 26.92835420090881
			vertex 56.72750317014355 31.4787202329167 29.609347581787297
		endloop
	endfacet
	facet normal 0.45274474338858983 -0.4831471472975728 0.7493937759230572
		outer loop
			vertex 45.89269938085252 32.242301934777984 31.684564410656126
			vertex 37.98402339034033 25.40967008975923 32.05745901745797
			vertex 43.488648352150165 25.130917312820834 28.552134168010877
		endloop
	endfacet
	facet normal 0.7067206232889077 -0.4713248940906167 0.5276351057583326
		outer loop
			vertex 43.488648352150165 25.130917312820834 28.552134168010877
			vertex 45.738394085892836 26.68648630931237 26.92835420090881
			vertex 45.89269938085252 32.242301934777984 31.684564410656126
		endloop
	endfacet
	facet normal 0.13391484532812453 -0.07686603491377786 -0.9880073010243285
		outer loop
			vertex 59.3530602769376 22.649764377147598 0.3130128919905637
			vertex 65.33784902610687 37.09972375796126 -3.801403636316536E-13
			vertex 67.93142358653799 28.180569622451934 1.0454357454821164
		endloop
	endfacet
	facet normal -0.23993006582749662 -0.5812622282389298 -0.7775395716841216
		outer loop
			vertex 50.48446735187431 26.121762685178332 4.984138038360481
			vertex 35.44740090479502 27.955889211489918 8.253085322212375
			vertex 48.05893480707146 31.936372892319376 1.3857937172575738
		endloop
	endfacet
	facet normal 0.21096019701605243 -0.0595195144529235 -0.9756809020751799
		outer loop
			vertex 35.44740090479502 27.955889211489918 8.253085322212375
			vertex 31.613199536303433 29.670080448638984 7.319489405480386
			vertex 33.977041458415144 33.30701214567812 7.608731665216171
		endloop
	endfacet
	facet normal 0.25015885155028483 -0.37744074537818767 -0.8916047514001935
		outer loop
			vertex 77.75913188347855 30.654566408456304 7.622223995671963
			vertex 70.463009140437 25.848596789327765 7.609638900266441
			vertex 73.83615269212109 33.31882971554087 5.393692244854098
		endloop
	endfacet
	facet normal -0.9548682784723681 -0.059880162078274936 0.2909311550121355
		outer loop
			vertex 24.155435026766888 28.108246506958068 15.825833527828769
			vertex 26.627237536904243 29.320560459591547 24.18808460214393
			vertex 23.105385397485577 35.202506252624616 13.83961222264612
		endloop
	endfacet
	facet normal -0.20521351820141456 -0.5755025978325331 -0.7916338622339267
		outer loop
			vertex 50.48446735187431 26.121762685178332 4.984138038360481
			vertex 48.05893480707146 31.936372892319376 1.3857937172575738
			vertex 56.08374494533027 30.214756269290476 0.5571218859459712
		endloop
	endfacet
	facet normal -0.6933653490578536 -0.2876081324114065 -0.6607011842706987
		outer loop
			vertex 31.613199536303433 29.670080448638984 7.319489405480386
			vertex 24.155435026766888 28.108246506958068 15.825833527828769
			vertex 23.105385397485577 35.202506252624616 13.83961222264612
		endloop
	endfacet
	facet normal -0.6984131456230591 -0.10018897736008225 0.7086474771255766
		outer loop
			vertex 26.627237536904243 29.320560459591547 24.18808460214393
			vertex 31.751472996820933 26.67485826942343 28.8642646727803
			vertex 34.13226428408933 38.223081464479236 32.84336668791671
		endloop
	endfacet
	facet normal 0.5809585438625026 -0.7862782790655306 -0.21036548714774522
		outer loop
			vertex 9.432664145702482 33.92554246212819 27.29427238079581
			vertex 5.561858607930603 29.310140167924366 33.85529644893805
			vertex 2.8163868172095476 29.26278781691125 26.450216890452698
		endloop
	endfacet
	facet normal -0.9759701796982518 -0.13123790345923475 0.1739506281546195
		outer loop
			vertex 0 31.31490630355863 25.84310846956865
			vertex 1.8221056411800305 23.551302688237804 30.208954780933432
			vertex 0.25302086523008427 36.2961670827267 31.02084798165115
		endloop
	endfacet
	facet normal -0.36401913189528834 -0.3415768563708974 -0.866496002763992
		outer loop
			vertex 48.05893480707146 31.936372892319376 1.3857937172575738
			vertex 35.44740090479502 27.955889211489918 8.253085322212375
			vertex 40.157770977744086 35.61557248520167 3.2547525607497505
		endloop
	endfacet
	facet normal 0.07918951333763481 -0.03729468880932185 0.9961616972981667
		outer loop
			vertex 37.98402339034033 25.40967008975923 32.05745901745797
			vertex 45.89269938085252 32.242301934777984 31.684564410656126
			vertex 34.13226428408933 38.223081464479236 32.84336668791671
		endloop
	endfacet
	facet normal 0.8584496964929715 -0.48570526677750453 0.1647862628246601
		outer loop
			vertex 5.561858607930603 29.310140167924366 33.85529644893805
			vertex 9.432664145702482 33.92554246212819 27.29427238079581
			vertex 10.570616012382857 38.33794247374697 34.37163107687795
		endloop
	endfacet
	facet normal 0.46611140766285025 0.011866380797278697 0.8846464517836097
		outer loop
			vertex 66.04566131268524 28.39252495448381 26.50673504834331
			vertex 73.45406923540807 24.997994034572216 22.648851888357548
			vertex 68.63430746766907 39.15930648712723 24.99838080108704
		endloop
	endfacet
	facet normal 0.747921431705695 0.1471634190921491 0.6472684605914394
		outer loop
			vertex 68.63430746766907 39.15930648712723 24.99838080108704
			vertex 73.45406923540807 24.997994034572216 22.648851888357548
			vertex 75.25828990208727 30.33948947657307 19.34962109547388
		endloop
	endfacet
	facet normal -0.4783781606426173 -0.1963006767142603 0.855932462138053
		outer loop
			vertex 37.98402339034033 25.40967008975923 32.05745901745797
			vertex 34.13226428408933 38.223081464479236 32.84336668791671
			vertex 31.751472996820933 26.67485826942343 28.8642646727803
		endloop
	endfacet
	facet normal 0.40406290962163466 -0.15858372303817456 -0.9008797743625117
		outer loop
			vertex 73.83615269212109 33.31882971554087 5.393692244854098
			vertex 78.71892571467203 37.00979987181866 6.933986216367167
			vertex 77.75913188347855 30.654566408456304 7.622223995671963
		endloop
	endfacet
	facet normal 0.6814310791047957 -0.41263975219874804 0.6044668058176808
		outer loop
			vertex 5.561858607930603 29.310140167924366 33.85529644893805
			vertex 10.570616012382857 38.33794247374697 34.37163107687795
			vertex 4.299087784523621 33.230674634922025 37.955206703649914
		endloop
	endfacet
	facet normal 0.9470682773429864 -0.11038388083730583 0.30145825067807286
		outer loop
			vertex 76.4888384711098 32.24295554213206 12.194622155373105
			vertex 77.75913188347855 30.654566408456304 7.622223995671963
			vertex 78.71892571467203 37.00979987181866 6.933986216367167
		endloop
	endfacet
	facet normal -0.6292672140163238 -0.5777306328482502 0.5198558350474626
		outer loop
			vertex 26.627237536904243 29.320560459591547 24.18808460214393
			vertex 24.410734683621467 37.71811841569558 30.837531744926807
			vertex 21.771347419786565 33.494143557709386 22.948422377348813
		endloop
	endfacet
	facet normal -0.09312506292674179 0.04468387905209965 -0.9946512321450911
		outer loop
			vertex 65.33784902610687 37.09972375796126 -3.801403636316536E-13
			vertex 56.08374494533027 30.214756269290476 0.5571218859459712
			vertex 48.05893480707146 31.936372892319376 1.3857937172575738
		endloop
	endfacet
	facet normal 0.452843546570424 -0.5102103062803123 -0.7311758787698552
		outer loop
			vertex 7.02266075566817 37.34261272830531 23.41725861189694
			vertex 9.432664145702482 33.92554246212819 27.29427238079581
			vertex 2.8163868172095476 29.26278781691125 26.450216890452698
		endloop
	endfacet
	facet normal -0.49861411501772934 -0.23739480582666125 -0.8336831955075071
		outer loop
			vertex 35.44740090479502 27.955889211489918 8.253085322212375
			vertex 33.977041458415144 33.30701214567812 7.608731665216171
			vertex 40.157770977744086 35.61557248520167 3.2547525607497505
		endloop
	endfacet
	facet normal -0.5994475603237277 -0.7662066643609895 -0.23149507534877878
		outer loop
			vertex 26.627237536904243 29.320560459591547 24.18808460214393
			vertex 21.771347419786565 33.494143557709386 22.948422377348813
			vertex 23.105385397485577 35.202506252624616 13.83961222264612
		endloop
	endfacet
	facet normal -0.18586271671544913 0.09751980529570337 -0.9777243671455882
		outer loop
			vertex 40.157770977744086 35.61557248520167 3.2547525607497505
			vertex 56.295328720280075 39.24471285694214 0.5490234722331913
			vertex 48.05893480707146 31.936372892319376 1.3857937172575738
		endloop
	endfacet
	facet normal -0.12413255403394761 -0.6359122948959778 0.7617129789029068
		outer loop
			vertex 26.627237536904243 29.320560459591547 24.18808460214393
			vertex 34.13226428408933 38.223081464479236 32.84336668791671
			vertex 24.410734683621467 37.71811841569558 30.837531744926807
		endloop
	endfacet
	facet normal -0.8171938999394815 -0.5209906395404525 0.2465012848098992
		outer loop
			vertex 4.299087784523621 33.230674634922025 37.955206703649914
			vertex 0.25302086523008427 36.2961670827267 31.02084798165115
			vertex 5.561858607930603 29.310140167924366 33.85529644893805
		endloop
	endfacet
	facet normal -0.03957889917765181 -0.33303014569351663 -0.9420851515649955
		outer loop
			vertex 0 31.31490630355863 25.84310846956865
			vertex 7.02266075566817 37.34261272830531 23.41725861189694
			vertex 2.8163868172095476 29.26278781691125 26.450216890452698
		endloop
	endfacet
	facet normal -0.42196951051023834 0.3410664465576046 -0.8400091733024817
		outer loop
			vertex 23.105385397485577 35.202506252624616 13.83961222264612
			vertex 33.977041458415144 33.30701214567812 7.608731665216171
			vertex 31.613199536303433 29.670080448638984 7.319489405480386
		endloop
	endfacet
	facet normal 0.14847238572190308 -0.8497239942733751 0.5058903875684408
		outer loop
			vertex 9.432664145702482 33.92554246212819 27.29427238079581
			vertex 21.771347419786565 33.494143557709386 22.948422377348813
			vertex 10.570616012382857 38.33794247374697 34.37163107687795
		endloop
	endfacet
	facet normal -0.06912721875328923 -0.036240591769095304 -0.9969493703973441
		outer loop
			vertex 65.33784902610687 37.09972375796126 -3.801403636316536E-13
			vertex 48.05893480707146 31.936372892319376 1.3857937172575738
			vertex 56.295328720280075 39.24471285694214 0.5490234722331913
		endloop
	endfacet
	facet normal 0.3310568688704907 0.05239398092778055 0.942155093568042
		outer loop
			vertex 56.72750317014355 31.4787202329167 29.609347581787297
			vertex 66.04566131268524 28.39252495448381 26.50673504834331
			vertex 68.63430746766907 39.15930648712723 24.99838080108704
		endloop
	endfacet
	facet normal -0.2255933612002295 -0.7961524537181421 -0.5614703071587706
		outer loop
			vertex 9.432664145702482 33.92554246212819 27.29427238079581
			vertex 7.02266075566817 37.34261272830531 23.41725861189694
			vertex 21.771347419786565 33.494143557709386 22.948422377348813
		endloop
	endfacet
	facet normal -0.39888044932433386 0.40943614854789473 -0.820522045656961
		outer loop
			vertex 23.105385397485577 35.202506252624616 13.83961222264612
			vertex 24.59292460413797 38.83157557654301 14.927361009391735
			vertex 33.977041458415144 33.30701214567812 7.608731665216171
		endloop
	endfacet
	facet normal -0.3783228252017675 0.0692775824769274 -0.9230777088076093
		outer loop
			vertex 0 31.31490630355863 25.84310846956865
			vertex 3.9617082745222234 44.89737516728818 25.238777918876725
			vertex 7.02266075566817 37.34261272830531 23.41725861189694
		endloop
	endfacet
	facet normal -0.49106039652766076 -0.2558036401137395 -0.8327209524604607
		outer loop
			vertex 33.977041458415144 33.30701214567812 7.608731665216171
			vertex 28.4108746414596 38.84519650085913 9.18985720637943
			vertex 40.157770977744086 35.61557248520167 3.2547525607497505
		endloop
	endfacet
	facet normal 0.19470023494185612 0.11550669262634174 0.9740379984744486
		outer loop
			vertex 56.72750317014355 31.4787202329167 29.609347581787297
			vertex 45.62843435939474 42.57663698842044 30.51188695601581
			vertex 45.89269938085252 32.242301934777984 31.684564410656126
		endloop
	endfacet
	facet normal -0.23719850841451529 -0.85221818169368 -0.4663271795602815
		outer loop
			vertex 18.063609302846494 39.76777762123615 13.369235790985503
			vertex 21.771347419786565 33.494143557709386 22.948422377348813
			vertex 7.02266075566817 37.34261272830531 23.41725861189694
		endloop
	endfacet
	facet normal -0.9412240904140964 0.26522780535270307 -0.209168407968186
		outer loop
			vertex 0 31.31490630355863 25.84310846956865
			vertex 0.25302086523008427 36.2961670827267 31.02084798165115
			vertex 3.9617082745222234 44.89737516728818 25.238777918876725
		endloop
	endfacet
	facet normal 0.62731770611725 -0.06410121409761034 -0.7761208217429835
		outer loop
			vertex 73.22469057712253 39.88890350398144 4.356829561411086
			vertex 73.83615269212109 33.31882971554087 5.393692244854098
			vertex 67.93142358653799 28.180569622451934 1.0454357454821164
		endloop
	endfacet
	facet normal 0.4738365223043944 0.03464667482847517 -0.8799309961887961
		outer loop
			vertex 73.22469057712253 39.88890350398144 4.356829561411086
			vertex 67.93142358653799 28.180569622451934 1.0454357454821164
			vertex 65.33784902610687 37.09972375796126 -3.801403636316536E-13
		endloop
	endfacet
	facet normal -0.7050094289047149 0.3977193148249672 0.5871805955331002
		outer loop
			vertex 4.299087784523621 33.230674634922025 37.955206703649914
			vertex 6.68865216993963 42.639026176043714 34.451654778528116
			vertex 0.25302086523008427 36.2961670827267 31.02084798165115
		endloop
	endfacet
	facet normal 0.25278567740968033 0.18124790825672715 -0.9503939167782431
		outer loop
			vertex 23.105385397485577 35.202506252624616 13.83961222264612
			vertex 18.063609302846494 39.76777762123615 13.369235790985503
			vertex 24.59292460413797 38.83157557654301 14.927361009391735
		endloop
	endfacet
	facet normal 0.9704844242903631 0.13179003311182375 0.2019687336747614
		outer loop
			vertex 75.25828990208727 30.33948947657307 19.34962109547388
			vertex 76.4888384711098 32.24295554213206 12.194622155373105
			vertex 73.7280691980052 42.96286878406155 18.465423751511167
		endloop
	endfacet
	facet normal -0.37159006300592756 -0.7610082988734863 0.531777391509768
		outer loop
			vertex 21.771347419786565 33.494143557709386 22.948422377348813
			vertex 24.410734683621467 37.71811841569558 30.837531744926807
			vertex 22.107686502356096 42.232622310855604 35.6887818204652
		endloop
	endfacet
	facet normal -0.6410948582973074 -0.7318256177016857 -0.2311463777356276
		outer loop
			vertex 21.771347419786565 33.494143557709386 22.948422377348813
			vertex 18.063609302846494 39.76777762123615 13.369235790985503
			vertex 23.105385397485577 35.202506252624616 13.83961222264612
		endloop
	endfacet
	facet normal 0.13826979022601998 0.057877839317293046 0.988701987874412
		outer loop
			vertex 45.62843435939474 42.57663698842044 30.51188695601581
			vertex 56.72750317014355 31.4787202329167 29.609347581787297
			vertex 52.33369055492974 43.66719110729548 29.510317933426577
		endloop
	endfacet
	facet normal 0.3740127905874371 -0.11051092123782622 -0.9208158169602458
		outer loop
			vertex 78.71892571467203 37.00979987181866 6.933986216367167
			vertex 73.83615269212109 33.31882971554087 5.393692244854098
			vertex 73.22469057712253 39.88890350398144 4.356829561411086
		endloop
	endfacet
	facet normal 0.21033322149563563 -0.8087947863383326 0.5491911593673
		outer loop
			vertex 10.570616012382857 38.33794247374697 34.37163107687795
			vertex 21.771347419786565 33.494143557709386 22.948422377348813
			vertex 22.107686502356096 42.232622310855604 35.6887818204652
		endloop
	endfacet
	facet normal 0.2941262606813079 0.11373964155750997 0.9489747292293935
		outer loop
			vertex 56.72750317014355 31.4787202329167 29.609347581787297
			vertex 68.63430746766907 39.15930648712723 24.99838080108704
			vertex 52.33369055492974 43.66719110729548 29.510317933426577
		endloop
	endfacet
	facet normal 0.9187941346888957 0.005739088485565453 0.3946953267073708
		outer loop
			vertex 78.71892571467203 37.00979987181866 6.933986216367167
			vertex 73.7280691980052 42.96286878406155 18.465423751511167
			vertex 76.4888384711098 32.24295554213206 12.194622155373105
		endloop
	endfacet
	facet normal 0.15531012699769375 0.11530233635713112 0.9811137220947157
		outer loop
			vertex 34.13226428408933 38.223081464479236 32.84336668791671
			vertex 45.89269938085252 32.242301934777984 31.684564410656126
			vertex 45.62843435939474 42.57663698842044 30.51188695601581
		endloop
	endfacet
	facet normal -0.2079803674332168 0.2046056311872577 0.9564939636238213
		outer loop
			vertex 34.13226428408933 38.223081464479236 32.84336668791671
			vertex 29.52911261827046 44.93160939324523 30.40742056110279
			vertex 24.410734683621467 37.71811841569558 30.837531744926807
		endloop
	endfacet
	facet normal -0.6638998060988507 -0.5115102877941718 -0.5455220187514265
		outer loop
			vertex 23.113887492779593 41.744396201601376 12.917842874624283
			vertex 28.4108746414596 38.84519650085913 9.18985720637943
			vertex 33.977041458415144 33.30701214567812 7.608731665216171
		endloop
	endfacet
	facet normal -0.5711938623737218 -0.39061045936021804 -0.7219148430562908
		outer loop
			vertex 7.02266075566817 37.34261272830531 23.41725861189694
			vertex 8.11680881423056 44.77538764596936 18.52985351914183
			vertex 18.063609302846494 39.76777762123615 13.369235790985503
		endloop
	endfacet
	facet normal 0.7413803052333986 0.13590278362170546 0.6571800943545879
		outer loop
			vertex 73.7280691980052 42.96286878406155 18.465423751511167
			vertex 68.63430746766907 39.15930648712723 24.99838080108704
			vertex 75.25828990208727 30.33948947657307 19.34962109547388
		endloop
	endfacet
	facet normal -0.3851865921419631 -0.75962021169221 0.5240309372763626
		outer loop
			vertex 29.462915603742207 40.28003301547055 38.264792590161534
			vertex 22.107686502356096 42.232622310855604 35.6887818204652
			vertex 24.410734683621467 37.71811841569558 30.837531744926807
		endloop
	endfacet
	facet normal 0.30908143668005 0.261952924805641 0.9142479590819803
		outer loop
			vertex 4.299087784523621 33.230674634922025 37.955206703649914
			vertex 10.570616012382857 38.33794247374697 34.37163107687795
			vertex 6.68865216993963 42.639026176043714 34.451654778528116
		endloop
	endfacet
	facet normal 0.4277133433494515 0.17562369311584305 -0.886689130607332
		outer loop
			vertex 65.33784902610687 37.09972375796126 -3.801403636316536E-13
			vertex 63.181844519011946 45.729484116838265 0.6692745726090266
			vertex 73.22469057712253 39.88890350398144 4.356829561411086
		endloop
	endfacet
	facet normal -0.044841225032072864 0.06610359065214834 -0.9968046849009671
		outer loop
			vertex 63.181844519011946 45.729484116838265 0.6692745726090266
			vertex 65.33784902610687 37.09972375796126 -3.801403636316536E-13
			vertex 56.295328720280075 39.24471285694214 0.5490234722331913
		endloop
	endfacet
	facet normal -0.6761000924980345 -0.6190106294642684 -0.3996429725822778
		outer loop
			vertex 24.59292460413797 38.83157557654301 14.927361009391735
			vertex 23.113887492779593 41.744396201601376 12.917842874624283
			vertex 33.977041458415144 33.30701214567812 7.608731665216171
		endloop
	endfacet
	facet normal 0.7145991479777504 0.19625929139795575 0.6714390130528949
		outer loop
			vertex 68.63430746766907 39.15930648712723 24.99838080108704
			vertex 73.7280691980052 42.96286878406155 18.465423751511167
			vertex 69.69540474385107 47.77590893546305 21.350473168921365
		endloop
	endfacet
	facet normal 0.8409300094056833 -0.1957675048413228 -0.5044916286016649
		outer loop
			vertex 24.410734683621467 37.71811841569558 30.837531744926807
			vertex 28.316172186413517 45.03712958784305 34.50731521786716
			vertex 29.462915603742207 40.28003301547055 38.264792590161534
		endloop
	endfacet
	facet normal -0.7035494864000207 0.39391073625053663 0.5914832643894729
		outer loop
			vertex 0.25302086523008427 36.2961670827267 31.02084798165115
			vertex 6.68865216993963 42.639026176043714 34.451654778528116
			vertex 6.128666638940544 44.98495452119356 32.223250403105375
		endloop
	endfacet
	facet normal -0.5302464508405472 0.11189108502529772 -0.8404279186598127
		outer loop
			vertex 29.445771774657686 44.353728469634966 9.2702984738796
			vertex 28.4108746414596 38.84519650085913 9.18985720637943
			vertex 23.113887492779593 41.744396201601376 12.917842874624283
		endloop
	endfacet
	facet normal -0.13943007599252102 -0.14407098251911038 0.9796952617547448
		outer loop
			vertex 10.570616012382857 38.33794247374697 34.37163107687795
			vertex 10.822935258502255 47.36672617139559 35.73528637060745
			vertex 6.68865216993963 42.639026176043714 34.451654778528116
		endloop
	endfacet
	facet normal 0.2173615374180006 0.9042543334072032 -0.3675296757618059
		outer loop
			vertex 18.063609302846494 39.76777762123615 13.369235790985503
			vertex 15.541481797288533 43.4213314266308 20.866666693621045
			vertex 24.59292460413797 38.83157557654301 14.927361009391735
		endloop
	endfacet
	facet normal -0.21734537053970052 0.2663435718673203 -0.9390538278660695
		outer loop
			vertex 56.295328720280075 39.24471285694214 0.5490234722331913
			vertex 40.157770977744086 35.61557248520167 3.2547525607497505
			vertex 57.02946521590334 47.68666983695023 2.773496388428555
		endloop
	endfacet
	facet normal -0.23484193345982904 0.2667240086052899 -0.9347232582547492
		outer loop
			vertex 63.181844519011946 45.729484116838265 0.6692745726090266
			vertex 56.295328720280075 39.24471285694214 0.5490234722331913
			vertex 57.02946521590334 47.68666983695023 2.773496388428555
		endloop
	endfacet
	facet normal -0.6491037759373863 -0.7520332964148813 -0.11449982160333179
		outer loop
			vertex 10.337407249730092 47.08078500231976 17.72759019093243
			vertex 18.597536795407372 41.62708020656558 6.720466642979606
			vertex 20.228819082878616 39.8146167164094 9.376902229142676
		endloop
	endfacet
	facet normal 0.34672782468060687 0.4088460582172024 0.8441710231182483
		outer loop
			vertex 52.33369055492974 43.66719110729548 29.510317933426577
			vertex 68.63430746766907 39.15930648712723 24.99838080108704
			vertex 59.36061713361898 48.671177428109885 24.20062247278392
		endloop
	endfacet
	facet normal 0.561256999176682 0.44831011087748773 -0.6957072842512146
		outer loop
			vertex 78.71892571467203 37.00979987181866 6.933986216367167
			vertex 73.22469057712253 39.88890350398144 4.356829561411086
			vertex 71.48417318500844 49.88210886355938 9.392248211701004
		endloop
	endfacet
	facet normal -0.8181763560826458 0.5190505284440663 0.2473337810919872
		outer loop
			vertex 0.25302086523008427 36.2961670827267 31.02084798165115
			vertex 6.128666638940544 44.98495452119356 32.223250403105375
			vertex 3.9617082745222234 44.89737516728818 25.238777918876725
		endloop
	endfacet
	facet normal -0.2462571011234083 0.3075482591305635 -0.9191145241220241
		outer loop
			vertex 40.157770977744086 35.61557248520167 3.2547525607497505
			vertex 45.50188251601992 47.09270291735358 5.663316467235102
			vertex 57.02946521590334 47.68666983695023 2.773496388428555
		endloop
	endfacet
	facet normal -0.4455537533797588 0.6688593971373799 -0.5950705501957143
		outer loop
			vertex 45.50188251601992 47.09270291735358 5.663316467235102
			vertex 28.4108746414596 38.84519650085913 9.18985720637943
			vertex 42.47573610530048 48.136594937688216 9.102451336700902
		endloop
	endfacet
	facet normal -0.34623711123940987 0.3443538267273517 -0.8726627669488468
		outer loop
			vertex 28.4108746414596 38.84519650085913 9.18985720637943
			vertex 45.50188251601992 47.09270291735358 5.663316467235102
			vertex 40.157770977744086 35.61557248520167 3.2547525607497505
		endloop
	endfacet
	facet normal 0.8682666125263525 0.0596388864057193 -0.49250004345207793
		outer loop
			vertex 20.228819082878616 39.8146167164094 9.376902229142676
			vertex 18.597536795407372 41.62708020656558 6.720466642979606
			vertex 19.081270836263137 44.41468460113194 7.910841642217939
		endloop
	endfacet
	facet normal -0.32123777596207687 0.44690013510592 -0.8349170980026993
		outer loop
			vertex 15.541481797288533 43.4213314266308 20.866666693621045
			vertex 14.109950790368146 46.440956036981774 23.033747099025582
			vertex 24.59292460413797 38.83157557654301 14.927361009391735
		endloop
	endfacet
	facet normal -0.47929062293712843 -0.060848597542894935 -0.8755443717719863
		outer loop
			vertex 23.113887492779593 41.744396201601376 12.917842874624283
			vertex 23.424413699484184 43.884908670341986 12.59909320322742
			vertex 29.445771774657686 44.353728469634966 9.2702984738796
		endloop
	endfacet
	facet normal -0.8322222916795032 -0.2138536892239899 -0.5115394968494659
		outer loop
			vertex 8.11680881423056 44.77538764596936 18.52985351914183
			vertex 7.02266075566817 37.34261272830531 23.41725861189694
			vertex 3.9617082745222234 44.89737516728818 25.238777918876725
		endloop
	endfacet
	facet normal 0.8101012184014701 -0.199612280507323 -0.5512630528296989
		outer loop
			vertex 23.424413699484184 43.884908670341986 12.59909320322742
			vertex 23.113887492779593 41.744396201601376 12.917842874624283
			vertex 20.228819082878616 39.8146167164094 9.376902229142676
		endloop
	endfacet
	facet normal 0.036858122724581555 -0.7318533234034087 0.6804646881452446
		outer loop
			vertex 10.337407249730092 47.08078500231976 17.72759019093243
			vertex 20.228819082878616 39.8146167164094 9.376902229142676
			vertex 15.022667837542933 47.01738587233063 17.405620840365753
		endloop
	endfacet
	facet normal 0.048087694535751194 0.3699006833686766 0.9278259848040592
		outer loop
			vertex 45.62843435939474 42.57663698842044 30.51188695601581
			vertex 29.52911261827046 44.93160939324523 30.40742056110279
			vertex 34.13226428408933 38.223081464479236 32.84336668791671
		endloop
	endfacet
	facet normal 0.8744136837532619 0.46502853896478136 0.13838051746301308
		outer loop
			vertex 71.48417318500844 49.88210886355938 9.392248211701004
			vertex 73.7280691980052 42.96286878406155 18.465423751511167
			vertex 78.71892571467203 37.00979987181866 6.933986216367167
		endloop
	endfacet
	facet normal -0.06295857193515436 -0.14732379251583264 0.9870825286563621
		outer loop
			vertex 10.570616012382857 38.33794247374697 34.37163107687795
			vertex 22.107686502356096 42.232622310855604 35.6887818204652
			vertex 10.822935258502255 47.36672617139559 35.73528637060745
		endloop
	endfacet
	facet normal 0.7311897339716988 -0.034724833566353405 -0.681289775989766
		outer loop
			vertex 20.228819082878616 39.8146167164094 9.376902229142676
			vertex 19.081270836263137 44.41468460113194 7.910841642217939
			vertex 23.424413699484184 43.884908670341986 12.59909320322742
		endloop
	endfacet
	facet normal -0.018102999306145045 0.01799931348934195 -0.9996740999595989
		outer loop
			vertex 28.4108746414596 38.84519650085913 9.18985720637943
			vertex 29.445771774657686 44.353728469634966 9.2702984738796
			vertex 42.47573610530048 48.136594937688216 9.102451336700902
		endloop
	endfacet
	facet normal -0.18983602912381844 -0.7888198203664412 0.5845729835046745
		outer loop
			vertex 20.228819082878616 39.8146167164094 9.376902229142676
			vertex 23.113887492779593 41.744396201601376 12.917842874624283
			vertex 15.022667837542933 47.01738587233063 17.405620840365753
		endloop
	endfacet
	facet normal 0.2771828051274612 0.34543739099362786 0.8965727530129317
		outer loop
			vertex 59.36061713361898 48.671177428109885 24.20062247278392
			vertex 68.63430746766907 39.15930648712723 24.99838080108704
			vertex 69.69540474385107 47.77590893546305 21.350473168921365
		endloop
	endfacet
	facet normal -0.0014666460860263257 0.6812955932931348 0.7320069422543845
		outer loop
			vertex 42.62634463655679 52.769998075810506 21.01867781864735
			vertex 45.62843435939474 42.57663698842044 30.51188695601581
			vertex 52.33369055492974 43.66719110729548 29.510317933426577
		endloop
	endfacet
	facet normal 0.27258336324281857 0.8978330043287078 -0.3458239529317195
		outer loop
			vertex 15.541481797288533 43.4213314266308 20.866666693621045
			vertex 18.063609302846494 39.76777762123615 13.369235790985503
			vertex 8.11680881423056 44.77538764596936 18.52985351914183
		endloop
	endfacet
	facet normal -0.3440994551302695 -0.5008979159212154 0.7941642417062319
		outer loop
			vertex 33.43346060938428 49.70852002030356 45.93193692159207
			vertex 28.165980330384905 46.21835526870143 41.44828837987207
			vertex 29.462915603742207 40.28003301547055 38.264792590161534
		endloop
	endfacet
	facet normal 0.9213980289824534 -0.07851654740756368 -0.38060586434058796
		outer loop
			vertex 29.462915603742207 40.28003301547055 38.264792590161534
			vertex 28.316172186413517 45.03712958784305 34.50731521786716
			vertex 33.43346060938428 49.70852002030356 45.93193692159207
		endloop
	endfacet
	facet normal 0.8083907980295394 0.5470775808817474 0.21727963125369015
		outer loop
			vertex 69.69540474385107 47.77590893546305 21.350473168921365
			vertex 73.7280691980052 42.96286878406155 18.465423751511167
			vertex 71.48417318500844 49.88210886355938 9.392248211701004
		endloop
	endfacet
	facet normal 0.5275869833533756 0.4537595366821225 -0.7181603288027755
		outer loop
			vertex 73.22469057712253 39.88890350398144 4.356829561411086
			vertex 63.181844519011946 45.729484116838265 0.6692745726090266
			vertex 71.48417318500844 49.88210886355938 9.392248211701004
		endloop
	endfacet
	facet normal -0.6705832712464218 0.42047362603895366 0.6111628311097641
		outer loop
			vertex 6.128666638940544 44.98495452119356 32.223250403105375
			vertex 6.68865216993963 42.639026176043714 34.451654778528116
			vertex 10.822935258502255 47.36672617139559 35.73528637060745
		endloop
	endfacet
	facet normal -0.665940117926743 -0.7234409715533884 -0.182090417138313
		outer loop
			vertex 15.022667837542933 47.01738587233063 17.405620840365753
			vertex 24.59292460413797 38.83157557654301 14.927361009391735
			vertex 14.109950790368146 46.440956036981774 23.033747099025582
		endloop
	endfacet
	facet normal -0.6482307817617945 -0.6271085233404547 -0.4318932200558923
		outer loop
			vertex 24.59292460413797 38.83157557654301 14.927361009391735
			vertex 15.022667837542933 47.01738587233063 17.405620840365753
			vertex 23.113887492779593 41.744396201601376 12.917842874624283
		endloop
	endfacet
	facet normal -0.8230506167560969 -0.3600836221840876 -0.4392350934205916
		outer loop
			vertex 10.337407249730092 47.08078500231976 17.72759019093243
			vertex 13.602963059228244 47.57954183690076 11.19962388406382
			vertex 18.597536795407372 41.62708020656558 6.720466642979606
		endloop
	endfacet
	facet normal -0.4014575764855305 -0.4992972885850147 0.7678111954732212
		outer loop
			vertex 29.462915603742207 40.28003301547055 38.264792590161534
			vertex 28.165980330384905 46.21835526870143 41.44828837987207
			vertex 22.107686502356096 42.232622310855604 35.6887818204652
		endloop
	endfacet
	facet normal 0.7966561761403483 -0.5503746682002607 0.2498532801883762
		outer loop
			vertex 24.410734683621467 37.71811841569558 30.837531744926807
			vertex 29.52911261827046 44.93160939324523 30.40742056110279
			vertex 28.316172186413517 45.03712958784305 34.50731521786716
		endloop
	endfacet
	facet normal -0.14774001501124112 0.4702808398600575 -0.8700625377666812
		outer loop
			vertex 42.47573610530048 48.136594937688216 9.102451336700902
			vertex 29.445771774657686 44.353728469634966 9.2702984738796
			vertex 33.00818371892339 48.24881971819927 10.770737733033663
		endloop
	endfacet
	facet normal -0.42171472258270354 0.6020103031623423 -0.6780415087908545
		outer loop
			vertex 29.445771774657686 44.353728469634966 9.2702984738796
			vertex 23.424413699484184 43.884908670341986 12.59909320322742
			vertex 24.44621546330319 53.64363213604457 20.628016438929855
		endloop
	endfacet
	facet normal 0.5684931460799357 0.68953543939508 -0.44872755729771113
		outer loop
			vertex 19.081270836263137 44.41468460113194 7.910841642217939
			vertex 18.67106091628806 49.19006383367036 14.729214259785492
			vertex 23.424413699484184 43.884908670341986 12.59909320322742
		endloop
	endfacet
	facet normal 0.007309420466326175 0.7265884425794613 -0.687034065736481
		outer loop
			vertex 19.081270836263137 44.41468460113194 7.910841642217939
			vertex 13.602963059228244 47.57954183690076 11.19962388406382
			vertex 17.18048625158534 48.98982268907453 12.729159960408262
		endloop
	endfacet
	facet normal -0.8304860454892684 -0.43525372655786027 -0.34763072615218005
		outer loop
			vertex 13.602963059228244 47.57954183690076 11.19962388406382
			vertex 16.094689890305116 51.7701757356444 7.105427357601002E-15
			vertex 18.597536795407372 41.62708020656558 6.720466642979606
		endloop
	endfacet
	facet normal 0.9844772504743966 -0.11376548410241735 -0.13364863607727068
		outer loop
			vertex 18.597536795407372 41.62708020656558 6.720466642979606
			vertex 18.898618186396046 49.92265562099842 1.8768528810908762
			vertex 19.081270836263137 44.41468460113194 7.910841642217939
		endloop
	endfacet
	facet normal -0.3917672877396084 0.6201268761628776 -0.6796771658056654
		outer loop
			vertex 24.44621546330319 53.64363213604457 20.628016438929855
			vertex 33.00818371892339 48.24881971819927 10.770737733033663
			vertex 29.445771774657686 44.353728469634966 9.2702984738796
		endloop
	endfacet
	facet normal 0.5289458018638622 0.7097501154756088 -0.465264561591527
		outer loop
			vertex 18.67106091628806 49.19006383367036 14.729214259785492
			vertex 19.081270836263137 44.41468460113194 7.910841642217939
			vertex 17.18048625158534 48.98982268907453 12.729159960408262
		endloop
	endfacet
	facet normal 0.2324661057655862 -0.49668759369244536 -0.8362182394220972
		outer loop
			vertex 18.898618186396046 49.92265562099842 1.8768528810908762
			vertex 18.597536795407372 41.62708020656558 6.720466642979606
			vertex 16.094689890305116 51.7701757356444 7.105427357601002E-15
		endloop
	endfacet
	facet normal 0.13024767937939333 0.2776627208680407 0.9518082556147742
		outer loop
			vertex 22.107686502356096 42.232622310855604 35.6887818204652
			vertex 14.654210126977194 51.92214130100119 33.882094186312
			vertex 10.822935258502255 47.36672617139559 35.73528637060745
		endloop
	endfacet
	facet normal -0.6630133689585043 0.5357362498543615 0.5228766041565441
		outer loop
			vertex 6.128666638940544 44.98495452119356 32.223250403105375
			vertex 10.822935258502255 47.36672617139559 35.73528637060745
			vertex 7.29736467296145 49.49048222152212 29.088835744026625
		endloop
	endfacet
	facet normal -0.5590891769939287 0.29188046636947057 -0.7760316266236781
		outer loop
			vertex 15.541481797288533 43.4213314266308 20.866666693621045
			vertex 7.29736467296145 49.49048222152212 29.088835744026625
			vertex 14.109950790368146 46.440956036981774 23.033747099025582
		endloop
	endfacet
	facet normal 0.27888647270219374 0.8847415443762336 -0.3734363868163964
		outer loop
			vertex 7.29736467296145 49.49048222152212 29.088835744026625
			vertex 15.541481797288533 43.4213314266308 20.866666693621045
			vertex 8.11680881423056 44.77538764596936 18.52985351914183
		endloop
	endfacet
	facet normal 0.31519133116445547 0.5830625797356137 -0.7487939989548725
		outer loop
			vertex 18.67106091628806 49.19006383367036 14.729214259785492
			vertex 24.44621546330319 53.64363213604457 20.628016438929855
			vertex 23.424413699484184 43.884908670341986 12.59909320322742
		endloop
	endfacet
	facet normal 0.8977056619130251 0.07739638524183202 -0.43374456091205965
		outer loop
			vertex 28.316172186413517 45.03712958784305 34.50731521786716
			vertex 30.518083044622884 55.85126003026764 40.994180308009675
			vertex 33.43346060938428 49.70852002030356 45.93193692159207
		endloop
	endfacet
	facet normal -0.8721804266729303 0.41090186484050717 0.2654448356989055
		outer loop
			vertex 6.128666638940544 44.98495452119356 32.223250403105375
			vertex 7.29736467296145 49.49048222152212 29.088835744026625
			vertex 3.9617082745222234 44.89737516728818 25.238777918876725
		endloop
	endfacet
	facet normal 0.9606167228015028 0.21909547852336275 0.1709171821810771
		outer loop
			vertex 18.898618186396046 49.92265562099842 1.8768528810908762
			vertex 17.18048625158534 48.98982268907453 12.729159960408262
			vertex 19.081270836263137 44.41468460113194 7.910841642217939
		endloop
	endfacet
	facet normal -0.5567171151920541 -0.2825907630661645 0.7811584437756018
		outer loop
			vertex 28.165980330384905 46.21835526870143 41.44828837987207
			vertex 14.654210126977194 51.92214130100119 33.882094186312
			vertex 22.107686502356096 42.232622310855604 35.6887818204652
		endloop
	endfacet
	facet normal 0.09643842722612506 0.6910595780725304 0.7163353190429519
		outer loop
			vertex 29.52911261827046 44.93160939324523 30.40742056110279
			vertex 45.62843435939474 42.57663698842044 30.51188695601581
			vertex 33.28959333345708 55.31759153655405 19.881641525546826
		endloop
	endfacet
	facet normal 0.01935333453227086 0.7596794112083879 -0.6500097234877024
		outer loop
			vertex 57.02946521590334 47.68666983695023 2.773496388428555
			vertex 64.5135323947679 55.19769091296487 11.774607468708945
			vertex 63.181844519011946 45.729484116838265 0.6692745726090266
		endloop
	endfacet
	facet normal -0.676642274511514 -0.053455799552355805 -0.7343689194390673
		outer loop
			vertex 9.130685187181165 51.39808362324605 27.260770196492267
			vertex 14.109950790368146 46.440956036981774 23.033747099025582
			vertex 7.29736467296145 49.49048222152212 29.088835744026625
		endloop
	endfacet
	facet normal -0.5762050231940941 0.7286986566036509 -0.37011625080497096
		outer loop
			vertex 3.9617082745222234 44.89737516728818 25.238777918876725
			vertex 7.29736467296145 49.49048222152212 29.088835744026625
			vertex 8.11680881423056 44.77538764596936 18.52985351914183
		endloop
	endfacet
	facet normal 0.28553998767615385 0.7986611888377709 0.5297237212756667
		outer loop
			vertex 42.62634463655679 52.769998075810506 21.01867781864735
			vertex 52.33369055492974 43.66719110729548 29.510317933426577
			vertex 49.34951429812365 54.28090964960606 15.11665740593903
		endloop
	endfacet
	facet normal 0.1357322852493165 0.6805583614535996 0.7200118494834579
		outer loop
			vertex 29.52911261827046 44.93160939324523 30.40742056110279
			vertex 33.28959333345708 55.31759153655405 19.881641525546826
			vertex 28.044490143998217 51.45665588262194 24.519790032390635
		endloop
	endfacet
	facet normal 0.7349707499397021 0.6476958418759255 0.20076875541206057
		outer loop
			vertex 29.52911261827046 44.93160939324523 30.40742056110279
			vertex 22.064219202918853 53.07394105202832 31.466967663916698
			vertex 28.316172186413517 45.03712958784305 34.50731521786716
		endloop
	endfacet
	facet normal 0.6844682936541963 0.5680572122984747 0.4569618786483165
		outer loop
			vertex 29.52911261827046 44.93160939324523 30.40742056110279
			vertex 28.044490143998217 51.45665588262194 24.519790032390635
			vertex 22.064219202918853 53.07394105202832 31.466967663916698
		endloop
	endfacet
	facet normal -0.2893372538574315 0.8150430108960026 -0.5019849040756292
		outer loop
			vertex 45.50188251601992 47.09270291735358 5.663316467235102
			vertex 42.47573610530048 48.136594937688216 9.102451336700902
			vertex 49.34951429812365 54.28090964960606 15.11665740593903
		endloop
	endfacet
	facet normal -0.10545177718329568 0.7533434102207129 -0.6491175771506353
		outer loop
			vertex 49.34951429812365 54.28090964960606 15.11665740593903
			vertex 42.47573610530048 48.136594937688216 9.102451336700902
			vertex 33.00818371892339 48.24881971819927 10.770737733033663
		endloop
	endfacet
	facet normal -0.7683211798014274 -0.6120513345022843 -0.18728515318229552
		outer loop
			vertex 9.130685187181165 51.39808362324605 27.260770196492267
			vertex 15.022667837542933 47.01738587233063 17.405620840365753
			vertex 14.109950790368146 46.440956036981774 23.033747099025582
		endloop
	endfacet
	facet normal 0.6382957944475631 0.7361337931064252 0.22513444302749583
		outer loop
			vertex 69.69540474385107 47.77590893546305 21.350473168921365
			vertex 71.48417318500844 49.88210886355938 9.392248211701004
			vertex 64.5135323947679 55.19769091296487 11.774607468708945
		endloop
	endfacet
	facet normal -0.10578067960001072 0.7897284532775936 0.6042676707446293
		outer loop
			vertex 49.34951429812365 54.28090964960606 15.11665740593903
			vertex 52.33369055492974 43.66719110729548 29.510317933426577
			vertex 59.36061713361898 48.671177428109885 24.20062247278392
		endloop
	endfacet
	facet normal 0.6795395782449888 0.2706650238446967 -0.6818844524300085
		outer loop
			vertex 30.518083044622884 55.85126003026764 40.994180308009675
			vertex 28.316172186413517 45.03712958784305 34.50731521786716
			vertex 22.064219202918853 53.07394105202832 31.466967663916698
		endloop
	endfacet
	facet normal 0.10255453293244657 0.693941586606997 0.7126904251863997
		outer loop
			vertex 42.62634463655679 52.769998075810506 21.01867781864735
			vertex 33.28959333345708 55.31759153655405 19.881641525546826
			vertex 45.62843435939474 42.57663698842044 30.51188695601581
		endloop
	endfacet
	facet normal 0.3178978526304244 0.7023354516165178 -0.636919044067287
		outer loop
			vertex 63.181844519011946 45.729484116838265 0.6692745726090266
			vertex 64.5135323947679 55.19769091296487 11.774607468708945
			vertex 71.48417318500844 49.88210886355938 9.392248211701004
		endloop
	endfacet
	facet normal -0.179497636707661 0.8169154026929112 -0.5481147902213946
		outer loop
			vertex 45.50188251601992 47.09270291735358 5.663316467235102
			vertex 49.34951429812365 54.28090964960606 15.11665740593903
			vertex 57.02946521590334 47.68666983695023 2.773496388428555
		endloop
	endfacet
	facet normal -0.19755979025509016 0.7774605676705555 -0.5970973078081516
		outer loop
			vertex 24.44621546330319 53.64363213604457 20.628016438929855
			vertex 33.28959333345708 55.31759153655405 19.881641525546826
			vertex 33.00818371892339 48.24881971819927 10.770737733033663
		endloop
	endfacet
	facet normal 0.01614781756135674 -0.9100517999765049 0.4141798755945642
		outer loop
			vertex 10.337407249730092 47.08078500231976 17.72759019093243
			vertex 15.022667837542933 47.01738587233063 17.405620840365753
			vertex 9.130685187181165 51.39808362324605 27.260770196492267
		endloop
	endfacet
	facet normal -0.8909584830437232 0.1268723628679365 -0.43600044155107714
		outer loop
			vertex 11.385425733119206 53.12656446961326 17.345254266741307
			vertex 13.602963059228244 47.57954183690076 11.19962388406382
			vertex 10.337407249730092 47.08078500231976 17.72759019093243
		endloop
	endfacet
	facet normal -0.005337030034273992 0.7413659009752361 -0.6710798141663846
		outer loop
			vertex 13.602963059228244 47.57954183690076 11.19962388406382
			vertex 11.385425733119206 53.12656446961326 17.345254266741307
			vertex 17.18048625158534 48.98982268907453 12.729159960408262
		endloop
	endfacet
	facet normal -0.16965200022593285 0.8214744288767173 -0.5444244314145088
		outer loop
			vertex 64.5135323947679 55.19769091296487 11.774607468708945
			vertex 57.02946521590334 47.68666983695023 2.773496388428555
			vertex 49.34951429812365 54.28090964960606 15.11665740593903
		endloop
	endfacet
	facet normal 0.8275761494947541 0.5327788111558742 0.1768175759667845
		outer loop
			vertex 17.18048625158534 48.98982268907453 12.729159960408262
			vertex 18.898618186396046 49.92265562099842 1.8768528810908762
			vertex 12.531710576183617 54.84616122714701 16.841210390337416
		endloop
	endfacet
	facet normal 0.2155874806849616 0.8248476306716563 0.522636034298503
		outer loop
			vertex 59.36061713361898 48.671177428109885 24.20062247278392
			vertex 69.69540474385107 47.77590893546305 21.350473168921365
			vertex 64.5135323947679 55.19769091296487 11.774607468708945
		endloop
	endfacet
	facet normal -0.6572755794988979 0.5433485597448455 0.5222654068743112
		outer loop
			vertex 14.375071143618317 57.04023735906772 30.141662591018566
			vertex 7.29736467296145 49.49048222152212 29.088835744026625
			vertex 10.822935258502255 47.36672617139559 35.73528637060745
		endloop
	endfacet
	facet normal 0.1521261545342361 0.7114469039546023 -0.686076479672665
		outer loop
			vertex 18.67106091628806 49.19006383367036 14.729214259785492
			vertex 13.75525497481367 57.26981343278763 22.017745977259853
			vertex 24.44621546330319 53.64363213604457 20.628016438929855
		endloop
	endfacet
	facet normal -0.5145737453444027 -0.08749699519495026 0.8529701849619883
		outer loop
			vertex 14.654210126977194 51.92214130100119 33.882094186312
			vertex 28.165980330384905 46.21835526870143 41.44828837987207
			vertex 21.99373614284868 55.29127986257945 38.6554344077579
		endloop
	endfacet
	facet normal -0.7283671722500088 0.6850082964049904 -0.015649161155107057
		outer loop
			vertex 7.29736467296145 49.49048222152212 29.088835744026625
			vertex 14.375071143618317 57.04023735906772 30.141662591018566
			vertex 9.130685187181165 51.39808362324605 27.260770196492267
		endloop
	endfacet
	facet normal 0.6808462229262318 0.7307689216819763 0.04924635855416358
		outer loop
			vertex 12.836250760556041 55.12025131870775 8.563612474860314
			vertex 12.531710576183617 54.84616122714701 16.841210390337416
			vertex 18.898618186396046 49.92265562099842 1.8768528810908762
		endloop
	endfacet
	facet normal -0.5815832719392017 -0.14950205085763743 0.7996311866040825
		outer loop
			vertex 28.165980330384905 46.21835526870143 41.44828837987207
			vertex 33.43346060938428 49.70852002030356 45.93193692159207
			vertex 21.99373614284868 55.29127986257945 38.6554344077579
		endloop
	endfacet
	facet normal -0.2828111219751261 0.5558555462718828 0.7816920627497486
		outer loop
			vertex 14.375071143618317 57.04023735906772 30.141662591018566
			vertex 10.822935258502255 47.36672617139559 35.73528637060745
			vertex 14.654210126977194 51.92214130100119 33.882094186312
		endloop
	endfacet
	facet normal -0.9687360815905878 0.15571329671707515 -0.1931418480029998
		outer loop
			vertex 9.130685187181165 51.39808362324605 27.260770196492267
			vertex 11.385425733119206 53.12656446961326 17.345254266741307
			vertex 10.337407249730092 47.08078500231976 17.72759019093243
		endloop
	endfacet
	facet normal 0.5133982411845205 0.7273235099868602 -0.45543688670224625
		outer loop
			vertex 12.531710576183617 54.84616122714701 16.841210390337416
			vertex 18.67106091628806 49.19006383367036 14.729214259785492
			vertex 17.18048625158534 48.98982268907453 12.729159960408262
		endloop
	endfacet
	facet normal -0.9659154123519401 -0.16727032959436117 -0.19755518980369896
		outer loop
			vertex 13.602963059228244 47.57954183690076 11.19962388406382
			vertex 11.385425733119206 53.12656446961326 17.345254266741307
			vertex 12.836250760556041 55.12025131870775 8.563612474860314
		endloop
	endfacet
	facet normal -0.9396970802690033 -0.19400465109077153 -0.2816586456849106
		outer loop
			vertex 16.094689890305116 51.7701757356444 7.105427357601002E-15
			vertex 13.602963059228244 47.57954183690076 11.19962388406382
			vertex 12.836250760556041 55.12025131870775 8.563612474860314
		endloop
	endfacet
	facet normal 0.5892399481462186 0.8029404910804128 -0.08990467892266357
		outer loop
			vertex 12.836250760556041 55.12025131870775 8.563612474860314
			vertex 18.898618186396046 49.92265562099842 1.8768528810908762
			vertex 16.094689890305116 51.7701757356444 7.105427357601002E-15
		endloop
	endfacet
	facet normal 0.053242050547630926 0.8747999900194585 0.48154985361376523
		outer loop
			vertex 64.5135323947679 55.19769091296487 11.774607468708945
			vertex 49.34951429812365 54.28090964960606 15.11665740593903
			vertex 59.36061713361898 48.671177428109885 24.20062247278392
		endloop
	endfacet
	facet normal -0.3158699753000926 0.9413309061206651 -0.11883721591305701
		outer loop
			vertex 49.34951429812365 54.28090964960606 15.11665740593903
			vertex 33.00818371892339 48.24881971819927 10.770737733033663
			vertex 42.62634463655679 52.769998075810506 21.01867781864735
		endloop
	endfacet
	facet normal -0.10799910619568333 0.8207069138206943 0.561049333541931
		outer loop
			vertex 24.44621546330319 53.64363213604457 20.628016438929855
			vertex 28.044490143998217 51.45665588262194 24.519790032390635
			vertex 33.28959333345708 55.31759153655405 19.881641525546826
		endloop
	endfacet
	facet normal 0.5104903097535286 0.7261035316770864 -0.46062273601485304
		outer loop
			vertex 18.67106091628806 49.19006383367036 14.729214259785492
			vertex 12.531710576183617 54.84616122714701 16.841210390337416
			vertex 13.75525497481367 57.26981343278763 22.017745977259853
		endloop
	endfacet
	facet normal -0.5662143288562914 -0.09273142133221515 0.8190251627975339
		outer loop
			vertex 21.99373614284868 55.29127986257945 38.6554344077579
			vertex 33.43346060938428 49.70852002030356 45.93193692159207
			vertex 31.800688947111077 57.7152129531074 45.709688932924244
		endloop
	endfacet
	facet normal 0.27827789967559313 0.754696802350246 -0.5941331055196757
		outer loop
			vertex 33.00818371892339 48.24881971819927 10.770737733033663
			vertex 33.28959333345708 55.31759153655405 19.881641525546826
			vertex 42.62634463655679 52.769998075810506 21.01867781864735
		endloop
	endfacet
	facet normal -0.841115915993381 0.5317983760816909 -0.09856217864623525
		outer loop
			vertex 11.385425733119206 53.12656446961326 17.345254266741307
			vertex 9.130685187181165 51.39808362324605 27.260770196492267
			vertex 12.531710576183617 54.84616122714701 16.841210390337416
		endloop
	endfacet
	facet normal -0.8336840521728864 0.5521026844162416 -0.012390601800400306
		outer loop
			vertex 12.531710576183617 54.84616122714701 16.841210390337416
			vertex 12.836250760556041 55.12025131870775 8.563612474860314
			vertex 11.385425733119206 53.12656446961326 17.345254266741307
		endloop
	endfacet
	facet normal 0.4028806161905974 0.9050755111427274 0.13610851636696045
		outer loop
			vertex 24.44621546330319 53.64363213604457 20.628016438929855
			vertex 22.064219202918853 53.07394105202832 31.466967663916698
			vertex 28.044490143998217 51.45665588262194 24.519790032390635
		endloop
	endfacet
	facet normal -0.8152300523718661 0.5741143700034711 -0.07610947290109103
		outer loop
			vertex 13.75525497481367 57.26981343278763 22.017745977259853
			vertex 12.531710576183617 54.84616122714701 16.841210390337416
			vertex 9.130685187181165 51.39808362324605 27.260770196492267
		endloop
	endfacet
	facet normal -0.7493443333261128 0.6578322728908371 0.07576127543355256
		outer loop
			vertex 14.375071143618317 57.04023735906772 30.141662591018566
			vertex 13.75525497481367 57.26981343278763 22.017745977259853
			vertex 9.130685187181165 51.39808362324605 27.260770196492267
		endloop
	endfacet
	facet normal 0.9287259351820597 0.1803999340703548 -0.3239197448560677
		outer loop
			vertex 31.800688947111077 57.7152129531074 45.709688932924244
			vertex 33.43346060938428 49.70852002030356 45.93193692159207
			vertex 30.518083044622884 55.85126003026764 40.994180308009675
		endloop
	endfacet
	facet normal 0.4815953839225777 0.6286712770883134 -0.6106048735054561
		outer loop
			vertex 30.518083044622884 55.85126003026764 40.994180308009675
			vertex 22.064219202918853 53.07394105202832 31.466967663916698
			vertex 23.308696897164964 57.68649907584194 37.19754337375359
		endloop
	endfacet
	facet normal 0.4343072148447258 0.8894705757742725 0.14219471848701426
		outer loop
			vertex 14.375071143618317 57.04023735906772 30.141662591018566
			vertex 22.064219202918853 53.07394105202832 31.466967663916698
			vertex 24.44621546330319 53.64363213604457 20.628016438929855
		endloop
	endfacet
	facet normal -0.6056677919858915 0.6290848408584448 0.48725638913516556
		outer loop
			vertex 14.654210126977194 51.92214130100119 33.882094186312
			vertex 21.99373614284868 55.29127986257945 38.6554344077579
			vertex 23.308696897164964 57.68649907584194 37.19754337375359
		endloop
	endfacet
	facet normal 0.44173457233566704 0.6495931395884761 -0.6187885912030151
		outer loop
			vertex 14.375071143618317 57.04023735906772 30.141662591018566
			vertex 23.308696897164964 57.68649907584194 37.19754337375359
			vertex 22.064219202918853 53.07394105202832 31.466967663916698
		endloop
	endfacet
	facet normal 0.3214677404639094 0.9469178985557067 0.00223276417758675
		outer loop
			vertex 24.44621546330319 53.64363213604457 20.628016438929855
			vertex 13.75525497481367 57.26981343278763 22.017745977259853
			vertex 14.375071143618317 57.04023735906772 30.141662591018566
		endloop
	endfacet
	facet normal 0.4289047561547338 0.7941358859017239 -0.43056811873492495
		outer loop
			vertex 23.308696897164964 57.68649907584194 37.19754337375359
			vertex 31.800688947111077 57.7152129531074 45.709688932924244
			vertex 30.518083044622884 55.85126003026764 40.994180308009675
		endloop
	endfacet
	facet normal -0.5489129823077884 0.6333636734526314 0.545476851025374
		outer loop
			vertex 31.800688947111077 57.7152129531074 45.709688932924244
			vertex 23.308696897164964 57.68649907584194 37.19754337375359
			vertex 21.99373614284868 55.29127986257945 38.6554344077579
		endloop
	endfacet
	facet normal -0.5692983959511577 0.46463003240556383 0.678246466525439
		outer loop
			vertex 14.375071143618317 57.04023735906772 30.141662591018566
			vertex 14.654210126977194 51.92214130100119 33.882094186312
			vertex 23.308696897164964 57.68649907584194 37.19754337375359
		endloop
	endfacet
endsolid elephant
